<?xml version="1.0" encoding="UTF-8"?>
<svg id="Layer_1" data-name="Layer 1" xmlns="http://www.w3.org/2000/svg" viewBox="0 0 51 51">
  <defs>
    <style>
      .cls-1 {
        fill: #fff;
        stroke: #1a325d;
        stroke-width: 1.5px;
      }

      .cls-2 {
        stroke: #fff;
        stroke-width: .3px;
      }

      .cls-2, .cls-3 {
        fill: #1a325d;
      }

      .cls-3, .cls-4 {
        stroke-width: 0px;
      }

      .cls-4 {
        fill: #ffc907;
      }
    </style>
  </defs>
  <circle class="cls-4" cx="22.51" cy="15.5" r="2.5"/>
  <circle class="cls-4" cx="11.5" cy="20.5" r="2.5"/>
  <circle class="cls-4" cx="8.5" cy="31.5" r="2.5"/>
  <circle class="cls-4" cx="17.51" cy="39.5" r="2.5"/>
  <path class="cls-2" d="m31.35,29.53l.02.31c.01.09.01.15.02.2,0,.08.01.13.01.18m-.05-.69l-.23.21m.23-.21l-.23.21m1.69-15.78l-.15-.03m.15.03l-.15-.03m-7.07,24.75l2.2-4.35c.05-.15.11-.31.17-.46l-2.37,4.81Zm5.39-10.98c-.87.57-1.63,1.19-2.29,1.87-2.44,2.46-3.49,5.6-3.24,9.39h.15c0-.1,0-.18,0-.27h0c-.12-2.29.24-4.32,1.12-6.1.53-1.08,1.24-2.08,2.15-2.98l1.07.26.93-1.9.15-.29s-.02.01-.03.02Zm-3.02,6.17l-2.37,4.81,2.2-4.35c.05-.15.11-.31.17-.46Zm3.05-6.19c.14-.11.24-.34.25-.52l-.25.52Zm.4-.51h-.15m.15,0h-.15m-5.67,11.52l-.14.27h.15c0-.1,0-.18,0-.27Zm0-.01l2.2-4.35c.05-.15.11-.31.17-.46l-2.37,4.81Zm4.34-8.81l-1.51,3.05c.13-.24.27-.48.43-.71h.01s1.16-2.32,1.16-2.32l-.09-.02Zm-1.07-.26l1.07.26.93-1.9c-.75.5-1.42,1.05-2,1.64Zm2.4-2.45c-.01.18-.11.41-.25.52l-.15.29c.06-.05.13-.09.2-.14l.35-.66h-.15Zm-.2.67c.11-.07.19-.19.25-.3.06-.11.1-.24.1-.36l-.35.66Zm.06,1.91c-.12.11-.23.21-.34.33h-.01c-.05.04-.09.09-.14.13-.32.3-.63.58-.91.89m1.4-1.35c-.12.11-.23.21-.34.33h-.01c-.05.04-.09.09-.14.13l-.91.89m-15.43,17.5c1.04.28,2.8.62,4.96.31,1.71-.24,3.04-.8,3.91-1.25.77-.53,3.45-2.52,4.08-6,.2-1.11.14-2.1.01-2.87l-1.66-.1c-.17,1.04-.48,2.6-1.11,4.49-.13.4-.2.61-.29.8-.32.7-1.46,2.42-6.52,2.92-1.68-.13-5.53-.66-9.11-3.5-1.33-1.06-3.91-4.24-5.29-7.43-.72-1.67-1.12-3.42-1.37-5.21-.06-.44-.4-.72-.8-.72-.03,0-.07,0-.1,0-.45.06-.76.46-.71.96l.07.62c.26,1.88,1.16,6.4,4.77,10.68,3.38,4,7.36,5.66,9.16,6.29Zm20.24-2.23c.08.3.19.6.29.88.05.13.09.26.13.38l.09.25.17-.2c.22-.25.34-.49.4-.76l-1.08-.55Zm-2.62-26.74c-.14,1.42-.23,2.86-.31,4.29l.83-7.84c-.21,1.18-.41,2.37-.52,3.55Zm.53-4.44c-.27,1.47-.54,2.95-.68,4.43-.16,1.62-.25,3.25-.34,4.88-.05.89-.1,1.78-.16,2.67l.34-3.25.83-7.84.23-2.14c-.07.42-.15.84-.22,1.25ZM2.52,23.26c.02-.06.03-.11.04-.17.02-.05.03-.11.05-.16m27.32,6.94l-1.51,3.05c.13-.24.27-.48.43-.71h.01s1.16-2.32,1.16-2.32l-.09-.02Zm2.73-15.94l-.23,2.14c.05-.29.11-.57.16-.86.07-.41.15-.83.22-1.25l-.15-.03Zm-1.25,13.24c.06-.89.11-1.79.16-2.67.01-.2.02-.39.03-.59l-.34,3.25h.15Zm-2.99,5.75c.13-.24.27-.48.43-.71h.01s1.16-2.32,1.16-2.32l-.09-.02-1.51,3.05Zm2.84-5.76h.15c.06-.88.11-1.78.16-2.66.01-.2.02-.39.03-.59l-.34,3.25Zm1.4-13.23l-.23,2.14c.05-.29.11-.57.16-.86.07-.41.15-.83.22-1.25l-.15-.03Zm9.74,2.79c-.96-1.33-2.1-2.49-3.37-3.53-.09-.07-.18-.15-.27-.23-.05-.04-.09-.07-.13-.11l-.1-.09.07-.11c.09-.14.18-.27.27-.4.19-.27.37-.53.52-.82.64-1.23.66-2.5.18-3.8-.92-2.52-2.28-4.82-3.7-7.09-.04-.07-.11-.13-.21-.2-.03-.03-.06-.05-.1-.07-.05-.04-.11-.08-.16-.12h-.48s-.09.08-.14.11c-.03.03-.06.05-.09.07-.08.07-.15.13-.19.2-1.44,2.31-2.82,4.63-3.73,7.19l-.2.58-.05.15-.15-.06s-.1-.04-.15-.05c-.13-.05-.24-.09-.35-.13-3.74-1.44-7.6-2.05-11.56-1.38-7.7,1.3-13.15,5.6-16.41,12.68-.37.82-.64,1.7-.9,2.58-.07.24-.15.48-.22.72-.16.52.11.96.56,1.07.08.02.16.03.23.03.15,0,.29-.04.41-.11.17-.11.31-.31.4-.58l.14.04c.02-.06.03-.11.04-.17.02-.05.03-.11.05-.16,1.86-6.38,5.84-10.89,12.05-13.29,5.23-2.03,10.43-1.53,15.52.66.16.06.29.29.35.47.35,1.05.97,1.91,1.89,2.53.26.17.3.33.24.63-.07.42-.15.84-.22,1.25-.27,1.47-.54,2.95-.68,4.43-.16,1.62-.25,3.25-.34,4.88-.05.89-.1,1.78-.16,2.67l-.25.52s-.02.01-.03.02c-.87.57-1.63,1.19-2.29,1.87l.17.04,1.07.26.93-1.9c.06-.05.13-.09.2-.14l-1.04,2.06.75.18h.01l.62.15c.06,1.09.11,2.19.16,3.28.13,2.61.26,5.22.45,7.82.15,2.2.53,4.37,1.24,6.46.3.89.7,1.66,1.55,2.08h.71c.87-.43,1.26-1.22,1.57-2.12.7-2.1,1.01-4.27,1.25-6.47.47-4.32.61-8.65.58-13v-.2c.01-.06.01-.11.01-.18v-.14h.61c.3.01.59.02.89-.01,1.09-.13,1.99-.56,2.66-1.25.67-.68,1.12-1.63,1.31-2.8.41-2.62-.5-4.87-1.99-6.97Zm-10.99,10.45c.06-.89.11-1.79.16-2.67.01-.2.02-.39.03-.59l.83-7.84c.05-.29.11-.57.16-.86.07-.41.15-.83.22-1.25l-1.4,13.21Zm.71-17.77c-.02-.42.08-.88.26-1.25.64-1.35,1.31-2.68,1.98-4.01.2-.4.4-.79.59-1.18.03-.06.08-.09.1-.11.01,0,.02,0,.03-.02.02-.01.03-.02.05-.03l.13-.11.09.15s.06.1.09.15c1,1.75,2,3.5,2.65,5.43.2.6.23,1.18.08,1.72-.15.54-.48,1.02-.95,1.44-.95.85-2.07,1.03-3.24.53-1.17-.5-1.81-1.45-1.86-2.71Zm4.87,12.64h-3.66v-.16c.23-2.63.49-5.2,1.13-7.75l.03-.11h1.32l.03.11c.65,2.52.9,5.09,1.14,7.75v.16Zm-.44,20.09c-.14,1.15-.4,2.29-.65,3.42-.1.46-.2.91-.29,1.36l-2.39-23.03v-.14h3.84l.02.13c0,.06.01.12.02.19.01.16.03.34.04.51.26,5.87.12,11.72-.59,17.56Zm6.02-17.98c-.2.62-.52,1.11-.97,1.45-.45.33-1.01.51-1.67.52h-1.07v-.14c-.17-3.8-.42-7.55-1.11-11.26h-.01v-.08h.16s.08-.11.08-.11c1.08.89,2.08,1.83,2.89,2.9.82,1.08,1.45,2.29,1.8,3.7.11.45.16.89.16,1.33,0,.57-.09,1.13-.26,1.69Z"/>
  <path class="cls-3" d="m22.48,11.33c2.15,0,3.9,1.78,3.89,3.94-.01,2.15-1.79,3.89-3.95,3.87-2.13-.02-3.86-1.78-3.86-3.91,0-2.15,1.77-3.91,3.92-3.9h0Zm-.02,5.86c1.07,0,1.95-.88,1.95-1.96,0-1.07-.88-1.95-1.96-1.95-1.07,0-1.95.88-1.95,1.96,0,1.07.88,1.95,1.96,1.95Z"/>
  <path class="cls-3" d="m11.69,24.02c-2.15-.01-3.89-1.79-3.88-3.94.02-2.15,1.8-3.89,3.96-3.87,2.13.02,3.86,1.78,3.85,3.92,0,2.15-1.78,3.9-3.93,3.89Zm1.98-3.89c0-1.07-.86-1.96-1.93-1.97-1.08,0-1.96.86-1.97,1.93,0,1.07.86,1.96,1.93,1.97,1.07,0,1.96-.86,1.97-1.93Z"/>
  <path class="cls-3" d="m12.69,31.86c0,2.15-1.78,3.9-3.94,3.89-2.15-.01-3.89-1.79-3.87-3.95.02-2.13,1.78-3.86,3.91-3.86,2.15,0,3.91,1.77,3.9,3.92h0Zm-1.95-.03c0-1.07-.89-1.95-1.96-1.94-1.07,0-1.95.89-1.94,1.96,0,1.07.89,1.95,1.96,1.94,1.07,0,1.95-.89,1.94-1.96Z"/>
  <path class="cls-3" d="m17.59,43.56c-2.15,0-3.92-1.75-3.92-3.9,0-2.15,1.76-3.91,3.91-3.91,2.13,0,3.89,1.74,3.9,3.88.01,2.16-1.74,3.93-3.89,3.93h0Zm1.94-3.92c0-1.07-.89-1.94-1.97-1.94-1.07,0-1.94.89-1.94,1.97,0,1.07.89,1.94,1.97,1.94,1.07,0,1.94-.89,1.94-1.97h0Z"/>
  <path class="cls-3" d="m.95,25.98c.54-.01,1,.44,1,.97,0,.52-.43.96-.95.97-.54.01-1-.43-1-.97s.43-.96.95-.97Z"/>
  <circle class="cls-1" cx="36" cy="36" r="14.25"/>
  <path class="cls-3" d="m40.92,32.45c0,.41-.07.76-.22,1.06-.15.29-.33.52-.55.68-.27.23-.64.4-1.09.52-.46.12-1,.18-1.62.18h-2.37v-1.53h2.75c.35,0,.62-.02.8-.05.18-.05.32-.12.43-.22.09-.07.15-.16.19-.27.03-.11.05-.23.05-.36,0-.14-.02-.27-.07-.38-.03-.12-.1-.22-.19-.31-.1-.1-.24-.16-.41-.2-.17-.05-.45-.07-.84-.07h-6.3v-1.55h6.16c.67,0,1.2.05,1.59.16.39.1.72.27,1.01.52.2.19.37.43.49.72.13.29.19.65.19,1.08Zm-5.34,10.14c-1.43,0-2.62-.19-3.55-.58-.92-.4-1.61-.94-2.07-1.62-.44-.68-.67-1.46-.67-2.32,0-.68.14-1.29.41-1.8.28-.52.67-.91,1.16-1.19.49-.29,1.05-.43,1.67-.43.52,0,.97.1,1.33.31.36.19.64.47.84.83.19.35.29.75.29,1.21,0,.77-.24,1.37-.73,1.8-.48.43-1.15.65-2.01.65-.3,0-.58-.04-.85-.11-.26-.08-.51-.19-.73-.31-.22-.12-.41-.25-.58-.38l.26-1.33c.22.2.46.38.73.54.27.14.58.22.92.22.49,0,.85-.1,1.08-.29.24-.2.36-.47.36-.79,0-.29-.09-.51-.26-.67-.17-.17-.41-.25-.72-.25s-.6.08-.85.23c-.25.16-.46.38-.61.67-.15.29-.22.62-.22,1.01v.09c0,.47.11.88.32,1.24.22.36.53.67.94.92.41.24.9.42,1.49.54.59.12,1.26.18,2.01.18.92,0,1.7-.08,2.32-.25.64-.17,1.14-.39,1.5-.67.38-.29.64-.61.8-.96.17-.36.26-.73.26-1.12v-.58c-.07-.37-.24-.68-.51-.94-.27-.25-.63-.38-1.06-.38-.27,0-.52.08-.75.25-.23.16-.34.41-.34.77,0,.28.09.5.27.68.19.18.47.27.82.27.3,0,.55-.05.75-.16.22-.12.39-.29.51-.5.14-.22.23-.46.29-.74l.48,1.53c-.19.25-.4.48-.61.68-.2.19-.44.34-.72.43-.27.1-.6.14-.99.14-.43,0-.83-.08-1.19-.25-.35-.17-.64-.42-.85-.76-.2-.34-.31-.75-.31-1.24,0-.67.22-1.2.65-1.59.43-.4,1.01-.59,1.74-.59.11,0,.22,0,.32.02.11.01.23.03.34.05.13.02.24.05.34.09l-.73.02c-.22-.11-.47-.2-.75-.27-.28-.07-.57-.13-.85-.16-.28-.05-.54-.07-.77-.07l.39-1.19c.82.07,1.54.23,2.17.49.64.24,1.17.56,1.59.96.43.38.76.83.97,1.35.22.52.32,1.08.32,1.69,0,.7-.13,1.33-.38,1.89-.24.56-.62,1.05-1.14,1.46-.51.4-1.17.71-1.96.94-.8.22-1.75.32-2.87.32Z"/>
</svg>