<svg width="45" height="50" viewBox="0 0 45 50" fill="none" xmlns="http://www.w3.org/2000/svg">
<circle cx="22.5081" cy="15.502" r="2.50032" fill="#FFC907"/>
<circle cx="11.5003" cy="20.503" r="2.50032" fill="#FFC907"/>
<circle cx="8.50032" cy="31.5047" r="2.50032" fill="#FFC907"/>
<circle cx="17.5081" cy="39.5045" r="2.50032" fill="#FFC907"/>
<path d="M31.3472 29.5257L31.3713 29.8414C31.3777 29.9251 31.3828 29.9888 31.387 30.04C31.3934 30.1194 31.3974 30.169 31.3999 30.2174M31.3472 29.5257L0.287631 31.0009C0.287626 31.0009 0.287621 31.0008 0.287617 31.0008C0.239879 30.4963 0.550018 30.1008 1.00195 30.0436L1.00213 30.0436C1.44069 29.9876 1.83631 30.267 1.90401 30.7525C2.15223 32.5401 2.55136 34.2937 3.26941 35.9635C5.61459 41.4169 9.55248 45.2232 15.1861 47.149L15.2347 47.007L15.1861 47.149C19.1947 48.519 23.3681 46.7129 25.0056 43.0324L24.8685 42.9714L25.0056 43.0324C25.5894 41.7197 25.6979 40.3391 25.6032 38.9462L25.4535 38.9563M31.3472 29.5257L31.1182 29.7443M31.3472 29.5257L31.1182 29.7443M31.3999 30.2174L31.2501 30.2249L31.3998 30.217C31.3999 30.2171 31.3999 30.2172 31.3999 30.2174ZM31.3999 30.2174C31.4576 31.3129 31.511 32.4083 31.5643 33.5033C31.6913 36.1126 31.8182 38.7199 32.0052 41.3238C32.1627 43.5183 32.5397 45.6901 33.2488 47.7842C33.5495 48.672 33.946 49.4421 34.797 49.8554H35.5133C36.3812 49.433 36.7738 48.6442 37.0772 47.7369L37.2194 47.7844L37.0772 47.7369C37.7779 45.6424 38.0853 43.4671 38.3253 41.2694C38.7963 36.952 38.9446 32.6178 38.9056 28.2739L38.9056 28.2726C38.9056 28.212 38.9095 28.1476 38.9144 28.0662C38.9176 28.0148 38.9211 27.9567 38.9243 27.8885L38.931 27.7456H39.0741C39.2308 27.7456 39.3816 27.7502 39.5287 27.7547C39.8345 27.764 40.1239 27.7729 40.4153 27.7388L40.4153 27.7388C41.5083 27.6115 42.4055 27.18 43.0759 26.4949C43.747 25.8091 44.1991 24.8606 44.3856 23.687C44.802 21.0671 43.8929 18.8223 42.3957 16.7227L42.5179 16.6356L42.3957 16.7227C41.445 15.389 40.2986 14.2342 39.0297 13.1925L39.0297 13.1925C38.9385 13.1176 38.848 13.0393 38.7598 12.963C38.7146 12.9239 38.67 12.8853 38.6262 12.8479L38.5253 12.7619L38.5983 12.6512C38.6901 12.5121 38.782 12.3801 38.8717 12.2513C39.0633 11.9763 39.2448 11.7157 39.3933 11.4309C40.0343 10.2019 40.047 8.93472 39.571 7.63239C38.6489 5.11175 37.2948 2.81419 35.8724 0.53954C35.8277 0.468659 35.7561 0.405335 35.6606 0.336024C35.6311 0.314575 35.5969 0.291091 35.5609 0.266339C35.5073 0.229527 35.4497 0.189909 35.3971 0.15H35.3961H35.395H35.3938H35.3927H35.3915H35.3904H35.3892H35.3881H35.3869H35.3858H35.3847H35.3835H35.3824H35.3812H35.3801H35.3789H35.3778H35.3766H35.3755H35.3744H35.3732H35.3721H35.3709H35.3698H35.3686H35.3675H35.3663H35.3652H35.3641H35.3629H35.3618H35.3606H35.3595H35.3583H35.3572H35.356H35.3549H35.3537H35.3526H35.3515H35.3503H35.3492H35.348H35.3469H35.3457H35.3446H35.3434H35.3423H35.3412H35.34H35.3389H35.3377H35.3366H35.3354H35.3343H35.3331H35.332H35.3309H35.3297H35.3286H35.3274H35.3263H35.3251H35.324H35.3228H35.3217H35.3206H35.3194H35.3183H35.3171H35.316H35.3148H35.3137H35.3125H35.3114H35.3103H35.3091H35.308H35.3068H35.3057H35.3045H35.3034H35.3022H35.3011H35.3H35.2988H35.2977H35.2965H35.2954H35.2942H35.2931H35.2919H35.2908H35.2897H35.2885H35.2874H35.2862H35.2851H35.2839H35.2828H35.2816H35.2805H35.2794H35.2782H35.2771H35.2759H35.2748H35.2736H35.2725H35.2713H35.2702H35.2691H35.2679H35.2668H35.2656H35.2645H35.2633H35.2622H35.261H35.2599H35.2588H35.2576H35.2565H35.2553H35.2542H35.253H35.2519H35.2507H35.2496H35.2485H35.2473H35.2462H35.245H35.2439H35.2427H35.2416H35.2404H35.2393H35.2382H35.237H35.2359H35.2347H35.2336H35.2324H35.2313H35.2301H35.229H35.2279H35.2267H35.2256H35.2244H35.2233H35.2221H35.221H35.2198H35.2187H35.2176H35.2164H35.2153H35.2141H35.213H35.2118H35.2107H35.2095H35.2084H35.2072H35.2061H35.205H35.2038H35.2027H35.2015H35.2004H35.1992H35.1981H35.1969H35.1958H35.1947H35.1935H35.1924H35.1912H35.1901H35.1889H35.1878H35.1866H35.1855H35.1844H35.1832H35.1821H35.1809H35.1798H35.1786H35.1775H35.1763H35.1752H35.1741H35.1729H35.1718H35.1706H35.1695H35.1683H35.1672H35.166H35.1649H35.1638H35.1626H35.1615H35.1603H35.1592H35.158H35.1569H35.1557H35.1546H35.1535H35.1523H35.1512H35.15H35.1489H35.1477H35.1466H35.1454H35.1443H35.1432H35.142H35.1409H35.1397H35.1386H35.1374H35.1363H35.1351H35.134H35.1329H35.1317H35.1306H35.1294H35.1283H35.1271H35.126H35.1248H35.1237H35.1226H35.1214H35.1203H35.1191H35.118H35.1168H35.1157H35.1145H35.1134H35.1123H35.1111H35.11H35.1088H35.1077H35.1065H35.1054H35.1042H35.1031H35.102H35.1008H35.0997H35.0985H35.0974H35.0962H35.0951H35.0939H35.0928H35.0917H35.0905H35.0894H35.0882H35.0871H35.0859H35.0848H35.0836H35.0825H35.0814H35.0802H35.0791H35.0779H35.0768H35.0756H35.0745H35.0733H35.0722H35.0711H35.0699H35.0688H35.0676H35.0665H35.0653H35.0642H35.063H35.0619H35.0607H35.0596H35.0585H35.0573H35.0562H35.055H35.0539H35.0527H35.0516H35.0504H35.0493H35.0482H35.047H35.0459H35.0447H35.0436H35.0424H35.0413H35.0401H35.039H35.0379H35.0367H35.0356H35.0344H35.0333H35.0321H35.031H35.0298H35.0287H35.0276H35.0264H35.0253H35.0241H35.023H35.0218H35.0207H35.0195H35.0184H35.0173H35.0161H35.015H35.0138H35.0127H35.0115H35.0104H35.0092H35.0081H35.007H35.0058H35.0047H35.0035H35.0024H35.0012H35.0001H34.9989H34.9978H34.9967H34.9955H34.9944H34.9932H34.9921H34.9909H34.9898H34.9886H34.9875H34.9864H34.9852H34.9841H34.9829H34.9818H34.9806H34.9795H34.9783H34.9772H34.9761H34.9749H34.9738H34.9726H34.9715H34.9703H34.9692H34.968H34.9669H34.9658H34.9646H34.9635H34.9623H34.9612H34.96H34.9589H34.9577H34.9566H34.9555H34.9543H34.9532H34.952H34.9509H34.9497H34.9486H34.9474H34.9463H34.9452H34.944H34.9429H34.9417H34.9406H34.9394H34.9383H34.9371H34.936H34.9349H34.9337H34.9326H34.9314H34.9303H34.9291H34.928H34.9268H34.9257H34.9246H34.9234H34.9223H34.9211H34.92H34.919C34.8744 0.187745 34.8265 0.225371 34.7816 0.260577C34.7501 0.285314 34.7201 0.308857 34.6939 0.330407C34.6096 0.399651 34.5441 0.463043 34.5007 0.532552C33.064 2.83857 31.6775 5.15548 30.7743 7.71769L30.7742 7.71785L30.5671 8.30291L30.5163 8.4464L30.3736 8.39349C30.3179 8.37283 30.2657 8.35359 30.2161 8.3353C30.0889 8.28844 29.9787 8.24781 29.8689 8.20532C26.1262 6.76536 22.2656 6.15884 18.3108 6.82733C10.6094 8.12949 5.16227 12.4308 1.90462 19.5091C1.52604 20.3334 1.2629 21.2098 0.997124 22.095C0.925911 22.3322 0.85451 22.57 0.780648 22.8076C0.618137 23.3317 0.888924 23.7737 1.33743 23.8811L1.33757 23.8812C1.58729 23.9412 1.80427 23.9048 1.97689 23.7961C2.15082 23.6865 2.29434 23.4941 2.37658 23.2167L2.52039 23.2593M2.52039 23.2593L2.37651 23.2169C2.39154 23.1659 2.40445 23.1139 2.41826 23.0582L2.41861 23.0568C2.43203 23.0026 2.44634 22.9449 2.46334 22.8871C2.46337 22.887 2.4634 22.8869 2.46343 22.8868L2.60732 22.9292M2.52039 23.2593C2.53651 23.2046 2.55018 23.1495 2.56385 23.0943C2.57753 23.0391 2.5912 22.9839 2.60732 22.9292M2.52039 23.2593C2.33971 23.8688 1.87091 24.1637 1.30249 24.027C0.764344 23.8981 0.450833 23.3648 0.637377 22.7632C0.710238 22.5288 0.780987 22.2931 0.851797 22.0572C1.11794 21.1706 1.38496 20.2811 1.76836 19.4464L2.60732 22.9292M2.60732 22.9292C4.47275 16.5496 8.45267 12.0365 14.6555 9.6358C19.8875 7.61117 25.0912 8.10732 30.1796 10.297C30.3369 10.3644 30.4687 10.5871 30.5283 10.7658C30.8818 11.8206 31.4991 12.6771 32.4201 13.2973C32.6809 13.4722 32.717 13.6255 32.6633 13.9322M32.6633 13.9322C32.5904 14.349 32.5148 14.7656 32.4391 15.1824C32.1721 16.6533 31.9048 18.1255 31.7579 19.6095C31.5974 21.2326 31.5088 22.8623 31.4203 24.4921C31.372 25.3808 31.3237 26.2695 31.2637 27.1572M32.6633 13.9322L32.811 13.958C32.811 13.958 32.8111 13.958 32.8111 13.958M32.6633 13.9322L32.8111 13.958M31.2637 27.1572C31.251 27.3486 31.1329 27.6036 30.9805 27.7032C26.9176 30.3675 25.1254 34.1384 25.4535 38.9563M31.2637 27.1572L31.4134 27.1673C31.4134 27.1673 31.4134 27.1672 31.4134 27.1672M31.2637 27.1572L31.4134 27.1672M25.4535 38.9563L25.6032 38.9462C25.4406 36.5587 25.8037 34.4385 26.7052 32.5879C27.6066 30.7375 29.0505 29.1483 31.0626 27.8287M25.4535 38.9563L31.0626 27.8287M31.0626 27.8287C31.1693 27.7589 31.252 27.6447 31.3086 27.5318C31.366 27.4173 31.4055 27.2863 31.4134 27.1672M31.0626 27.8287L30.2389 10.1592C30.3548 10.2089 30.4468 10.3076 30.5138 10.4041C30.5827 10.5033 30.6367 10.6167 30.6706 10.7184C31.0146 11.7445 31.6126 12.5728 32.5039 13.1729C32.6473 13.2691 32.7509 13.3739 32.801 13.5152C32.8495 13.6519 32.8388 13.7993 32.8111 13.958M31.4134 27.1672C31.4736 26.2752 31.522 25.3846 31.5703 24.4952C31.6588 22.8678 31.7469 21.2445 31.9072 19.6243C32.0534 18.1469 32.3192 16.6827 32.5861 15.2128C32.6619 14.7951 32.7378 14.377 32.8111 13.958M31.1182 29.7443C30.9535 29.9015 30.7908 30.0504 30.6321 30.1956C30.3051 30.495 29.9953 30.7785 29.721 31.0861L29.7208 31.0863M31.1182 29.7443L29.7208 31.0863M29.7208 31.0863C27.7668 33.2833 27.0171 35.8779 27.2456 38.7757M29.7208 31.0863L27.2456 38.7757M27.2456 38.7757C27.5397 42.5058 26.276 45.5363 23.1554 47.6475M27.2456 38.7757L23.1554 47.6475M23.1554 47.6475C20.3976 49.513 17.3554 49.764 14.2893 48.5869M23.1554 47.6475L14.2893 48.5869M14.2893 48.5869C6.45669 45.5785 1.83958 39.8775 0.362135 31.6186L14.2893 48.5869ZM18.2858 6.67943C22.2725 6.00553 26.1606 6.6179 29.9228 8.06532C30.0314 8.10738 30.1401 8.14743 30.2668 8.19414C30.2728 8.19636 30.2789 8.1986 30.285 8.20086L18.2858 6.67943ZM34.5293 46.3581C34.6093 46.6582 34.7165 46.9551 34.8211 47.2449C34.8668 47.3714 34.912 47.4966 34.9542 47.6201L35.0397 47.8699L35.2105 47.6686C35.4252 47.4157 35.5532 47.1766 35.6064 46.9141L34.5293 46.3581ZM33.2165 23.7364V23.8833L35.6065 46.9137C35.6996 46.4601 35.8007 46.0051 35.902 45.5487C36.1531 44.4175 36.4061 43.2777 36.546 42.1281C37.2562 36.2937 37.3999 30.4351 37.1398 24.5683L37.1398 24.5681C37.1319 24.395 37.1132 24.2196 37.0959 24.0579C37.089 23.9935 37.0824 23.9312 37.0767 23.8721L37.0638 23.7364H36.9274H33.3665H33.2165ZM35.3513 2.83983L35.2644 2.6881L35.1277 2.79707C35.1102 2.81099 35.0972 2.81983 35.0817 2.83036C35.0727 2.83653 35.0627 2.84328 35.0506 2.85197C35.0261 2.86939 34.98 2.90305 34.9522 2.95863L34.9522 2.95867C34.7559 3.35157 34.5588 3.7444 34.3616 4.13738C33.6934 5.46919 33.0244 6.8027 32.3805 8.14699C32.2006 8.52233 32.1002 8.98032 32.1179 9.39703C32.172 10.6611 32.8065 11.6118 33.9765 12.1128C35.1455 12.6134 36.274 12.4273 37.2227 11.5799L37.1228 11.468L37.2227 11.5799C37.6933 11.1595 38.0151 10.6766 38.1656 10.1404C38.3162 9.60365 38.2924 9.02385 38.0883 8.41514L37.9461 8.46283L38.0883 8.41512C37.442 6.48873 36.438 4.73635 35.4374 2.99011C35.4087 2.94001 35.38 2.88992 35.3513 2.83983ZM37.9 14.6269L37.7365 14.6422V14.6432V14.7138L37.7493 14.7244C38.4446 18.4333 38.6927 22.1792 38.854 25.975L38.8601 26.1186H39.0038C39.1204 26.1186 39.2316 26.1192 39.3394 26.1198C39.5453 26.1208 39.7382 26.1218 39.9303 26.1186L39.9307 26.1186C40.586 26.1059 41.1478 25.9316 41.597 25.5959C42.0463 25.2602 42.3719 24.7714 42.5691 24.1484L42.5691 24.1484C42.8842 23.1518 42.9111 22.1405 42.6676 21.1302L42.6676 21.1302C41.9841 18.2989 40.128 16.302 37.9821 14.5276L37.9 14.6269ZM34.6078 14.0205H34.4908L34.4623 14.134C33.8233 16.6812 33.5589 19.2496 33.342 21.8787L33.3286 22.041H33.4915H36.8258H36.99L36.9752 21.8776C36.7361 19.2236 36.4941 16.6488 35.843 14.1329L35.8139 14.0205H35.6978H34.6088H34.6078Z" fill="#1A325D" stroke="white" stroke-width="0.3"/>
<path d="M22.4799 11.3321C24.6315 11.3399 26.3788 13.1096 26.3661 15.268C26.3534 17.4167 24.5739 19.161 22.4164 19.1425C20.2893 19.1229 18.5518 17.363 18.5547 15.2299C18.5576 13.0774 20.3234 11.3242 22.4789 11.3321H22.4799ZM22.4643 17.1891C23.5357 17.1872 24.4147 16.3053 24.4127 15.2329C24.4108 14.1595 23.5298 13.2834 22.4565 13.2854C21.3831 13.2873 20.5071 14.1673 20.509 15.2407C20.511 16.3131 21.3919 17.1911 22.4643 17.1891Z" fill="#1A325D"/>
<path d="M11.691 24.025C9.5423 24.0132 7.79601 22.2377 7.81262 20.0802C7.82922 17.9325 9.60969 16.1931 11.7691 16.2146C13.8973 16.236 15.6289 17.997 15.623 20.1339C15.6172 22.2845 13.8465 24.0367 11.691 24.025ZM13.6697 20.1388C13.6795 19.0645 12.8093 18.1767 11.7369 18.1679C10.6616 18.1581 9.77474 19.0274 9.76595 20.0997C9.75619 21.1731 10.6264 22.0619 11.6978 22.0716C12.7712 22.0814 13.6599 21.2102 13.6697 20.1388Z" fill="#1A325D"/>
<path d="M12.6943 31.8583C12.6865 34.009 10.9139 35.7591 8.75739 35.7455C6.60872 35.7318 4.86536 33.9543 4.88294 31.7968C4.90052 29.6696 6.66048 27.9331 8.7945 27.9351C10.9481 27.938 12.7012 29.7019 12.6934 31.8583H12.6943ZM10.741 31.829C10.7361 30.7567 9.85223 29.8825 8.7779 29.8884C7.70454 29.8933 6.8314 30.7762 6.83726 31.8505C6.84214 32.9219 7.727 33.797 8.79938 33.7921C9.87079 33.7873 10.7459 32.9024 10.741 31.829Z" fill="#1A325D"/>
<path d="M17.5932 43.5594C15.4387 43.5663 13.6729 41.8102 13.6719 39.6577C13.6699 37.5041 15.4309 35.7451 17.5854 35.749C19.7194 35.752 21.4706 37.4934 21.4833 39.6254C21.495 41.7829 19.7458 43.5526 17.5942 43.5594H17.5932ZM19.529 39.6391C19.5221 38.5667 18.6363 37.6946 17.5629 37.7024C16.4905 37.7092 15.6184 38.5941 15.6262 39.6684C15.633 40.7408 16.5189 41.6129 17.5922 41.6061C18.6636 41.5993 19.5368 40.7125 19.5299 39.6391H19.529Z" fill="#1A325D"/>
<path d="M0.949321 25.9839C1.48747 25.9703 1.9465 26.4195 1.94552 26.9577C1.94552 27.4773 1.51579 27.9168 0.995224 27.9295C0.45708 27.9431 0 27.4958 0 26.9557C0 26.4352 0.428757 25.9966 0.949321 25.9839Z" fill="#1A325D"/>
</svg>
