<svg width="45" height="45" viewBox="0 0 45 45" fill="none" xmlns="http://www.w3.org/2000/svg">
<rect x="11.8516" y="17.0125" width="13.1484" height="10.0961" rx="4.00169" fill="#FFC907"/>
<rect x="15.959" y="10.4436" width="4.92859" height="10.0919" rx="2.46429" fill="#FFC907"/>
<path d="M5.19378 45C4.30546 44.7008 3.60138 44.1985 3.33969 43.2468C3.2599 42.9558 3.23056 42.6413 3.22939 42.3374C3.22235 39 3.23174 35.6615 3.22 32.3241C3.21648 31.3818 3.51924 30.6073 4.20689 30.1063C3.41832 28.8178 2.55229 27.5974 1.88694 26.2761C0.231165 22.9903 -0.323888 19.4899 0.178358 15.8392C1.23918 8.13769 6.93522 1.95114 14.4889 0.406846C19.6392 -0.64576 24.4141 0.348172 28.7606 3.3417C28.993 3.50129 29.3157 3.59987 29.5985 3.60456C30.9597 3.63155 32.321 3.61512 33.6822 3.61747C34.195 3.61747 34.4978 3.86507 34.5001 4.26875C34.5024 4.67007 34.1903 4.93293 33.6892 4.93293C32.1379 4.93528 30.5866 4.93293 29.0352 4.93528C28.1704 4.93645 27.7409 5.35538 27.7397 6.22727C27.735 9.60922 27.735 12.99 27.7397 16.3719C27.7409 17.2368 28.1727 17.6686 29.0364 17.6698C32.4031 17.6745 35.7686 17.6745 39.1353 17.6698C40.0049 17.6686 40.4367 17.2368 40.4367 16.379C40.4402 12.997 40.4402 9.61626 40.4367 6.23431C40.4367 5.34599 40.0107 4.93645 39.106 4.9341C38.4477 4.93293 37.7882 4.93763 37.1299 4.93176C36.6487 4.92706 36.373 4.68063 36.3718 4.27227C36.3718 3.8592 36.6382 3.62099 37.1263 3.61629C37.7999 3.61043 38.4723 3.61277 39.1459 3.61512C40.7629 3.61982 41.7815 4.61727 41.7885 6.23666C41.7991 9.04713 41.7944 11.8576 41.7897 14.6681C41.7885 15.3991 41.8132 16.1349 41.7381 16.8601C41.6102 18.0899 40.5857 18.9724 39.3442 18.9864C38.4218 18.997 37.5007 18.9935 36.5783 18.9982C36.5525 18.9982 36.5267 19.0193 36.4657 19.0463C36.258 22.9798 34.9402 26.5237 32.5111 29.6052C33.0591 30.1473 33.586 30.6695 34.1246 31.2046C34.3851 31.1061 34.6984 30.9347 35.0329 30.8726C35.717 30.747 36.3389 30.9242 36.8553 31.41C37.0477 31.5907 37.2378 31.7738 37.415 31.9674C37.5992 32.1681 37.794 32.2643 38.0862 32.296C38.3667 32.3253 38.6824 32.4837 38.8865 32.6832C40.3006 34.0632 41.7017 35.4573 43.0747 36.8784C43.2953 37.106 43.3504 37.4933 43.4889 37.8031C43.5617 37.9662 43.6192 38.1528 43.7389 38.276C44.2388 38.7888 44.7797 39.2664 44.9863 39.9916V40.8705C44.7832 41.4831 44.369 41.9419 43.9125 42.3785C43.3856 42.8831 42.8693 43.3994 42.3647 43.9251C41.9282 44.3804 41.4705 44.797 40.8568 44.9988H39.9779C39.2538 44.7923 38.7786 44.2478 38.2658 43.7502C38.1426 43.6306 37.9548 43.5754 37.7929 43.5003C37.4725 43.3524 37.0759 43.2856 36.8377 43.0544C35.4365 41.7025 34.0683 40.3167 32.7012 38.9308C32.5334 38.7606 32.3257 38.5189 32.328 38.3124C32.335 37.6775 31.8997 37.3607 31.5207 36.9934C30.9773 36.4665 30.7321 35.8281 30.8588 35.0853C30.9187 34.7356 31.0912 34.4059 31.1874 34.1372C30.6546 33.5997 30.1336 33.0728 29.602 32.5365C29.1678 32.8428 28.7137 33.1866 28.2349 33.4941C27.7444 33.8098 27.2433 34.1184 26.7235 34.3812C26.0593 34.7169 25.3775 35.0184 24.691 35.3036C24.2862 35.4726 23.9142 35.3095 23.7722 34.9598C23.6279 34.6065 23.7922 34.2604 24.1911 34.075C24.2709 34.0386 24.3531 34.0093 24.4341 33.9764C29.4342 31.8888 32.7458 28.2463 34.4097 23.103C34.8369 21.7828 35.0692 20.4216 35.1033 18.99C34.7806 18.99 34.4895 18.9876 34.1997 18.99C34.0859 18.99 33.9709 19.0017 33.8289 19.0099C33.5613 23.0725 32.0299 26.56 29.1232 29.3987C26.2189 32.235 22.6985 33.6842 18.6559 33.8532V35.1862C19.5817 35.0806 20.4654 34.9692 21.3513 34.8823C21.7644 34.8412 22.0519 35.083 22.0941 35.4573C22.1329 35.7976 21.9076 36.1051 21.5356 36.1872C21.2938 36.24 21.0462 36.2717 20.7998 36.2975C20.0793 36.375 19.3576 36.4466 18.6195 36.5217C18.6195 36.7035 18.6195 36.8643 18.6195 37.0239C18.6195 38.8393 18.6254 40.6546 18.6171 42.47C18.6124 43.6153 17.9835 44.4931 16.9191 44.8862C16.8429 44.9143 16.7724 44.9601 16.6997 44.9977H5.19378V45ZM32.4477 18.9923C32.3045 18.9923 32.1614 18.9923 32.0194 18.9923C31.0536 18.9923 30.0878 18.9923 29.1221 18.9923C27.3759 18.9923 26.382 17.9937 26.382 16.2393C26.3808 13.166 26.3738 10.0927 26.3914 7.01937C26.3937 6.64738 26.2694 6.43967 25.9654 6.25074C22.2267 3.92492 18.2322 3.34874 14.0253 4.62313C7.34006 6.64855 3.14255 13.3104 4.1224 20.2327C4.64812 23.9502 6.40129 26.9766 9.30094 29.34C9.50395 29.5055 9.81727 29.6111 10.0801 29.6146C12.1138 29.6369 14.1486 29.6228 16.1822 29.6287C17.351 29.6322 18.3203 30.4348 18.5503 31.5837C18.6089 31.8794 18.6254 32.1845 18.6606 32.4826C25.9408 32.3875 32.1884 26.2467 32.4477 18.9923ZM10.945 30.9418C9.27747 30.9418 7.60996 30.9406 5.94129 30.9418C4.9849 30.9418 4.56715 31.3525 4.56597 32.2901C4.5648 35.6404 4.5648 38.9918 4.56597 42.3421C4.56597 43.2586 4.98842 43.681 5.90725 43.681C9.24227 43.6834 12.5785 43.6834 15.9135 43.681C16.8546 43.681 17.2759 43.2633 17.277 42.3092C17.2817 38.973 17.2817 35.6369 17.277 32.3007C17.2759 31.3537 16.8511 30.9406 15.9041 30.9394C14.2506 30.9371 12.5972 30.9394 10.945 30.9394V30.9418ZM27.3677 4.03288C27.2398 3.94839 27.1131 3.85568 26.9781 3.77823C21.7315 0.763581 16.3218 0.461999 10.8687 3.06359C4.27026 6.21084 0.589074 13.1343 1.48561 20.3852C1.90219 23.7601 3.25403 26.7208 5.45664 29.3001C5.55873 29.4186 5.68195 29.5993 5.80516 29.6064C6.36139 29.6392 6.92114 29.6205 7.54542 29.6205C1.59005 23.8611 1.3354 15.3628 5.30409 9.54116C7.34241 6.54998 10.0813 4.44946 13.5407 3.38043C18.1208 1.96404 22.4826 2.57308 26.5569 5.03268C26.8361 4.68768 27.0908 4.37436 27.3677 4.03288ZM38.044 33.8015C36.6171 35.225 35.1913 36.6472 33.7843 38.0507C35.0915 39.3568 36.4246 40.6875 37.7365 41.9983C39.1447 40.5913 40.5799 39.1573 41.9892 37.7491C40.6796 36.4383 39.3477 35.1053 38.044 33.8015ZM39.0743 42.7164C39.3254 42.9476 39.5895 43.1975 39.8605 43.4381C40.2231 43.7596 40.6057 43.7761 40.9566 43.4358C41.7944 42.6225 42.6217 41.7964 43.4349 40.9574C43.7588 40.6241 43.7494 40.2357 43.4443 39.8942C43.1944 39.6149 42.9186 39.3591 42.6792 39.1174C41.4741 40.3202 40.2994 41.4925 39.0743 42.7164ZM33.0356 36.6531C34.2642 35.4362 35.4424 34.2709 36.6769 33.0482C36.4481 32.8428 36.2028 32.6163 35.9517 32.3969C35.5914 32.0812 35.2007 32.0683 34.8568 32.4051C34.0319 33.2113 33.2163 34.028 32.409 34.8518C32.0522 35.2156 32.0616 35.6028 32.4008 35.9783C32.6155 36.2166 32.8396 36.4465 33.0356 36.6543V36.6531ZM30.7438 31.5356C31.259 32.0765 31.746 32.5882 32.186 33.0505C32.4899 32.7677 32.7939 32.4849 33.0403 32.2561C32.5381 31.748 32.0405 31.2445 31.5476 30.7446C31.2789 31.0087 30.9891 31.2938 30.7426 31.5356H30.7438Z" fill="#1A325D"/>
<path d="M33.4479 12.2484C34.504 11.0843 35.5249 9.93666 36.5799 8.82186C36.7524 8.63997 37.0915 8.48625 37.3262 8.5191C37.8507 8.59303 37.9869 9.21263 37.6008 9.64798C36.8826 10.4577 36.1516 11.2568 35.424 12.0595C34.9816 12.5476 34.5427 13.0381 34.0921 13.5181C33.7295 13.9053 33.4373 13.9312 33.0172 13.6073C32.2415 13.0088 31.4706 12.4033 30.7031 11.7931C30.2912 11.4657 30.2243 11.1078 30.4919 10.7769C30.7465 10.4612 31.1338 10.4518 31.5386 10.764C32.1641 11.2451 32.7849 11.7332 33.4467 12.2496L33.4479 12.2484Z" fill="#1A325D"/>
<path d="M21.4597 16.4623C21.6733 16.5175 21.8845 16.5644 22.0922 16.6266C23.8243 17.1465 25.0341 18.753 25.0423 20.5589C25.0506 22.2135 25.0482 23.8681 25.0423 25.5227C25.0388 26.6211 24.2291 27.4237 23.1202 27.4249C19.8697 27.4284 16.6203 27.4284 13.3698 27.4249C12.2362 27.4249 11.4347 26.6234 11.4324 25.4946C11.4277 23.8986 11.4301 22.3027 11.4324 20.7068C11.4359 18.6051 12.7408 16.9857 14.7944 16.5281C14.8765 16.5093 14.9528 16.4717 15.0326 16.4436C14.413 14.9274 14.4764 13.3655 14.751 11.8471C15.0749 10.0599 16.7353 8.94624 18.5824 9.07532C20.298 9.19502 21.6991 10.6208 21.8329 12.4796C21.8974 13.3796 21.8481 14.2938 21.7883 15.1962C21.7613 15.608 21.5818 16.0094 21.4586 16.4623H21.4597ZM16.3129 17.8107C14.3837 17.5267 12.803 18.7389 12.7584 20.5578C12.7185 22.1807 12.7443 23.8059 12.7502 25.43C12.7526 25.8818 12.9779 26.1095 13.4285 26.1095C16.6321 26.1153 19.8368 26.1142 23.0404 26.1095C23.4957 26.1095 23.7257 25.8853 23.7269 25.4382C23.7339 23.7989 23.7726 22.1584 23.714 20.5226C23.6447 18.5981 21.8716 17.4657 20.1654 17.8376C20.3132 19.0088 20.4529 20.1834 20.6148 21.3557C20.7075 22.0258 20.6676 22.6501 20.1278 23.1312C19.757 23.4621 19.3698 23.7766 18.9708 24.0723C18.4697 24.442 17.978 24.429 17.4746 24.0524C17.1942 23.8423 16.9407 23.5935 16.6544 23.3929C15.9151 22.8765 15.732 22.1818 15.867 21.3193C16.0488 20.1541 16.1674 18.9794 16.3129 17.8095V17.8107ZM15.9784 13.6495C15.9784 14.0731 15.9655 14.4522 15.9808 14.83C16.0207 15.7524 16.6109 16.5292 17.4887 16.8367C18.37 17.1453 19.3357 16.8801 19.9553 16.1795C20.6148 15.4332 20.5303 14.5519 20.481 13.6495H15.9784ZM18.2573 22.9446C18.4662 22.7756 18.6481 22.6019 18.8558 22.467C19.2419 22.2171 19.4226 21.9213 19.2759 21.4402C19.1879 21.1515 19.202 20.8324 19.1632 20.5284C19.067 19.7809 18.9673 19.0334 18.8722 18.3059H17.6037C17.5051 19.0698 17.4582 19.8185 17.3021 20.5425C17.085 21.547 17.1167 22.4107 18.1881 22.9106C18.201 22.9164 18.2151 22.9235 18.2585 22.9434L18.2573 22.9446ZM20.4588 12.2977C20.2464 11.1219 19.2207 10.3075 18.1059 10.3908C17.0205 10.4718 16.0829 11.3354 16.0477 12.2977H20.4576H20.4588Z" fill="#1A325D"/>
<path d="M11.3459 36.6554C12.5745 36.6554 13.8019 36.6542 15.0306 36.6554C15.5551 36.6554 15.8321 36.8854 15.8332 37.3078C15.8344 37.7303 15.5551 37.9673 15.0376 37.9673C12.5663 37.9697 10.0961 37.9697 7.62479 37.9673C7.11785 37.9673 6.83152 37.7138 6.84208 37.2926C6.85264 36.8912 7.13193 36.6565 7.61892 36.6554C8.86163 36.6519 10.1043 36.6554 11.347 36.6554H11.3459Z" fill="#1A325D"/>
<path d="M10.4606 40.6054C9.51129 40.6054 8.56077 40.6078 7.61143 40.6054C7.12796 40.6031 6.8475 40.366 6.83811 39.9647C6.82873 39.5446 7.11505 39.2935 7.62317 39.2923C9.55236 39.2899 11.4804 39.2899 13.4096 39.2923C13.8919 39.2923 14.1758 39.534 14.1864 39.9318C14.197 40.3461 13.9013 40.6031 13.399 40.6042C12.4203 40.6078 11.4417 40.6042 10.4618 40.6042L10.4606 40.6054Z" fill="#1A325D"/>
<path d="M9.94677 34.0196C10.7365 34.0196 11.5274 34.0161 12.3172 34.0208C12.7842 34.0231 13.087 34.2883 13.0858 34.6779C13.0846 35.0675 12.7819 35.3315 12.3137 35.3327C10.733 35.3362 9.15351 35.3362 7.57284 35.3327C7.12223 35.3315 6.84998 35.0863 6.83824 34.6967C6.82651 34.2883 7.10697 34.0243 7.57636 34.0208C8.36611 34.0149 9.15703 34.0196 9.94677 34.0196Z" fill="#1A325D"/>
</svg>
