<svg width="47" height="41" viewBox="0 0 47 41" fill="none" xmlns="http://www.w3.org/2000/svg">
<rect x="22.1582" y="13.2939" width="11.5212" height="14.1799" rx="2" fill="#FFC907"/>
<path d="M34.8915 24.9057C34.4655 27.4676 33.654 28.2529 31.2751 28.4092V31.9902C32.1864 31.9902 33.0965 31.9902 34.0066 31.9902C34.2114 31.9902 34.4162 31.9877 34.6222 31.9902C35.229 32.0016 35.478 32.2431 35.4868 32.8645C35.4969 33.5939 35.502 34.3233 35.4843 35.0515C35.478 35.3374 35.5462 35.4924 35.8332 35.6182C36.857 36.0681 37.4031 37.1355 37.1882 38.1763C36.967 39.245 36.0645 40.024 34.9901 40.0748C33.9207 40.1243 32.9373 39.4178 32.6339 38.3809C32.3306 37.3452 32.7679 36.26 33.7513 35.7097C34.0003 35.5699 34.0774 35.4187 34.0698 35.1531C34.0547 34.6003 34.0648 34.0476 34.0648 33.4198C33.7728 33.4198 33.5124 33.4198 33.252 33.4198C32.4001 33.4198 31.5494 33.4236 30.6974 33.4185C30.0591 33.4147 29.8151 33.172 29.8113 32.5252C29.805 31.3358 29.8088 30.1476 29.8088 28.9582C29.8088 28.7866 29.8088 28.6151 29.8088 28.4155H27.5854C27.5778 28.5668 27.5652 28.704 27.5652 28.8425C27.5652 31.2201 27.569 33.599 27.5576 35.9766C27.5563 36.279 27.6284 36.4404 27.9204 36.5878C28.9114 37.0898 29.3841 38.147 29.1288 39.1738C28.857 40.2641 27.9204 40.9935 26.8131 40.9745C25.7462 40.9567 24.8172 40.2222 24.5682 39.198C24.3103 38.1394 24.7982 37.0821 25.7981 36.5713C26.0079 36.4646 26.1507 36.3832 26.1495 36.0973C26.1356 33.6079 26.1406 31.1197 26.1393 28.6303C26.1393 28.5693 26.1254 28.5083 26.1141 28.4181H22.6519C22.6519 28.5795 22.6519 28.7472 22.6519 28.9137C22.6519 30.3242 22.657 31.736 22.6506 33.1466C22.6393 35.8902 20.8052 38.2487 18.1684 38.9184C15.5228 39.5906 12.7305 38.3885 11.4362 35.9918C11.263 35.6703 11.1341 35.5865 10.7612 35.6932C8.73623 36.2714 7.09173 35.5382 5.76576 34.0374C3.95947 31.9915 3.39571 29.5211 3.70666 26.8665C3.80652 26.0087 3.63841 25.5678 2.89895 25.0823C-1.29383 22.3299 -0.850153 16.0739 3.65737 13.8323C3.79767 13.7624 3.94051 13.6963 4.11621 13.6112C4.04795 13.2909 3.96452 12.9732 3.91523 12.6505C3.31102 8.67425 6.22081 5.15551 10.2429 5.01445C10.5842 5.00302 10.7599 4.91788 10.9116 4.59002C12.1289 1.95827 15.0248 0.560433 17.8777 1.19836C20.6724 1.82357 22.6418 4.30029 22.6519 7.21033C22.6569 8.85597 22.6519 10.5016 22.6519 12.179H25.6653C25.6729 12.0265 25.6856 11.888 25.6856 11.7508C25.6868 9.50025 25.6805 7.24846 25.6931 4.99794C25.6944 4.69422 25.6198 4.53411 25.3291 4.3867C24.3394 3.88475 23.8679 2.8262 24.122 1.79943C24.3849 0.728174 25.2975 0.00511015 26.3896 2.71034e-05C27.459 -0.00505595 28.3918 0.7053 28.6661 1.73335C28.9455 2.78173 28.4841 3.86823 27.4881 4.3778C27.1822 4.53411 27.0987 4.70439 27.1 5.02589C27.1126 7.24464 27.1063 9.46466 27.1063 11.6847V12.179H30.1981C30.1981 11.0722 30.2082 9.98186 30.183 8.89409C30.1804 8.78354 29.9845 8.64756 29.8493 8.5764C28.8633 8.04776 28.3741 7.01336 28.6194 5.94211C28.8519 4.92296 29.8417 4.14652 30.906 4.1478C31.9817 4.1478 32.912 4.88611 33.1812 5.94847C33.4454 6.99176 32.9651 8.04395 31.9488 8.56624C31.6998 8.69331 31.6138 8.82801 31.6176 9.10123C31.6341 10.0683 31.6252 11.0353 31.6265 12.0024C31.6265 12.0481 31.6391 12.0951 31.6505 12.1714C33.5276 12.3556 34.6134 13.3875 34.8586 15.3178H37.9795C37.9795 14.8438 37.9795 14.3596 37.9795 13.8755C37.9795 13.2731 37.977 12.6708 37.9795 12.0685C37.9833 11.3441 38.2184 11.1103 38.9515 11.1052C39.6139 11.1014 40.2762 11.0874 40.9386 11.1103C41.3064 11.123 41.5137 11.0391 41.6869 10.6579C42.1305 9.68069 43.2151 9.1978 44.2528 9.4329C45.3209 9.67434 46.0781 10.5918 46.1009 11.6694C46.1223 12.7191 45.4107 13.6671 44.3792 13.9619C43.363 14.2529 42.2885 13.8259 41.7412 12.8754C41.5933 12.6187 41.4404 12.5208 41.1522 12.5323C40.5884 12.5539 40.0234 12.5386 39.404 12.5386C39.404 13.615 39.404 14.6392 39.404 15.6647C39.404 16.6 39.2283 16.7779 38.3081 16.7779C37.1756 16.7779 36.0417 16.7779 34.8738 16.7779V18.9585C35.0242 18.9662 35.1746 18.9814 35.3263 18.9814C37.5497 18.9827 39.7731 18.9763 41.9966 18.989C42.3025 18.9903 42.4642 18.9064 42.6134 18.6243C43.1494 17.609 44.2149 17.1604 45.2931 17.4527C46.3094 17.7284 47.0198 18.684 46.9996 19.7515C46.9794 20.8202 46.2374 21.7466 45.2085 21.9868C44.1479 22.2346 43.1051 21.7517 42.5869 20.7554C42.4769 20.5444 42.3871 20.4059 42.1065 20.4072C39.7731 20.4212 37.4385 20.4148 35.1051 20.4161C35.0432 20.4161 34.9825 20.4288 34.8801 20.439V23.4634C35.9482 23.4634 37.0138 23.4761 38.0793 23.4469C38.202 23.443 38.3435 23.2219 38.432 23.0745C38.9414 22.2206 39.6859 21.7758 40.6719 21.861C41.6717 21.9474 42.3732 22.4989 42.7044 23.4621C43.0925 24.5918 42.5439 25.8168 41.453 26.3175C40.3672 26.8157 39.0817 26.4433 38.5041 25.3797C38.2803 24.968 38.0351 24.8816 37.618 24.8943C36.7066 24.9222 35.794 24.9032 34.8915 24.9032V24.9057ZM21.2261 14.0432C21.2261 13.8488 21.2261 13.7433 21.2261 13.6391C21.2261 11.4826 21.2374 9.32742 21.2223 7.17221C21.2084 5.07799 19.8786 3.30528 17.8992 2.69531C15.9121 2.08281 13.7392 2.8046 12.5865 4.5125C11.6043 5.96753 11.6334 6.53937 13.1818 7.8203C13.877 8.39468 14.7391 8.54209 15.6416 8.42518C16.2408 8.34767 16.582 8.56624 16.6427 9.02117C16.7021 9.46593 16.3924 9.77473 15.816 9.84335C13.5029 10.1191 11.507 8.93603 10.6272 6.74905C10.5223 6.48854 10.3896 6.43898 10.1342 6.45423C6.54567 6.68042 4.29949 10.2462 5.6697 13.5743C5.7645 13.803 5.95916 14.0394 6.17025 14.1639C7.42164 14.9061 8.68061 14.8883 9.92188 14.1182C10.0154 14.0597 10.1014 13.9898 10.1911 13.9263C10.6095 13.6328 11.0216 13.6696 11.2731 14.0203C11.5082 14.3495 11.4248 14.751 11.0545 15.0624C9.41374 16.4424 6.86547 16.4894 5.08066 15.1564C4.85314 14.9874 4.67617 14.92 4.40441 15.0586C2.51089 16.0294 1.43268 17.5505 1.43521 19.7057C1.43774 21.8635 2.52353 23.3871 4.42969 24.3288C4.61044 24.4177 4.85693 24.4431 5.05791 24.4076C6.55578 24.1394 7.57838 23.0567 7.83371 21.5026C7.93862 20.8621 8.21165 20.5953 8.68693 20.6677C9.1306 20.7363 9.33285 21.0972 9.23931 21.6958C8.91319 23.7862 7.71363 25.1192 5.71647 25.7253C5.38403 25.8257 5.19569 25.9642 5.19063 26.315C5.17546 27.324 5.04906 28.3469 5.17041 29.3394C5.37897 31.0473 6.04638 32.5849 7.43554 33.6892C8.51881 34.5495 9.70953 34.7223 10.971 34.0781C11.7964 33.6562 12.0669 33.7604 12.3754 34.6296C13.0617 36.5637 14.9868 37.8268 16.9802 37.6502C19.5032 37.4265 21.2223 35.5509 21.2235 33.0005C21.2286 27.9911 21.2248 22.9818 21.2235 17.9724C21.2235 17.7348 21.221 17.4959 21.1995 17.2595C21.0504 15.6329 19.9911 14.4422 18.425 14.1423C18.224 14.1042 18.0142 14.1055 17.8208 14.0458C17.4542 13.9339 17.2861 13.6595 17.3354 13.2808C17.3847 12.8995 17.6185 12.6848 18.0028 12.6772C18.2215 12.6721 18.444 12.7 18.6601 12.7369C19.6132 12.8957 20.4297 13.3456 21.2235 14.042L21.2261 14.0432ZM22.6822 13.6391V26.93C22.7619 26.9415 22.8074 26.9529 22.8541 26.9529C25.7854 26.9542 28.7167 26.9618 31.6492 26.9516C32.6832 26.9478 33.405 26.1968 33.4088 25.1192C33.4201 21.9029 33.4201 18.6866 33.4088 15.469C33.405 14.3482 32.6718 13.6429 31.5519 13.6391C30.1172 13.634 28.6838 13.6391 27.2492 13.6391C25.7374 13.6391 24.2269 13.6391 22.6835 13.6391H22.6822ZM43.7371 12.606C44.244 12.6111 44.6535 12.2273 44.67 11.733C44.6851 11.2386 44.2402 10.7939 43.7359 10.8015C43.2467 10.8091 42.8258 11.231 42.827 11.7114C42.827 12.2032 43.2328 12.6022 43.7371 12.6073V12.606ZM41.3886 24.1712C41.3797 23.6756 40.9689 23.274 40.4747 23.2779C39.9577 23.2817 39.5532 23.7086 39.5722 24.2297C39.5911 24.7278 40.0019 25.1052 40.5088 25.09C41.0144 25.0747 41.3974 24.6744 41.3886 24.1712ZM31.8237 6.47837C31.8174 5.99294 31.3964 5.58249 30.9047 5.58376C30.4067 5.58376 29.9997 5.98659 29.9934 6.48092C29.9883 7.00193 30.3991 7.40095 30.93 7.38824C31.4318 7.3768 31.83 6.97143 31.8224 6.4771L31.8237 6.47837ZM44.6674 20.6054C45.1781 20.6029 45.5649 20.2179 45.5674 19.7121C45.57 19.2127 45.1769 18.8099 44.6763 18.7997C44.1682 18.7895 43.7359 19.2203 43.7472 19.7273C43.7574 20.2229 44.1618 20.608 44.6674 20.6054ZM34.8915 36.8382C34.3783 36.8331 33.9839 37.2118 33.975 37.715C33.9662 38.2322 34.3859 38.6566 34.8978 38.6465C35.387 38.6363 35.7978 38.2195 35.7978 37.7328C35.7978 37.2372 35.3971 36.8432 34.8915 36.8382ZM26.8421 37.7315C26.3441 37.7328 25.9422 38.1343 25.9384 38.6312C25.9346 39.1382 26.3163 39.5284 26.8257 39.5373C27.3515 39.5462 27.7661 39.1408 27.7586 38.6248C27.751 38.1369 27.3326 37.7302 26.8421 37.7315ZM26.3909 1.43853C25.884 1.44107 25.4858 1.83374 25.4846 2.32933C25.4833 2.81731 25.8903 3.23285 26.3808 3.24428C26.8927 3.25572 27.3124 2.83383 27.3048 2.31536C27.2972 1.81086 26.9053 1.43345 26.3909 1.43726V1.43853Z" fill="#1A325D"/>
<path d="M17.8255 23.9323C17.7863 26.3264 15.7828 28.4422 13.4292 28.5769C12.8566 28.6099 12.5418 28.3914 12.5102 27.939C12.4786 27.4853 12.7567 27.2134 13.3142 27.1498C15.0712 26.9516 16.3592 25.5893 16.4034 23.8827C16.4211 23.1825 16.6423 22.8661 17.1113 22.8661C17.5979 22.8661 17.8356 23.2219 17.8242 23.931L17.8255 23.9323Z" fill="#1A325D"/>
</svg>
