<svg width="41" height="44" viewBox="0 0 41 44" fill="none" xmlns="http://www.w3.org/2000/svg">
<circle cx="3.47712" cy="10.4319" r="2.60798" fill="#FFC907"/>
<circle cx="37.3795" cy="10.4319" r="2.60798" fill="#FFC907"/>
<circle cx="20.858" cy="39.9889" r="2.60798" fill="#FFC907"/>
<path d="M20.909 0C23.6504 1.58872 26.3918 3.17829 29.134 4.7653C31.0304 5.8627 32.9294 6.95754 34.8488 8.06598C35.4115 7.53726 36.0482 7.1692 36.8106 7.03319C38.5974 6.71613 40.3595 7.80417 40.8602 9.54844C41.3677 11.3148 40.4556 13.1976 38.7377 13.8454C38.3662 13.9856 38.2642 14.1548 38.2659 14.5382C38.2795 19.5942 38.2659 24.651 38.2863 29.707C38.2889 30.3361 38.0797 30.7177 37.5289 31.0331C33.1079 33.5619 28.703 36.1188 24.2871 38.6571C24.0261 38.8075 23.9539 38.9427 24.0015 39.2521C24.2318 40.7481 23.7312 41.9798 22.4748 42.8214C21.2185 43.6638 19.8745 43.6825 18.5978 42.8681C17.3261 42.0572 16.7906 40.8501 16.9742 39.3413C16.9844 39.2572 16.9972 39.173 17.0116 39.0889C17.0235 39.0209 17.0388 38.9546 17.0575 38.8619C15.9967 38.249 14.9443 37.6404 13.8929 37.0326C10.3771 35.0019 6.86306 32.9669 3.34136 30.9464C2.89595 30.6905 2.71064 30.3624 2.71149 29.8498C2.72254 24.7088 2.71744 19.567 2.72169 14.4259C2.72169 14.1684 2.69789 14.0128 2.39443 13.8989C0.963816 13.3617 0.141832 12.3102 0.0126268 10.7844C-0.110628 9.33339 0.677354 7.97928 1.98726 7.35536C3.39067 6.68638 4.70737 6.88359 5.91272 7.85603C5.97902 7.90958 6.04193 7.96653 6.10738 8.02008C6.11758 8.02858 6.13288 8.03198 6.17878 8.05153C6.97866 7.58996 7.79725 7.1182 8.61583 6.64643C12.3169 4.51114 16.0179 2.37585 19.7173 0.238865C19.8371 0.169162 19.946 0.0807542 20.0599 0.000850865C20.3429 0.000850865 20.6268 0.000850865 20.9099 0.000850865L20.909 0ZM23.0766 37.376C23.1225 37.3573 23.1506 37.3497 23.1752 37.3352C27.564 34.8047 31.9527 32.2758 36.3346 29.7334C36.457 29.662 36.565 29.4486 36.5658 29.3007C36.5777 24.3144 36.5735 19.3281 36.5811 14.3418C36.5811 14.0791 36.4842 13.9865 36.2479 13.8989C35.0324 13.4467 34.224 12.5882 33.9673 11.3157C33.8534 10.7504 33.9477 10.1435 33.9477 9.52295C33.9197 9.50425 33.8644 9.46345 33.8041 9.42859C29.4544 6.91504 25.1065 4.39978 20.7492 1.89983C20.6175 1.82417 20.3616 1.84032 20.2239 1.91938C15.9159 4.39128 11.6173 6.87934 7.31188 9.35464C7.07472 9.4915 7.01692 9.6258 7.06452 9.88931C7.37903 11.6412 6.45504 13.2793 4.78982 13.8785C4.46256 13.9967 4.41241 14.1565 4.41326 14.4599C4.42176 19.3612 4.42346 24.2626 4.41071 29.1639C4.41071 29.492 4.51016 29.6637 4.79152 29.8252C8.31492 31.8449 11.8307 33.8773 15.3481 35.9063C16.2024 36.3994 17.0558 36.8932 17.8999 37.3811C19.5643 35.8621 21.6486 36.0211 23.0758 37.3744L23.0766 37.376ZM5.4367 10.5685C5.44945 9.54504 4.62407 8.69161 3.60488 8.67376C2.58058 8.65591 1.72205 9.47704 1.69995 10.4954C1.67785 11.5384 2.51513 12.4037 3.55302 12.4105C4.57817 12.4173 5.4248 11.5894 5.4367 10.5685ZM37.4346 12.4105C38.4657 12.408 39.2876 11.5834 39.2902 10.5489C39.2936 9.51444 38.4759 8.68141 37.4473 8.67376C36.4103 8.66526 35.5466 9.52634 35.5585 10.5574C35.5704 11.5792 36.4137 12.4131 37.4346 12.4114V12.4105ZM22.36 39.8743C22.3626 38.8398 21.544 38.0068 20.5163 37.9974C19.4801 37.9881 18.6156 38.8483 18.6241 39.8794C18.6326 40.896 19.4827 41.7367 20.5002 41.7359C21.527 41.735 22.3566 40.9037 22.3592 39.8743H22.36Z" fill="#1A325D"/>
<path d="M32.5652 20.3108C32.5652 22.407 32.5567 24.5032 32.5711 26.5994C32.5745 27.0797 32.3969 27.3933 31.982 27.6322C28.3515 29.719 24.7253 31.8135 21.1024 33.914C20.6919 34.152 20.3247 34.1562 19.9099 33.9157C16.287 31.8144 12.6607 29.7199 9.0294 27.6347C8.59758 27.3865 8.41907 27.0584 8.41992 26.5671C8.42843 22.4028 8.42928 18.2393 8.41992 14.075C8.41907 13.5633 8.61203 13.236 9.05745 12.981C12.6539 10.9188 16.2445 8.84812 19.8274 6.76299C20.2983 6.48843 20.6953 6.47822 21.1688 6.75363C24.7516 8.83791 28.3413 10.9112 31.9378 12.9733C32.3824 13.2283 32.5788 13.548 32.5745 14.0648C32.5567 16.1465 32.5669 18.2291 32.5669 20.3108H32.5652ZM30.8404 15.3534C30.6679 15.4444 30.5319 15.509 30.4027 15.5838C27.3273 17.3587 24.2493 19.1284 21.1815 20.9161C20.714 21.1881 20.3221 21.2059 19.8427 20.9263C16.7766 19.1352 13.6978 17.368 10.6224 15.5932C10.4796 15.5107 10.3342 15.435 10.1497 15.3339C10.137 15.458 10.1251 15.5234 10.1251 15.5889C10.1242 19.0587 10.1276 22.5277 10.1174 25.9976C10.1174 26.2602 10.2365 26.3673 10.4337 26.4804C13.1801 28.0606 15.924 29.6459 18.6679 31.2295C18.9706 31.4038 19.274 31.5755 19.6446 31.7863C19.6446 31.437 19.6446 31.1598 19.6446 30.8827C19.6446 29.9196 19.6344 28.9565 19.6514 27.9943C19.6608 27.48 20.0374 27.1188 20.5049 27.1213C20.9826 27.1239 21.326 27.48 21.3413 28.0037C21.3515 28.3292 21.3447 28.6548 21.3447 28.9804C21.3447 29.8941 21.3447 30.8079 21.3447 31.7736C21.4884 31.7056 21.5785 31.6707 21.6601 31.624C24.6377 29.906 27.6129 28.1847 30.5939 26.4744C30.8132 26.3486 30.8685 26.2024 30.8685 25.9687C30.8626 22.5558 30.8643 19.1429 30.8634 15.73C30.8634 15.6221 30.8507 15.5149 30.8396 15.356L30.8404 15.3534ZM11.0057 13.8268C11.1689 13.9313 11.282 14.0104 11.401 14.0801C14.3149 15.7632 17.2322 17.442 20.1411 19.1335C20.408 19.2882 20.5984 19.2899 20.867 19.1335C23.7758 17.4411 26.6923 15.7623 29.607 14.0792C29.7261 14.0104 29.8391 13.9313 29.9836 13.8387C29.8978 13.7783 29.8459 13.7358 29.7881 13.7027C26.7756 11.9626 23.7614 10.2277 20.7548 8.4775C20.5193 8.34065 20.3697 8.4146 20.181 8.52341C17.795 9.90471 15.4064 11.2835 13.0186 12.6622C12.3615 13.0413 11.7053 13.4205 11.004 13.8259L11.0057 13.8268Z" fill="#1A325D"/>
<path d="M20.5167 23.2944C20.991 23.3063 21.3574 23.7041 21.3361 24.1835C21.3157 24.6408 20.9306 25.0004 20.4742 24.9877C20.0253 24.9757 19.6445 24.5864 19.6445 24.1402C19.6445 23.6769 20.0517 23.2816 20.5167 23.2935V23.2944Z" fill="#1A325D"/>
</svg>
