<svg width="44" height="45" viewBox="0 0 44 45" fill="none" xmlns="http://www.w3.org/2000/svg">
<circle cx="21.5984" cy="3.59978" r="2.7" fill="#FFC907"/>
<circle cx="40.5047" cy="14.4002" r="2.7" fill="#FFC907"/>
<circle cx="40.5047" cy="32.4007" r="2.7" fill="#FFC907"/>
<circle cx="21.5984" cy="41.4" r="2.7" fill="#FFC907"/>
<circle cx="3.60234" cy="32.4007" r="2.7" fill="#FFC907"/>
<circle cx="3.60234" cy="13.5004" r="2.7" fill="#FFC907"/>
<path d="M22.3799 0C22.6958 0.1092 23.0269 0.187869 23.324 0.334644C24.6955 1.00863 25.3577 2.12531 25.3789 3.64589C25.3812 3.8138 25.4716 4.05333 25.6008 4.13552C29.5766 6.65183 33.5618 9.1517 37.567 11.668C38.9314 10.4398 40.4497 10.1216 42.0642 11.1032C43.3018 11.8559 43.8149 13.0383 43.6823 14.4755C43.5496 15.9092 42.6325 16.8991 40.89 17.5308V28.8688C41.173 28.9792 41.4712 29.0614 41.7366 29.2023C43.0494 29.901 43.7386 31.0082 43.674 32.4877C43.6106 33.9473 42.858 35.0181 41.4983 35.5723C40.1197 36.1336 38.841 35.86 37.7526 34.8549C37.4954 34.6177 37.3404 34.6119 37.0516 34.7704C33.2988 36.8252 29.5402 38.8695 25.7781 40.9067C25.4928 41.0606 25.3624 41.212 25.3612 41.5678C25.3577 43.4594 23.7573 45.0035 21.8457 45C19.9388 44.9965 18.3477 43.4418 18.3419 41.5514C18.3419 41.2519 18.2691 41.0864 17.9943 40.9384C14.1923 38.8812 10.3972 36.8123 6.60459 34.7387C6.36622 34.6083 6.2218 34.5954 6.00809 34.8103C4.9337 35.8894 3.37789 36.1606 2.03226 35.536C0.677232 34.9066 -0.0871706 33.5856 0.00793951 32.0404C0.0948302 30.6431 1.09642 29.4266 2.52894 28.9816C2.62405 28.9522 2.71799 28.9182 2.8178 28.8841V17.5261C1.16218 17.0447 0.14297 15.9867 0.0349438 14.2513C-0.0566437 12.7729 0.616172 11.6199 1.94302 10.9553C3.47065 10.1897 4.87264 10.5255 6.13256 11.6727C7.37134 10.8942 8.60894 10.1169 9.84772 9.33841C12.5789 7.62408 15.3113 5.91327 18.0354 4.1872C18.1763 4.09796 18.3278 3.88778 18.3278 3.73278C18.3243 1.83293 19.3376 0.529568 21.2128 0.0634113C21.2527 0.0528435 21.2879 0.0211356 21.3255 0C21.6778 0 22.03 0 22.3823 0H22.3799ZM24.9291 39.7537C25.0101 39.7173 25.0642 39.6973 25.1135 39.6703C28.9097 37.6061 32.7023 35.5371 36.5044 33.4823C36.7615 33.3437 36.7639 33.1899 36.7204 32.9551C36.4034 31.2325 37.3909 29.5687 39.0536 29.0109C39.1874 28.9663 39.3236 28.9264 39.4469 28.8876V17.5202C39.3213 17.4791 39.2097 17.4439 39.0982 17.4075C37.3392 16.8321 36.3236 15.0708 36.7545 13.2825C36.8308 12.9667 36.7768 12.8223 36.5091 12.6555C33.2648 10.6324 30.0263 8.59631 26.7879 6.56495C26.1468 6.16337 25.5057 5.7618 24.8669 5.3614C23.4614 7.45851 20.4719 7.69687 18.8327 5.38487C18.7963 5.40014 18.7552 5.41189 18.72 5.4342C14.8475 7.86361 10.9773 10.2954 7.1001 12.7178C6.8723 12.8598 6.88053 12.9925 6.93689 13.2203C7.38778 15.0567 6.38853 16.8228 4.57909 17.4145C4.47107 17.4498 4.36304 17.4862 4.2515 17.5237V28.8829C4.32782 28.9088 4.39475 28.9323 4.46167 28.9546C6.33335 29.5651 7.2868 31.0963 6.96389 33.0232C6.9134 33.3273 7.06252 33.3989 7.26331 33.5069C10.5969 35.3175 13.9281 37.1329 17.2604 38.947C17.7595 39.2182 18.2585 39.4883 18.7552 39.7572C20.3004 37.3289 23.4943 37.4393 24.9303 39.7537H24.9291ZM40.1597 16.1687C41.3116 16.1722 42.265 15.2388 42.2791 14.0927C42.2932 12.9256 41.348 11.9651 40.1761 11.9557C39.0289 11.9463 38.0661 12.8892 38.0578 14.0317C38.0485 15.2047 38.9937 16.1664 40.1597 16.1699V16.1687ZM3.52583 34.4522C4.67185 34.4616 5.63588 33.5175 5.64527 32.3762C5.65466 31.2032 4.7106 30.2415 3.54345 30.238C2.39156 30.2344 1.43811 31.1679 1.42285 32.3139C1.40758 33.4811 2.35281 34.4428 3.52583 34.4522ZM40.1796 34.4522C41.3256 34.4522 42.2791 33.5011 42.2803 32.3574C42.2803 31.1856 41.328 30.2333 40.1585 30.238C39.009 30.2427 38.0625 31.1855 38.0578 32.3327C38.052 33.4987 39.0066 34.4522 40.1796 34.4522ZM21.8645 39.3791C20.7126 39.3732 19.7568 40.3055 19.7403 41.4504C19.7239 42.6175 20.6668 43.5816 21.8386 43.5933C22.9847 43.605 23.951 42.6633 23.9628 41.522C23.9745 40.349 23.0316 39.385 21.8645 39.3791ZM23.9604 3.49794C23.951 2.33314 22.9858 1.39377 21.8105 1.40786C20.668 1.42078 19.7263 2.38598 19.7392 3.53082C19.7521 4.70033 20.7196 5.64085 21.8891 5.62206C23.0375 5.60328 23.9698 4.64748 23.9604 3.49794ZM5.64292 14.0763C5.64996 12.9268 4.71648 11.9733 3.56811 11.9557C2.39743 11.9381 1.43341 12.8798 1.42167 14.0493C1.40993 15.1941 2.35281 16.157 3.49648 16.1699C4.67068 16.1828 5.63587 15.2411 5.64409 14.0763H5.64292Z" fill="#1A325D"/>
<path d="M21.8527 33.5489C20.2675 35.4453 18.0647 35.4183 16.6099 34.8147C15.4779 34.345 14.7323 33.502 14.2803 32.3736C14.218 32.2197 14.0372 32.0436 13.881 32.0084C11.1651 31.3943 9.45547 28.9989 9.80538 26.2442C9.83826 25.9883 9.80891 25.8145 9.61517 25.6301C8.04996 24.1354 8.04761 20.8582 9.62339 19.3411C9.73611 19.2331 9.82065 19.0159 9.80304 18.8632C9.4543 16.0005 11.0994 13.6463 13.9092 12.9934C14.0407 12.9629 14.2169 12.8443 14.2533 12.7292C15.3042 9.42854 19.8577 8.89193 21.7505 11.3613C21.7752 11.393 21.8174 11.4106 21.7658 11.3742C22.3916 10.9515 22.9364 10.463 23.5717 10.1777C25.4516 9.33343 28.4129 9.89939 29.4345 12.6482C29.4873 12.7914 29.6623 12.9547 29.809 12.9887C32.6165 13.6463 34.2581 15.9994 33.9058 18.8668C33.8882 19.01 33.9551 19.2155 34.0585 19.3129C35.6753 20.8382 35.6601 24.1647 34.0737 25.6783C33.9575 25.7898 33.8964 26.0341 33.9176 26.2043C34.2592 28.9836 32.5661 31.386 29.8243 32.0072C29.6822 32.0389 29.4944 32.1692 29.4521 32.2949C28.3566 35.5967 23.8664 36.084 21.9748 33.657C21.9489 33.6241 21.9114 33.6006 21.8538 33.5501L21.8527 33.5489ZM32.4745 18.3583C32.8667 16.8248 31.4224 14.7301 29.7973 14.5222C29.7973 14.7124 29.8008 14.8968 29.7973 15.0823C29.7715 16.1085 29.4415 17.0326 28.8391 17.8593C28.5597 18.2421 28.1417 18.3278 27.8105 18.0906C27.4912 17.8628 27.416 17.4495 27.6826 17.082C28.3014 16.226 28.4646 15.2737 28.3753 14.2486C28.2356 12.64 27.3479 11.4998 25.9036 11.3061C24.0238 11.0525 22.65 11.7899 22.5807 13.7684C22.522 15.4651 22.5689 17.1653 22.5713 18.8632C22.5713 18.882 22.6065 18.8996 22.5877 18.8808C23.1502 18.5251 23.6868 18.1458 24.2598 17.8335C24.8774 17.4976 25.3083 17.5892 25.5091 18.0213C25.7146 18.4616 25.5138 18.7834 24.8457 19.0887C23.2077 19.8366 22.2636 21.6261 22.6523 23.3076C22.9529 24.6074 23.8288 25.4293 25.0019 25.9777C25.515 26.2172 25.6958 26.5707 25.5126 26.9746C25.333 27.3691 24.9161 27.5042 24.4242 27.2435C23.8969 26.964 23.405 26.6165 22.9012 26.2947C22.7979 26.229 22.7087 26.1433 22.5771 26.0388C22.5771 27.8529 22.5525 29.6071 22.5889 31.3602C22.6042 32.0777 22.8578 32.7387 23.4625 33.2072C25.0312 34.4237 27.6121 33.6405 28.1699 31.7454C28.5656 30.4009 28.5327 29.0858 27.6567 27.8893C27.382 27.5135 27.4442 27.1214 27.7671 26.8783C28.1053 26.6235 28.5526 26.6705 28.7863 27.092C29.1374 27.7249 29.4509 28.3883 29.6799 29.0729C29.8278 29.512 29.7961 30.0111 29.8443 30.4831C31.5281 30.1978 32.8443 28.15 32.4604 26.6411C32.2314 26.6834 32.0024 26.7315 31.7723 26.7668C31.258 26.8466 30.8975 26.6376 30.8235 26.2231C30.7414 25.7687 30.9926 25.4658 31.5445 25.3847C32.3089 25.2732 32.9312 24.9432 33.3739 24.2951C34.6385 22.4422 33.6475 20.0116 31.4588 19.6077C31.0102 19.5243 30.7742 19.2296 30.8259 18.8139C30.8752 18.4217 31.2134 18.1705 31.656 18.2186C31.9308 18.2491 32.2021 18.3113 32.4745 18.3583ZM21.0742 26.0658C20.9614 26.1632 20.8628 26.2748 20.7407 26.3499C20.1935 26.6846 19.6546 27.0392 19.0816 27.3245C18.7305 27.4995 18.3453 27.3034 18.1974 26.9746C18.0377 26.6223 18.1786 26.2442 18.5461 26.047C18.6236 26.0059 18.707 25.9777 18.7868 25.9401C20.2334 25.2708 21.0648 24.1401 21.1329 22.5561C21.1998 20.9862 20.3403 19.9165 19.017 19.1744C18.8385 19.0746 18.6377 19.0123 18.4663 18.9031C18.134 18.6906 18.0494 18.3712 18.2056 18.0237C18.3547 17.6914 18.6565 17.5246 19.0017 17.6561C19.4221 17.8158 19.8272 18.0295 20.2135 18.262C20.5293 18.4523 20.8088 18.7047 21.1364 18.9525C21.1364 17.1606 21.1599 15.4205 21.1247 13.6803C21.1106 12.9488 20.864 12.2689 20.2464 11.791C18.6318 10.5405 16.0451 11.3801 15.5155 13.3421C15.1574 14.6678 15.2032 15.9465 16.0533 17.1148C16.3198 17.4812 16.2306 17.8898 15.8971 18.1164C15.5719 18.3384 15.1386 18.2761 14.9073 17.8898C14.602 17.3802 14.2979 16.8495 14.1217 16.287C13.9456 15.7281 13.9292 15.1187 13.8423 14.5304C12.3041 14.716 10.8516 16.8154 11.2344 18.3618C11.4481 18.3231 11.663 18.2808 11.879 18.2456C12.4379 18.154 12.7996 18.3454 12.8783 18.7669C12.964 19.2272 12.7057 19.5337 12.1221 19.6218C11.0418 19.7873 10.3279 20.3944 10.0038 21.4183C9.88758 21.7846 9.88876 22.1968 9.88289 22.5878C9.86058 24.1589 10.6766 25.1299 12.2113 25.3871C12.7033 25.4693 12.9464 25.7511 12.8959 26.1785C12.8442 26.6035 12.4826 26.8431 11.9835 26.7738C11.7287 26.7374 11.4751 26.6846 11.2226 26.6399C10.9162 28.312 12.3968 30.4079 13.9151 30.4596C13.8446 29.2161 14.1617 28.083 14.9143 27.0826C15.2067 26.694 15.6095 26.6059 15.9429 26.8431C16.2787 27.0803 16.3422 27.5053 16.0545 27.8881C15.3887 28.7758 15.2267 29.7762 15.3476 30.8436C15.5848 32.9407 17.0478 34.0315 19.1238 33.6687C20.2381 33.4738 20.9932 32.8338 21.0507 31.7031C21.1446 29.8385 21.0765 27.9656 21.0765 26.0646L21.0742 26.0658Z" fill="#1A325D"/>
<path d="M28.5567 22.5042C29.3505 23.2546 29.8178 24.107 29.8847 25.1544C29.9153 25.6429 29.6804 25.9693 29.2718 26.0127C28.8679 26.0562 28.5544 25.7873 28.5004 25.2965C28.3853 24.2479 27.8499 23.5387 26.8612 23.163C26.5582 23.0479 26.388 22.8201 26.3927 22.4901C26.3962 22.1578 26.5782 21.9418 26.8788 21.8267C27.8499 21.4557 28.3782 20.7559 28.4968 19.7261C28.5567 19.2094 28.8796 18.9347 29.2976 18.9946C29.7016 19.0521 29.9176 19.375 29.8836 19.874C29.8131 20.9191 29.334 21.7657 28.5579 22.5031L28.5567 22.5042Z" fill="#1A325D"/>
<path d="M15.1404 22.5006C14.3525 21.7561 13.8805 20.906 13.8136 19.8586C13.7819 19.3643 14.0073 19.0402 14.4148 18.9921C14.8222 18.9439 15.1416 19.2081 15.1956 19.6954C15.3095 20.7428 15.8391 21.4567 16.8277 21.8348C17.1272 21.9499 17.3033 22.1706 17.3021 22.5053C17.3021 22.8387 17.1237 23.0595 16.8231 23.1722C15.8297 23.5468 15.3083 24.2666 15.1909 25.3116C15.1369 25.7954 14.8081 26.0631 14.4054 26.0091C13.9979 25.9539 13.776 25.6263 13.8101 25.1355C13.8817 24.0893 14.3572 23.2415 15.1404 22.5006Z" fill="#1A325D"/>
</svg>
