<svg width="45" height="46" viewBox="0 0 45 46" fill="none" xmlns="http://www.w3.org/2000/svg">
<rect x="38.748" y="19.1443" width="4.13514" height="17.9191" fill="#FFC907"/>
<rect x="31.0898" y="22.5137" width="4.13514" height="14.5497" fill="#FFC907"/>
<rect x="23.4316" y="31.55" width="4.13514" height="5.51358" fill="#FFC907"/>
<path d="M34.6347 15.2343C35.843 14.6125 36.932 14.0642 38.0056 13.4853C38.1373 13.4148 38.2521 13.1744 38.2491 13.0151C38.2215 11.7317 39.1297 10.609 40.3366 10.4727C41.718 10.3165 42.8284 11.1359 43.0719 12.4913C43.2358 13.4041 42.7916 14.3797 41.9768 14.902C41.159 15.4273 40.1252 15.4396 39.3441 14.8377C38.9689 14.5482 38.7101 14.5865 38.3364 14.7932C37.4864 15.265 36.6119 15.6938 35.742 16.1288C35.4847 16.2574 35.3499 16.3845 35.3575 16.7261C35.3958 18.4414 33.9577 19.5518 32.2899 19.1566C32.1061 19.1137 31.7998 19.1919 31.6788 19.3282C30.2851 20.9011 28.9098 22.4908 27.5528 24.0959C27.4319 24.2383 27.3859 24.5507 27.4533 24.7269C27.8959 25.8939 27.5973 27.0548 26.6355 27.7333C25.7043 28.3903 24.4791 28.3015 23.5923 27.4729C23.3764 27.2708 23.2125 27.2325 22.9506 27.3412C22.2292 27.6414 21.491 27.9033 20.7758 28.2157C20.6288 28.2801 20.4542 28.4991 20.4527 28.6476C20.4327 31.3202 20.4389 33.9943 20.4389 36.7143H22.6611C22.6611 35.993 22.6611 35.2915 22.6611 34.5885C22.6611 33.6145 22.6535 32.6389 22.6642 31.6648C22.6719 31.046 22.8924 30.8025 23.4759 30.7964C24.6613 30.7826 25.8467 30.7826 27.0306 30.7964C27.6141 30.8025 27.8331 31.0415 27.8377 31.6648C27.8484 33.1366 27.8408 34.6069 27.8423 36.0787C27.8423 36.2839 27.8423 36.4892 27.8423 36.7266H30.403V36.0205C30.403 31.6066 30.403 27.1927 30.403 22.7772C30.403 21.8552 30.5393 21.7235 31.4675 21.722C32.4997 21.722 33.532 21.7204 34.5642 21.722C35.3667 21.7235 35.5658 21.9257 35.5658 22.745C35.5658 27.159 35.5658 31.5729 35.5658 35.9884C35.5658 36.215 35.5658 36.4417 35.5658 36.7143H38.1082V36.0573C38.1082 30.363 38.1082 24.6687 38.1082 18.9744C38.1082 18.1029 38.2675 17.9436 39.1404 17.9421C40.211 17.9421 41.2815 17.9375 42.3521 17.9421C43.0566 17.9452 43.2618 18.1565 43.2618 18.8718C43.2618 24.586 43.2618 30.2987 43.2618 36.0129C43.2618 36.238 43.2618 36.4631 43.2618 36.7587C43.5712 36.7587 43.8315 36.7557 44.0919 36.7587C44.7229 36.7694 45.0307 36.9977 44.9986 37.4541C44.9587 38.0115 44.5697 38.0988 44.1026 38.0988C41.0824 38.0942 38.0622 38.0958 35.0436 38.0958H34.3498C34.3498 39.1908 34.3498 40.2353 34.3498 41.2799C34.3498 42.3014 34.2181 42.4331 33.1966 42.4331C23.3718 42.4331 13.5485 42.4331 3.72371 42.4331C2.75272 42.4331 2.57812 42.2631 2.57812 41.312C2.57812 27.8972 2.57812 14.4823 2.57812 1.06902C2.57812 0.163876 2.73894 0.00153155 3.6456 0.00153155C10.8714 0.00459465 18.0956 0.00765775 25.3214 0C25.7701 0 26.1086 0.119461 26.4348 0.448744C28.896 2.93292 31.3694 5.40637 33.8566 7.86451C34.212 8.21676 34.3682 8.57515 34.3636 9.07137C34.3421 10.848 34.3452 12.6261 34.3666 14.4027C34.3697 14.6661 34.5305 14.9265 34.6347 15.2343ZM20.4389 26.9231C21.2261 26.6183 21.9551 26.3518 22.6673 26.0455C22.7714 26.0011 22.8357 25.7714 22.848 25.6228C22.972 24.0515 24.3519 23.0314 25.8666 23.4373C26.199 23.5261 26.3782 23.4572 26.5895 23.2106C27.9327 21.6439 29.285 20.0863 30.6465 18.5348C30.861 18.2898 30.8993 18.0968 30.7645 17.7798C30.2177 16.5055 30.789 15.1118 32.0464 14.6033C32.3588 14.4777 32.6988 14.4226 33.0342 14.3322V9.31795C32.7984 9.31795 32.5931 9.31795 32.3879 9.31795C30.2667 9.31795 28.144 9.31795 26.0228 9.31795C25.2372 9.31795 25.0427 9.12191 25.0427 8.34082C25.0411 6.20125 25.0427 4.06014 25.0427 1.92056C25.0427 1.71993 25.0427 1.52083 25.0427 1.34164H3.95191V41.067H33.0204V38.1019H32.296C28.2819 38.1019 24.2677 38.1019 20.2551 38.1019C19.2734 38.1019 19.134 37.9641 19.134 36.9731C19.134 29.0811 19.134 21.189 19.134 13.2969C19.134 13.107 19.0881 12.8711 19.18 12.7364C19.3255 12.525 19.5827 12.2325 19.7696 12.2493C20.0009 12.2692 20.2413 12.5419 20.4128 12.7578C20.4971 12.865 20.4373 13.0902 20.4373 13.2617C20.4373 17.5807 20.4373 21.8996 20.4373 26.2171V26.9231H20.4389ZM41.9049 36.7342V19.3144H39.4376V36.7342H41.9049ZM31.714 23.0667V36.725H34.1936V23.0667H31.714ZM26.3919 2.31877V7.92577H31.9407C30.109 6.07566 28.2895 4.23627 26.3919 2.31877ZM26.4992 36.7388V32.1503H24.0288V36.7388H26.4992ZM40.6643 13.9432C41.2831 13.9509 41.7655 13.5021 41.7869 12.8972C41.8084 12.2708 41.3213 11.747 40.7057 11.7332C40.09 11.721 39.5846 12.2279 39.5861 12.8558C39.5876 13.473 40.0471 13.934 40.6643 13.9432ZM32.9913 15.7367C32.3726 15.726 31.8948 16.1732 31.8718 16.7843C31.8488 17.4198 32.322 17.9283 32.9484 17.9375C33.5687 17.9452 34.094 17.4352 34.0894 16.8271C34.0848 16.2344 33.5948 15.7474 32.9913 15.7367ZM26.3567 25.7454C26.3567 25.1358 25.8942 24.6625 25.2816 24.6472C24.6583 24.6319 24.1406 25.1312 24.1421 25.7469C24.1421 26.3273 24.646 26.8465 25.2265 26.8634C25.8314 26.8802 26.3567 26.361 26.3567 25.7454Z" fill="#1A325D"/>
<path d="M0 22.7129C0 16.4473 0 10.1802 0 3.91466C0 2.93907 0.157748 2.61438 0.63865 2.60212C1.12721 2.58987 1.30334 2.92988 1.30334 3.88403C1.30334 16.3202 1.30334 28.7579 1.30946 41.1941C1.30946 41.5893 1.3355 42.0043 1.45496 42.378C1.73523 43.2617 2.53009 43.7151 3.68793 43.7151C12.2293 43.7151 20.7707 43.7151 29.312 43.7151C29.4836 43.7151 29.6566 43.7196 29.8282 43.7151C30.283 43.6997 30.646 43.8299 30.6521 44.3568C30.6598 44.8867 30.2922 45.0184 29.8419 45.0215C29.7087 45.0215 29.5739 45.0215 29.4407 45.0215C20.9177 45.0215 12.3962 45.0245 3.87325 45.0153C3.36325 45.0153 2.83181 44.9924 2.34631 44.8561C1.01234 44.4839 0.0995497 43.2893 0.0183784 41.9109C0.00306307 41.6444 0.00153153 41.3764 0.00153153 41.1084C0 34.9776 0 28.8452 0 22.7129Z" fill="#1A325D"/>
<path d="M11.6329 12.202C12.95 12.202 14.2687 12.1989 15.5858 12.202C16.1647 12.2035 16.4894 12.4455 16.4634 12.8651C16.4327 13.3874 16.0636 13.5145 15.6226 13.516C12.9485 13.5191 10.276 13.5206 7.60191 13.516C7.16083 13.516 6.781 13.3813 6.79326 12.8468C6.80551 12.323 7.17155 12.2004 7.62182 12.2004C8.95885 12.2035 10.2959 12.2004 11.6314 12.2004L11.6329 12.202Z" fill="#1A325D"/>
<path d="M11.6725 26.9983C10.337 26.9983 9.0015 26.9907 7.666 27.0029C7.20194 27.0075 6.83591 26.8651 6.82825 26.3673C6.82059 25.8711 7.16672 25.7072 7.63996 25.7088C10.311 25.7179 12.982 25.7164 15.6529 25.7088C16.1216 25.7088 16.4677 25.8558 16.4585 26.3688C16.4478 26.8865 16.0772 27.0044 15.6208 27.0014C14.3052 26.9922 12.9881 26.9983 11.6725 26.9983Z" fill="#1A325D"/>
<path d="M10.9683 22.5078C9.861 22.5078 8.75524 22.5001 7.64794 22.5109C7.17469 22.5155 6.83316 22.3332 6.8301 21.8462C6.82704 21.3867 7.16704 21.1907 7.60506 21.1907C9.87632 21.1876 12.1461 21.1861 14.4173 21.1922C14.8492 21.1922 15.1785 21.3699 15.1678 21.86C15.1571 22.3378 14.8477 22.5093 14.402 22.5093C13.2564 22.5063 12.1124 22.5093 10.9668 22.5093L10.9683 22.5078Z" fill="#1A325D"/>
<path d="M10.3648 30.2007C11.2822 30.2007 12.198 30.2053 13.1154 30.1992C13.5641 30.1961 13.8796 30.3707 13.8904 30.8409C13.9011 31.3157 13.5749 31.5163 13.1384 31.5178C11.2852 31.5255 9.4336 31.524 7.58045 31.5178C7.13783 31.5163 6.81621 31.2942 6.82846 30.8348C6.84225 30.3799 7.16081 30.1915 7.61414 30.1977C8.53153 30.2084 9.44739 30.2007 10.3648 30.2007Z" fill="#1A325D"/>
<path d="M9.63268 18.0203C8.94503 18.0203 8.2589 18.0233 7.57124 18.0203C7.14241 18.0172 6.80394 17.8656 6.79322 17.3785C6.7825 16.8639 7.11637 16.6863 7.5789 16.6847C8.97259 16.6832 10.3648 16.6832 11.7585 16.6847C12.1919 16.6847 12.5242 16.8501 12.5395 17.328C12.5564 17.8457 12.2072 18.0157 11.7508 18.0187C11.0448 18.0248 10.3387 18.0203 9.63268 18.0203Z" fill="#1A325D"/>
</svg>
