<svg xmlns="http://www.w3.org/2000/svg" width="45" height="45" viewBox="0 0 45 45" fill="none">
<circle cx="9.5" cy="35.5" r="8.5" fill="#FFC907"/>
<path d="M11.9431 33.0925H9.99282C10.2955 33.3709 10.5013 33.7583 10.5739 34.2679H11.9431V35.0064H10.5739C10.4165 36.2182 9.45895 36.9566 8.1031 37.0293C8.97472 37.9372 9.98072 39.1369 10.9492 40.3366H9.33789C8.5268 39.356 7.60555 38.2532 6.56445 37.1382V36.1201H7.2787C8.42996 36.1201 9.03524 35.6722 9.1563 35.0064H6.56445V34.2679H9.10789C8.9263 33.7232 8.38153 33.4084 7.44817 33.4084H6.56445V32.3552H11.9431V33.0937V33.0925Z" fill="#1A325D"/>
<path d="M25.7896 5.04691C26.3102 5.52267 26.8416 5.98753 27.3477 6.47903C27.7689 6.88942 28.166 7.32644 28.5607 7.76346C28.9166 8.1569 28.9251 8.58787 28.6055 8.88446C28.2713 9.19558 27.8283 9.14594 27.4615 8.72466C26.3126 7.40997 25.0209 6.25628 23.5876 5.25997C23.492 5.19339 23.3903 5.13407 23.2414 5.03843C23.2317 5.2297 23.2172 5.37255 23.2172 5.51419C23.2159 7.37244 23.2172 9.22947 23.2159 11.0877C23.2159 11.6712 22.9629 11.9799 22.4957 11.9823C22.0272 11.9848 21.7705 11.6749 21.7693 11.095C21.7681 9.10236 21.7693 7.10853 21.7693 5.01301C19.1859 6.72598 17.1304 8.83603 15.4658 11.4715C16.2224 11.6216 16.9185 11.7923 17.6255 11.8915C18.6714 12.038 19.7234 12.1349 20.773 12.2487C21.2633 12.3019 21.5732 12.6022 21.5478 13.0138C21.5224 13.4302 21.1858 13.7232 20.6967 13.6977C18.7332 13.5985 16.7962 13.3116 14.892 12.8213C14.8496 12.8104 14.8036 12.8104 14.7128 12.7995C13.2613 15.5887 12.4878 18.5582 12.374 21.7735C12.581 21.7735 12.7723 21.7735 12.9623 21.7735C22.2087 21.7735 31.4552 21.7735 40.7016 21.7735C41.5769 21.7735 41.802 22.0048 41.7754 22.8715C41.5079 31.2572 36.2939 38.2653 28.3161 40.8681C24.7582 42.029 21.141 42.0871 17.5226 41.1126C17.0722 40.9915 16.8325 41.0497 16.5166 41.4298C13.9949 44.4683 10.7518 45.6474 6.93724 44.6572C3.16264 43.6766 0.821376 41.1078 0.155556 37.2654C-0.467895 33.6699 0.799582 30.6762 3.65414 28.387C3.92652 28.1678 4.0161 28.0044 3.92409 27.6473C2.2886 21.2917 3.44833 15.4809 7.55463 10.3614C10.7929 6.32407 15.0651 4.00701 20.2198 3.37025C24.2849 2.86785 28.1116 3.64505 31.7118 5.5723C31.9031 5.6752 32.1622 5.83136 32.1985 6.00326C32.253 6.26233 32.2178 6.61098 32.075 6.82404C31.8704 7.1279 31.5193 7.1049 31.178 6.94631C30.2349 6.5105 29.3003 6.04806 28.3307 5.68368C27.5196 5.37861 26.6637 5.1946 25.8272 4.95733C25.8163 4.98638 25.8042 5.01664 25.7933 5.0457L25.7896 5.04691ZM9.23977 43.5289C13.5071 43.5374 17.0335 40.0279 17.0505 35.7594C17.0674 31.4921 13.5628 27.9608 9.29062 27.939C5.00515 27.9172 1.46056 31.4437 1.45814 35.7304C1.45572 39.9977 4.97125 43.5205 9.23977 43.5289ZM32.6016 23.2565H23.2353V31.1205C25.602 31.44 27.9372 31.7548 30.3233 32.0756C31.7034 29.3772 32.4926 26.4222 32.6004 23.2553L32.6016 23.2565ZM21.7366 31.2221V23.2553H12.2953C12.4757 24.5046 12.6367 25.7116 12.84 26.9113C12.8691 27.0868 13.0688 27.2902 13.2408 27.3761C14.7758 28.1388 16.0868 29.1823 16.9512 30.6604C17.3834 31.3989 17.7877 31.6761 18.6569 31.5054C19.6544 31.3093 20.6907 31.3093 21.7366 31.2221ZM13.2843 12.4024C13.1996 12.354 13.15 12.3201 13.0967 12.2959C11.8994 11.7693 10.6973 11.256 9.50973 10.7088C9.2555 10.5914 9.16593 10.6967 9.03034 10.8529C6.83918 13.3878 5.47123 16.3126 4.91436 19.6114C4.79572 20.3136 4.75456 21.029 4.67587 21.7505H10.891C11.029 18.4529 11.8098 15.3393 13.2843 12.4012V12.4024ZM35.7794 34.3527C38.5468 31.1955 40.0758 27.5044 40.2828 23.2553H34.0858C33.9429 26.5493 33.1742 29.6581 31.7203 32.5671C33.0628 33.1579 34.3824 33.7377 35.7794 34.3527ZM29.4892 33.544C27.4094 33.0307 25.3514 32.7729 23.2547 32.7293V39.9662C25.8042 38.2532 27.8598 36.1516 29.4892 33.544ZM10.8571 23.2517H4.61413C4.83566 24.6378 5.04873 25.9767 5.24968 27.2369C6.33558 26.9827 7.28711 26.6703 8.26283 26.5578C9.23614 26.4452 10.2312 26.5335 11.2215 26.5335C11.1089 25.5154 10.9842 24.3981 10.8571 23.2517ZM21.618 40.0013C21.6591 39.965 21.6991 39.9286 21.7403 39.8923V32.6882C20.5176 32.7911 19.3276 32.8915 18.1024 32.9956C18.4862 34.3684 18.6109 35.6771 18.4196 37.0099C18.4039 37.1213 18.4632 37.2908 18.5479 37.3634C19.5648 38.2508 20.5938 39.1248 21.6192 40.0025L21.618 40.0013ZM13.9889 11.1131C15.4246 8.73071 17.1485 6.75019 19.1895 5.0348C15.8072 5.65825 12.8776 7.15211 10.2748 9.55149C11.5544 10.089 12.7577 10.595 13.9901 11.1131H13.9889ZM34.7201 35.4386C33.5737 34.9713 32.5011 34.5428 31.4358 34.0949C31.1029 33.9556 30.9177 34.0004 30.7143 34.3358C29.6623 36.0742 28.3621 37.6152 26.8695 38.9929C26.5184 39.3173 26.1516 39.6248 25.7037 40.0194C29.1829 39.3379 32.1113 37.8465 34.7201 35.4398V35.4386ZM19.1569 40.0073C19.169 39.9843 19.1811 39.9601 19.1932 39.9371C18.7973 39.5921 18.4015 39.2471 17.9705 38.8706C17.8579 39.143 17.7635 39.3694 17.6485 39.6478C18.1836 39.7749 18.6702 39.8911 19.1557 40.0061L19.1569 40.0073Z" fill="#1A325D"/>
<path d="M38.5484 18.3984V6.18124C38.1441 6.18124 37.747 6.23208 37.3717 6.16429C37.1066 6.11707 36.758 5.96454 36.6539 5.75632C36.5497 5.5481 36.6103 5.14619 36.7568 4.9416C37.8451 3.4199 38.9685 1.9212 40.0919 0.424915C40.5168 -0.141638 41.0023 -0.141638 41.4272 0.424915C42.5506 1.92241 43.674 3.4199 44.7624 4.94281C44.9088 5.1474 44.9694 5.55052 44.864 5.75874C44.7587 5.96696 44.4101 6.11708 44.1449 6.16671C43.7818 6.2345 43.3968 6.18366 42.9876 6.18366V18.4384C43.1753 18.4384 43.3653 18.4299 43.5542 18.4396C44.0517 18.4638 44.3483 18.7483 44.3459 19.1853C44.3435 19.6078 44.0663 19.8983 43.5844 19.9032C42.0894 19.9214 40.5955 19.9153 39.1005 19.9214C38.2252 19.925 37.3499 19.9419 36.4735 19.9431C33.9518 19.9456 31.4302 19.948 28.9085 19.9431C26.6133 19.9383 24.3192 19.9226 22.024 19.9117C21.9186 19.9117 21.8121 19.9117 21.7068 19.8996C21.2891 19.8499 21.0349 19.5788 21.0313 19.1902C21.0277 18.8016 21.2758 18.5038 21.6838 18.4517C21.9053 18.4239 22.1329 18.4469 22.4247 18.4469V17.9312C22.4247 16.5874 22.4223 15.2425 22.4247 13.8987C22.4259 13.13 22.6607 12.8988 23.4246 12.8975C24.2551 12.8975 25.0867 12.8951 25.9172 12.8975C26.5467 12.9 26.8046 13.1615 26.8082 13.8249C26.8155 15.1989 26.8094 16.5741 26.8118 17.9481C26.8118 18.0946 26.8251 18.2423 26.8336 18.4118H27.8263V17.936C27.8263 15.6105 27.8251 13.2849 27.8263 10.9582C27.8263 10.2004 28.0381 9.99215 28.7911 9.99094C29.6216 9.98973 30.4533 9.98852 31.2837 9.99094C31.9326 9.99336 32.1808 10.2415 32.182 10.8977C32.1844 13.2232 32.182 15.5487 32.182 17.8755C32.182 18.0401 32.182 18.2047 32.182 18.4021H33.1916V17.8791C33.1916 14.5718 33.1916 11.2645 33.1916 7.95716C33.1916 7.17028 33.4325 6.92696 34.2145 6.92575C35.0147 6.92333 35.8161 6.92212 36.6163 6.92575C37.2906 6.92938 37.5461 7.1836 37.5473 7.85669C37.5497 11.1797 37.5485 14.5016 37.5485 17.8246C37.5485 18.0038 37.5485 18.183 37.5485 18.3984H38.546H38.5484ZM41.4635 18.4009C41.4635 18.1902 41.4635 18.0111 41.4635 17.8331C41.4635 13.8769 41.4635 9.92073 41.4635 5.96454C41.4635 4.89802 41.5894 4.76485 42.6317 4.72006C42.6547 4.72006 42.6765 4.69101 42.7382 4.64864C42.0845 3.76855 41.4345 2.88966 40.7589 1.9793C40.081 2.8945 39.4297 3.77217 38.7615 4.67406C39.6242 4.80399 40.0556 5.29832 40.0556 6.15702C40.0556 10.0527 40.0556 13.9483 40.0556 17.8452C40.0556 18.0232 40.0556 18.1999 40.0556 18.4021H41.4635V18.4009ZM34.6794 18.4021H36.0679V8.42929H34.6794V18.4021ZM29.3177 11.4533V18.3948H30.6893V11.4533H29.3177ZM23.95 14.3636V18.4021H25.2998V14.3636H23.95Z" fill="#1A325D"/>
</svg>