<svg width="44" height="44" viewBox="0 0 44 44" fill="none" xmlns="http://www.w3.org/2000/svg">
<path d="M17.6017 22.4417C17.1617 23.3217 12.7613 23.3217 11.4412 23.3217C10.7745 23.3217 9.85214 20.7498 9.68392 18.0413C9.58566 16.4594 10.1211 14.8308 10.1211 13.641L11.4412 12.3209L14.0814 10.5607C15.8416 10.2674 19.4498 9.68066 19.8019 9.68066H24.2022L28.6026 10.5607L32.5629 12.3209L34.763 14.081V17.6013C34.4697 18.628 33.883 20.8575 33.883 21.5616C33.883 22.4417 32.1228 22.4417 31.6828 23.3217C31.2428 24.2018 29.4826 23.3217 29.0426 23.3217C28.6026 23.3217 26.8424 22.4417 25.9624 22.0016C25.2583 21.6496 24.4956 20.3882 24.2022 19.8015H22.002H19.8019C19.2152 20.3882 17.9537 21.7376 17.6017 22.4417Z" fill="#FFC907"/>
<path d="M43.9967 43.4811C43.7809 43.8749 43.4537 44.0034 43.0049 44.0034C29.0006 43.9954 14.9951 43.9966 0.990858 43.9966C0.230891 43.9966 -0.00674317 43.7543 0.000144752 42.9909C0.0162166 41.0175 1.38002 39.5538 3.45673 39.2783C7.20605 38.7801 10.8211 37.7859 14.3167 36.3475C14.5853 36.2373 14.7495 36.0984 14.7655 35.8045C14.8195 34.8482 14.893 33.8931 14.9182 32.9369C14.924 32.7187 14.8149 32.4581 14.6771 32.2802C12.8932 29.9865 11.891 27.4013 11.7613 24.4946C11.7429 24.0859 11.6338 23.8459 11.2355 23.6462C10.0875 23.0688 9.49285 22.0229 9.11631 20.8497C8.46425 18.8189 8.439 16.7296 8.70533 14.6437C8.85113 13.4991 9.51811 12.6072 10.5272 12.0171C10.8027 11.8564 10.9152 11.6819 10.9301 11.349C11.0851 7.94519 12.6624 5.38862 15.6748 3.81818C20.0233 1.5509 24.3983 1.61404 28.6746 4.02482C31.4906 5.61248 32.9072 8.11624 33.0667 11.3317C33.0828 11.6497 33.1632 11.838 33.4513 12.0091C34.5385 12.6554 35.2031 13.622 35.3271 14.8813C35.5234 16.8857 35.512 18.8878 34.884 20.8336C34.4662 22.1286 33.775 23.2077 32.4836 23.8241C32.3332 23.8953 32.2631 24.25 32.2517 24.4785C32.1449 26.6333 31.5617 28.6491 30.4907 30.5169C30.1359 31.1357 29.6871 31.6982 29.299 32.2986C29.1888 32.4696 29.0729 32.6854 29.0786 32.8772C29.1119 33.8759 29.1705 34.8758 29.2566 35.8723C29.2692 36.0238 29.4437 36.227 29.5929 36.2901C33.1046 37.7653 36.746 38.7744 40.5241 39.2749C42.3505 39.5171 43.5008 40.5193 43.929 42.2929C43.9416 42.3469 43.9738 42.3974 43.9967 42.4491V43.48V43.4811ZM10.0232 16.6802C10.0347 16.6802 10.0462 16.6802 10.0565 16.6802C10.0565 17.0384 10.037 17.3977 10.0599 17.7536C10.1357 18.944 10.2861 20.1219 10.844 21.201C11.17 21.8301 11.6327 22.3203 12.3341 22.5441C14.5256 23.241 17.3256 22.2273 18.5734 20.2837C20.0371 18.0027 23.8186 17.9533 25.358 20.185C26.7471 22.1986 28.6952 22.9574 31.0876 22.6739C31.975 22.5682 32.6431 22.1194 33.0702 21.3387C33.2412 21.0276 33.387 20.6959 33.4961 20.3584C33.9782 18.8614 33.9576 17.3162 33.9461 15.7664C33.9369 14.4933 33.4169 13.5898 32.2827 12.9952C27.8044 10.6475 23.1114 9.69587 18.0936 10.7176C15.723 11.2009 13.4523 11.939 11.3721 13.2064C10.6374 13.6541 10.192 14.2809 10.107 15.1385C10.0565 15.6505 10.0496 16.1671 10.0221 16.6814L10.0232 16.6802ZM30.7673 24.203C30.6939 24.1915 30.6537 24.1777 30.6135 24.1789C27.8882 24.2868 25.7036 23.2743 24.1412 21.015C23.1918 19.6432 20.7247 19.6604 19.8075 21.0885C19.0349 22.2927 17.9317 23.117 16.6172 23.6634C15.5439 24.11 14.42 24.2558 13.1905 24.1823C13.2491 24.7115 13.2709 25.2098 13.3639 25.6942C14.2524 30.3344 16.9215 33.5223 21.2631 35.3373C21.735 35.5347 22.2102 35.5451 22.6844 35.3591C26.7046 33.7749 29.2508 30.8556 30.4516 26.7354C30.6916 25.9135 30.8224 25.0686 30.7685 24.203H30.7673ZM9.78673 39.4884C10.2264 40.6433 10.8865 41.6145 11.8244 42.3848C11.9415 42.4812 12.1321 42.5271 12.2893 42.5271C18.7628 42.534 25.2363 42.5329 31.7098 42.5306C31.8338 42.5306 31.9922 42.5363 32.076 42.4674C33.061 41.673 33.7613 40.6754 34.2009 39.4873C32.8991 39.0659 31.6432 38.6584 30.3873 38.252C30.5894 38.5115 30.8247 38.7158 31.0761 38.8983C31.5296 39.229 31.6513 39.6101 31.4068 39.9901C31.1576 40.3758 30.7168 40.4206 30.2404 40.1072C28.9064 39.2301 28.1694 37.9547 27.856 36.4256C27.7056 35.692 27.6482 34.9401 27.5438 34.1606C27.4485 34.2364 27.3716 34.2938 27.2993 34.3558C26.0411 35.4245 24.6256 36.2144 23.0701 36.7585C22.3687 37.0042 21.6718 37.0156 20.967 36.7711C19.3954 36.227 17.9661 35.4337 16.6965 34.3546C16.6184 34.288 16.5289 34.2364 16.4221 34.1618C16.359 34.7817 16.3257 35.3545 16.2373 35.917C15.9652 37.6379 15.258 39.1096 13.7542 40.1037C13.2789 40.4171 12.8358 40.3724 12.5878 39.9878C12.3421 39.6078 12.4627 39.2324 12.9184 38.8983C13.1676 38.7158 13.3971 38.508 13.6359 38.3129C13.6176 38.2945 13.6003 38.275 13.582 38.2566C12.3341 38.6607 11.0863 39.0648 9.79018 39.485L9.78673 39.4884ZM31.5445 10.9759C31.5307 10.7589 31.5319 10.62 31.5101 10.4834C31.1576 8.24366 30.0315 6.49184 28.0811 5.34156C24.8437 3.43245 21.4193 3.15694 17.8823 4.38988C16.0834 5.01668 14.5474 6.02805 13.5062 7.67541C12.8863 8.65809 12.5396 9.7326 12.4443 10.9816C18.826 8.13346 25.164 8.14149 31.5434 10.9759H31.5445ZM34.2756 42.503H42.4412C42.3023 41.6455 41.6433 40.9808 40.7548 40.8086C39.1419 40.4963 37.5278 40.1921 35.9115 39.9017C35.8081 39.8833 35.6222 39.9832 35.5682 40.0796C35.1262 40.8763 34.7072 41.6845 34.2756 42.5019V42.503ZM1.56715 42.5065H9.71785C9.28391 41.6753 8.85571 40.843 8.408 40.0211C8.36667 39.9442 8.19906 39.8787 8.10607 39.8948C6.44723 40.1967 4.78955 40.5021 3.13645 40.8281C2.30531 40.9923 1.54993 41.8556 1.56715 42.5065Z" fill="#1A325D"/>
<path d="M43.9954 33.4281C43.7658 33.8161 43.5845 34.2443 43.2963 34.5818C42.906 35.0376 42.3412 35.1983 41.7477 35.2006C40.1015 35.2075 38.4541 35.2075 36.8079 35.2006C36.2638 35.1983 35.9308 34.9056 35.9297 34.4659C35.9285 34.025 36.2569 33.7392 36.8056 33.7369C38.3657 33.73 39.927 33.7358 41.4871 33.7335C42.3102 33.7335 42.5306 33.5107 42.5306 32.6888C42.5306 31.1849 42.5363 29.6822 42.5272 28.1784C42.5249 27.757 42.5455 27.3552 43.0116 27.1831C43.4478 27.0212 43.7383 27.2737 43.9954 27.5837V33.4269V33.4281Z" fill="#1A325D"/>
<path d="M7.56051 0C7.86702 0.208934 8.12991 0.445418 8.04955 0.867877C7.97723 1.24327 7.67991 1.46139 7.22416 1.46253C5.63649 1.46598 4.04883 1.46253 2.46116 1.46483C1.70005 1.46483 1.46355 1.70246 1.46355 2.46587C1.46355 4.02484 1.46355 5.58381 1.46355 7.14392C1.46355 7.71791 1.18575 8.0646 0.738033 8.06805C0.28917 8.07149 0.00216842 7.71906 0.00102043 7.1531C-0.00127554 5.66531 0.00102043 4.17752 0.00102043 2.68973C0.00102043 1.12158 0.370669 0.571697 1.80565 0.00114779H7.56281L7.56051 0Z" fill="#1A325D"/>
<path d="M43.9981 7.56308C43.6089 8.09345 43.1819 8.24039 42.8341 7.896C42.6653 7.72839 42.5505 7.42762 42.5471 7.18424C42.5218 5.6115 42.5344 4.03761 42.5333 2.46487C42.5333 1.70376 42.2956 1.46612 41.5334 1.46612C39.9882 1.46612 38.4441 1.46038 36.899 1.46957C36.4788 1.47186 36.1206 1.3961 35.9725 0.950678C35.8199 0.492632 36.0988 0.229743 36.4352 0.00244141H42.1923C43.1302 0.267626 43.7306 0.87032 43.997 1.80708V7.56423L43.9981 7.56308Z" fill="#1A325D"/>
<path d="M0.0012391 30.4985C0.0012391 29.6685 -0.00220374 28.8385 0.00238821 28.0085C0.00583217 27.4575 0.276757 27.1429 0.734804 27.1429C1.194 27.1429 1.46262 27.4552 1.46377 28.0085C1.46722 29.5973 1.46377 31.185 1.46607 32.7738C1.46607 33.4798 1.71173 33.7301 2.42234 33.7312C3.95375 33.7358 5.48517 33.7312 7.01543 33.7335C7.17271 33.7335 7.33229 33.7335 7.48612 33.7611C7.84429 33.8265 8.03486 34.0745 8.06011 34.4177C8.08537 34.7656 7.91201 35.0308 7.57335 35.141C7.41493 35.1926 7.23585 35.1995 7.06595 35.1995C5.52076 35.2041 3.97442 35.2053 2.42923 35.2007C0.897819 35.1961 0.00468418 34.2983 0.00238821 32.7715C0.00238821 32.0127 0.00238821 31.255 0.00238821 30.4962L0.0012391 30.4985Z" fill="#1A325D"/>
<path d="M5.84568 7.32535C5.16034 7.32535 4.47383 7.33109 3.78849 7.32305C3.2696 7.31731 2.95047 7.04524 2.93784 6.61704C2.92521 6.17966 3.26616 5.86396 3.79193 5.86052C5.17755 5.85248 6.56317 5.85248 7.94994 5.86052C8.48949 5.86396 8.8029 6.16129 8.79027 6.61934C8.77764 7.06131 8.47917 7.31617 7.9465 7.32191C7.24623 7.32879 6.54596 7.32305 5.84683 7.32305L5.84568 7.32535Z" fill="#1A325D"/>
<path d="M38.1111 7.32534C37.4109 7.32534 36.7106 7.33222 36.0115 7.32304C35.5144 7.31615 35.2228 7.04982 35.2113 6.62162C35.1987 6.1762 35.5006 5.86739 36.008 5.86395C37.4223 5.85362 38.8367 5.85362 40.251 5.86395C40.7446 5.86739 41.0752 6.19572 41.0626 6.61818C41.05 7.0326 40.7377 7.31615 40.2544 7.32189C39.5404 7.33108 38.8263 7.32419 38.1111 7.32419V7.32534Z" fill="#1A325D"/>
<path d="M5.84575 29.3242C5.1604 29.3242 4.4739 29.3288 3.78855 29.3219C3.26966 29.3162 2.95053 29.0452 2.9379 28.617C2.92413 28.1797 3.26507 27.8628 3.79085 27.8605C5.17647 27.8525 6.56208 27.8525 7.94885 27.8605C8.48841 27.864 8.80181 28.1613 8.78919 28.6193C8.77656 29.0613 8.47923 29.3173 7.94657 29.3219C7.2463 29.3288 6.54602 29.3231 5.8469 29.3231L5.84575 29.3242Z" fill="#1A325D"/>
<path d="M38.1548 29.324C37.4545 29.324 36.7542 29.3286 36.0551 29.3229C35.5224 29.3183 35.2239 29.0623 35.2113 28.6203C35.1987 28.1623 35.5121 27.8638 36.0505 27.8615C37.4361 27.8535 38.8217 27.8535 40.2085 27.8615C40.7343 27.8638 41.0764 28.1806 41.0626 28.6169C41.05 29.0439 40.7297 29.3171 40.2119 29.3229C39.5266 29.3298 38.8401 29.324 38.1548 29.3252V29.324Z" fill="#1A325D"/>
<path d="M8.772 4.39367C8.3151 4.39367 7.85821 4.40056 7.40246 4.39138C6.91456 4.38104 6.62183 4.10668 6.61724 3.67503C6.61265 3.25028 6.91341 2.94147 7.38638 2.93458C8.32773 2.92195 9.27023 2.9231 10.2116 2.93458C10.68 2.94032 10.9991 3.25028 11.0037 3.66011C11.0083 4.09175 10.6868 4.38564 10.184 4.39367C9.71335 4.40056 9.24267 4.39482 8.772 4.39482V4.39367Z" fill="#1A325D"/>
<path d="M35.1723 4.39254C34.7016 4.39254 34.231 4.40172 33.7603 4.39024C33.3103 4.37876 33.0118 4.09062 33.0003 3.68653C32.9888 3.27325 33.3022 2.94148 33.7637 2.93459C34.72 2.92082 35.6751 2.91967 36.6314 2.93459C37.0998 2.94148 37.3982 3.26292 37.3856 3.68882C37.3741 4.1021 37.0871 4.37876 36.6291 4.39024C36.1447 4.40172 35.659 4.39254 35.1734 4.39254H35.1723Z" fill="#1A325D"/>
<path d="M8.77082 32.2606C8.31278 32.2606 7.85359 32.2721 7.39669 32.2572C6.90305 32.2411 6.61491 31.9598 6.6172 31.5282C6.6195 31.1011 6.9111 30.8073 7.40243 30.7992C8.33345 30.7832 9.26446 30.7843 10.1943 30.7992C10.6983 30.8073 11.0163 31.1264 11.0014 31.5557C10.9876 31.9748 10.6857 32.2457 10.1886 32.2583C9.71678 32.2709 9.24379 32.2606 8.77082 32.2606Z" fill="#1A325D"/>
<path d="M35.1861 32.2593C34.7132 32.2593 34.2402 32.272 33.7684 32.2559C33.3057 32.2398 33.013 31.9574 33.0004 31.5533C32.9878 31.1378 33.292 30.8094 33.7661 30.8003C34.7109 30.7819 35.6568 30.783 36.6016 30.798C37.0941 30.806 37.3845 31.101 37.3857 31.5281C37.3857 31.9609 37.101 32.2398 36.6039 32.2559C36.1321 32.2708 35.6591 32.2593 35.1861 32.2593Z" fill="#1A325D"/>
<path d="M4.04322 4.39083C3.91465 4.39083 3.78493 4.39772 3.6575 4.38968C3.24308 4.36098 2.9469 4.0671 2.93771 3.68252C2.92853 3.30483 3.21897 2.97651 3.62421 2.93748C3.86528 2.91452 4.1098 2.92141 4.35202 2.93174C4.81811 2.9524 5.14069 3.26121 5.13724 3.66989C5.1338 4.08317 4.81352 4.37476 4.34285 4.39198C4.24297 4.39542 4.1431 4.39198 4.04322 4.39198V4.38968V4.39083Z" fill="#1A325D"/>
<path d="M39.9443 4.39093C39.2141 4.39322 38.8548 4.14985 38.8594 3.65966C38.8652 3.17062 39.2268 2.92839 39.9558 2.92954C40.0981 2.92954 40.2427 2.92036 40.3839 2.93873C40.7869 2.98924 41.075 3.31871 41.0601 3.6941C41.044 4.07753 40.7456 4.36452 40.33 4.39093C40.2014 4.39896 40.0728 4.39208 39.9443 4.39208V4.39093Z" fill="#1A325D"/>
<path d="M4.04562 32.2687C3.88834 32.2606 3.72992 32.2652 3.57609 32.2434C3.20529 32.1906 2.94815 31.9059 2.93782 31.5512C2.92749 31.201 3.16856 30.8796 3.53821 30.8279C3.8321 30.7866 4.13746 30.7843 4.43478 30.8073C4.85724 30.8406 5.1385 31.1517 5.1385 31.5328C5.1385 31.9323 4.84002 32.2227 4.39001 32.2572C4.27636 32.2664 4.16156 32.2583 4.04676 32.2583C4.04676 32.2618 4.04676 32.2652 4.04676 32.2687H4.04562Z" fill="#1A325D"/>
<path d="M39.9742 32.2614C39.2326 32.2614 38.8802 32.0341 38.8676 31.5474C38.8538 31.04 39.2211 30.792 39.9823 30.792C40.7066 30.792 41.0694 31.0411 41.0671 31.5347C41.0636 32.0272 40.7124 32.2614 39.9742 32.2626V32.2614Z" fill="#1A325D"/>
<path d="M11.7352 16.2129C11.5665 15.577 11.9522 15.0891 12.5285 14.7573C13.0657 14.4485 13.642 14.1948 14.2252 13.9813C14.6396 13.8297 15.0219 14.0731 15.1344 14.4588C15.2538 14.8721 15.046 15.228 14.596 15.3818C14.34 15.469 14.0806 15.5494 13.8326 15.655C13.3941 15.8421 13.1369 16.1154 13.1909 16.6641C13.2471 17.2404 12.9337 17.5848 12.486 17.5997C12.0245 17.6146 11.7456 17.2645 11.7364 16.6584C11.7352 16.5447 11.7364 16.4299 11.7364 16.2129H11.7352Z" fill="#1A325D"/>
</svg>
