<svg width="41" height="45" viewBox="0 0 41 45" fill="none" xmlns="http://www.w3.org/2000/svg">
<path d="M20.3465 44.9C17.1072 44.9 14.2048 42.4712 12.1066 38.4381C10.0103 34.4088 8.73086 28.8013 8.73086 22.5032C8.73086 16.2019 10.0103 10.5927 12.1066 6.56267C14.2048 2.52879 17.1072 0.1 20.3465 0.1C23.5824 0.1 26.4832 2.52874 28.5806 6.56266C30.6761 10.5927 31.9555 16.2019 31.9555 22.5032C31.9555 28.8013 30.6761 34.4088 28.5806 38.4381C26.4832 42.4713 23.5824 44.9 20.3465 44.9ZM20.3465 1.18355C17.416 1.18355 14.7956 3.60724 12.9137 7.4582C11.0286 11.3158 9.86714 16.6363 9.86714 22.5032C9.86714 28.3669 11.0369 33.6859 12.9261 37.5427C14.8121 41.3926 17.4325 43.8165 20.3465 43.8165C23.2737 43.8165 25.8925 41.3927 27.7735 37.5426C29.6578 33.6858 30.8192 28.3668 30.8192 22.5032C30.8192 16.6362 29.6495 11.3157 27.7611 7.45814C25.876 3.60743 23.2573 1.18355 20.3465 1.18355Z" fill="#1A325D" stroke="#1A325D" stroke-width="0.2"/>
<ellipse cx="20.0337" cy="23.4246" rx="2.77397" ry="2.77397" fill="#FFC907"/>
<path d="M0.911343 33.3536L0.911284 33.3535C-0.632235 30.7613 0.0840587 27.2499 2.57763 23.601C5.06787 19.9569 9.31418 16.204 14.7639 13.1554C20.2325 10.1099 25.7155 8.42153 30.2194 8.15202C34.7296 7.88212 38.2259 9.03497 39.7736 11.6289C41.3172 14.2243 40.6008 17.7372 38.1073 21.3861C35.6171 25.0301 31.3708 28.7816 25.9211 31.8271L25.921 31.8272C19.921 35.1943 13.9272 36.8863 9.21743 36.8863C5.31126 36.8863 2.31613 35.719 0.911343 33.3536ZM15.2933 14.0847L15.2933 14.0847C10.2986 16.8747 6.25518 20.4056 3.79864 23.8134C2.57044 25.5173 1.7361 27.1943 1.38048 28.7359C1.0247 30.2782 1.14714 31.6908 1.84152 32.8549C3.24739 35.2136 6.61043 36.1406 10.8504 35.7842C15.0999 35.4271 20.2707 33.7795 25.3536 30.9346C30.3483 28.1446 34.3918 24.6138 36.8483 21.2066C38.0765 19.5032 38.9108 17.8267 39.2664 16.286C39.6222 14.7448 39.4998 13.3335 38.8057 12.171C37.6063 10.1371 34.9178 9.17187 31.4992 9.17187C26.9744 9.17187 21.0926 10.8469 15.2933 14.0847Z" fill="#1A325D" stroke="#1A325D" stroke-width="0.2"/>
<path d="M25.9148 13.172L25.9149 13.1721C31.3668 16.2202 35.6149 19.9763 38.1062 23.6242C40.6009 27.2769 41.3175 30.7929 39.7733 33.3873L39.773 33.3879C38.4059 35.7175 35.3725 36.8863 31.4636 36.8863C26.7518 36.8863 20.7553 35.1928 14.7526 31.8595C9.30083 28.8084 5.06233 25.0524 2.57659 21.4053C0.0875936 17.7535 -0.62776 14.2389 0.900877 11.6442C2.44625 9.04799 5.94251 7.88513 10.4536 8.15065C14.9586 8.4158 20.4439 10.1055 25.9148 13.172ZM1.8256 12.1489L1.82559 12.1489L1.82485 12.1502C1.13982 13.3138 1.02468 14.7286 1.38594 16.2746C1.74706 17.8199 2.58525 19.5022 3.81631 21.2117C6.27857 24.6308 10.3237 28.1738 15.3205 30.9662C20.4057 33.8136 25.5788 35.4533 29.8301 35.8054C34.0718 36.1566 37.436 35.2273 38.8425 32.8823L38.8428 32.8816C39.5295 31.718 39.6454 30.3031 39.2851 28.7578C38.9248 27.2131 38.0876 25.5318 36.8586 23.8247C34.4003 20.4102 30.3632 16.8764 25.3855 14.1025C19.6213 10.8248 13.699 9.1485 9.17244 9.1485C5.75176 9.1485 3.06342 10.1149 1.8256 12.1489Z" fill="#1A325D" stroke="#1A325D" stroke-width="0.2"/>
<path d="M18.6264 29.5726H18.6265L18.6264 29.5688L18.5875 28.5227L18.5851 28.4571L18.5239 28.4333C18.4204 28.3928 18.317 28.3536 18.2156 28.315C18.0216 28.2413 17.8345 28.1702 17.6655 28.0985L17.6069 28.0737L17.5596 28.1163L16.7708 28.8256C16.5463 29.015 16.1972 29.0062 16.0192 28.7973L16.0194 28.7971L16.0137 28.7914L14.3627 27.1447L14.3618 27.1438C14.1365 26.9246 14.1351 26.6108 14.3282 26.3841L15.0393 25.6039L15.088 25.5505L15.0526 25.4875C14.9088 25.2319 14.8015 24.9432 14.7255 24.6523L14.7067 24.5805L14.6324 24.5777L13.5835 24.539L13.5835 24.5389H13.5798C13.2981 24.5389 13.0453 24.2864 13.0453 24.006V21.6877C13.0453 21.4034 13.2633 21.1549 13.5798 21.1549V21.1552L13.5872 21.1546L14.6361 21.0771L14.7002 21.0724L14.7225 21.0121C14.8324 20.7156 14.9483 20.4138 15.0574 20.1577L15.0826 20.0985L15.0391 20.051L14.2898 19.2327C14.0997 19.0023 14.1082 18.66 14.3189 18.4761L14.3191 18.4763L14.3238 18.4716L15.9748 16.8249C16.1947 16.6055 16.5109 16.6038 16.7388 16.791L17.5204 17.4998L17.5737 17.5481L17.6364 17.513C17.8928 17.3695 18.1822 17.2626 18.4739 17.1867L18.5459 17.1679L18.5487 17.0936L18.5875 16.0475L18.5876 16.0475V16.0437C18.5876 15.7634 18.8404 15.5109 19.1221 15.5109H21.4465C21.7323 15.5109 21.981 15.7286 21.981 16.0437H21.9809L21.9811 16.0475L22.0199 17.0936L22.0224 17.1597L22.0842 17.1833C22.1498 17.2084 22.215 17.2331 22.2794 17.2575C22.515 17.3469 22.7403 17.4323 22.942 17.5178L23.0005 17.5426L23.0478 17.5L23.8366 16.7907C24.0605 16.6019 24.4107 16.6092 24.5957 16.82L24.5955 16.8202L24.6001 16.8247L26.2447 18.4715L26.2447 18.4715L26.2457 18.4725C26.4714 18.6921 26.4724 19.0066 26.2783 19.2334L26.2766 19.2354L25.6421 20.0167L25.5993 20.0695L25.6326 20.1288C25.7764 20.3844 25.8836 20.6731 25.9597 20.964L25.9778 21.0331L26.0491 21.0384L27.098 21.1159L27.0979 21.1161H27.1053C27.387 21.1161 27.6398 21.3687 27.6398 21.649V23.9673C27.6398 24.2517 27.4219 24.5002 27.1053 24.5002V24.5001L27.1016 24.5002L26.0527 24.539L25.9873 24.5414L25.9633 24.6024C25.9228 24.7057 25.8834 24.8088 25.8448 24.91C25.7709 25.1034 25.6996 25.29 25.6278 25.4586L25.6027 25.5174L25.6456 25.5648L26.3568 26.3515C26.5459 26.5746 26.5386 26.9235 26.3274 27.1079L26.3272 27.1077L26.3226 27.1123L24.6716 28.7525L24.6716 28.7525L24.6706 28.7535C24.4506 28.9784 24.1356 28.9798 23.9081 28.787L23.1258 28.0778L23.0726 28.0295L23.0099 28.0646C22.7535 28.208 22.4641 28.315 22.1724 28.3909L22.1004 28.4096L22.0976 28.484L22.0589 29.5272C22.0234 29.892 21.7653 30.1054 21.4853 30.1054H19.161C18.8752 30.1054 18.6264 29.8877 18.6264 29.5726ZM19.7027 28.9133L19.7136 29.001H19.8019H20.8508H20.9473L20.9508 28.9046L20.9831 28.0069L20.9832 28.007V28.0033C20.9832 27.7634 21.1665 27.5693 21.3997 27.4998C21.9335 27.3876 22.3897 27.1964 22.8126 26.9266C23.0314 26.8021 23.2827 26.8328 23.4792 26.9944L24.1511 27.5936L24.2215 27.6564L24.2883 27.5898L25.0393 26.8407L25.1064 26.7738L25.0431 26.7032L24.4423 26.033C24.2821 25.8391 24.2548 25.5886 24.3812 25.3618C24.6467 24.944 24.8376 24.4433 24.9558 23.952L24.9559 23.9519C25.017 23.6969 25.2056 23.5442 25.4543 23.5442V23.5443L25.4586 23.5441L26.3586 23.5054L26.4543 23.5013V23.4055V22.2883V22.1925L26.3586 22.1884L25.4586 22.1497L25.4586 22.1496H25.4543C25.2122 22.1496 25.0185 21.9652 24.9557 21.7409C24.8368 21.2088 24.6453 20.7474 24.3811 20.3254C24.2552 20.1057 24.2816 19.8553 24.4423 19.6608L25.0431 18.9906L25.1064 18.92L25.0393 18.8531L24.2883 18.104L24.2215 18.0374L24.1511 18.1001L23.4792 18.6994C23.284 18.8598 23.0326 18.8862 22.8121 18.7605C22.3873 18.496 21.8919 18.3054 21.3986 18.1873L21.398 18.1872C21.1354 18.1259 20.9832 17.9374 20.9832 17.6904H20.9833L20.9831 17.6871L20.9508 16.712L20.9476 16.6153H20.8508H19.7631H19.6672L19.6632 16.7112L19.6243 17.6476L19.6242 17.6476V17.6517C19.6242 17.8919 19.4406 18.0859 19.2139 18.1553C18.6804 18.2675 18.2178 18.4585 17.8012 18.7221C17.5756 18.8531 17.3244 18.8219 17.1283 18.6607L16.4564 18.0614L16.386 17.9986L16.3192 18.0652L15.5681 18.8143L15.501 18.8813L15.5643 18.9519L16.1651 19.622C16.3267 19.8175 16.3579 20.0677 16.2267 20.2924C15.9613 20.71 15.7702 21.2106 15.6582 21.7027C15.5906 21.9587 15.4011 22.1108 15.1532 22.1108V22.1105L15.1449 22.1112L14.2061 22.1886L14.1143 22.1962V22.2883V23.3667V23.4625L14.21 23.4666L15.11 23.5054L15.11 23.5055H15.1143C15.3615 23.5055 15.5499 23.6883 15.6195 23.9147C15.7319 24.4463 15.9233 24.9077 16.1941 25.3235C16.3193 25.5486 16.2876 25.7991 16.1263 25.9943L15.5255 26.6644L15.4622 26.735L15.5293 26.802L16.2803 27.5511L16.3471 27.6177L16.4175 27.5549L17.0894 26.9556C17.2839 26.7958 17.5354 26.7684 17.7631 26.8947C18.1816 27.1592 18.6832 27.3496 19.1761 27.4612C19.4332 27.5287 19.5854 27.7178 19.5854 27.9646H19.5846L19.5862 27.9769L19.7027 28.9133Z" fill="#1A325D" stroke="#1A325D" stroke-width="0.2"/>
<path d="M20.3465 26.4069C18.3323 26.4069 16.7445 24.9046 16.7445 23.1135C16.7445 21.3291 18.371 19.8261 20.3465 19.8261C22.354 19.8261 23.9418 21.3284 23.9418 23.1135C23.9418 24.9047 22.3539 26.4069 20.3465 26.4069ZM20.3465 20.8156C19.0019 20.8156 17.8817 21.8305 17.8817 23.0833C17.8817 24.3302 19.0021 25.3449 20.3465 25.3449C21.6844 25.3449 22.8046 24.33 22.8046 23.0833C22.8046 21.8307 21.6846 20.8156 20.3465 20.8156Z" fill="#1A325D" stroke="#1A325D" stroke-width="0.2"/>
</svg>
