<svg width="31" height="31" viewBox="0 0 31 31" fill="none" xmlns="http://www.w3.org/2000/svg">
<path d="M15.0191 4.23773C9.66433 4.23773 5.30859 8.59346 5.30859 13.9482C5.30859 15.4722 6.55896 16.7226 8.08301 16.7226C8.81872 16.7226 9.5122 16.4324 10.0406 15.949L10.0433 15.9465L10.0461 15.9438C10.4603 15.5562 10.999 15.3355 11.551 15.3356C12.7085 15.3356 13.6319 16.2589 13.6319 17.4163C13.6319 17.9685 13.4114 18.5068 13.0236 18.9214L13.0208 18.9267L13.018 18.9292C12.5353 19.4563 12.2446 20.1488 12.2446 20.8842C12.2446 22.4082 13.495 23.6586 15.0191 23.6586C20.3738 23.6586 24.7295 19.3029 24.7295 13.9482C24.7295 8.59346 20.3738 4.23773 15.0191 4.23773ZM15.0191 5.62496C19.6241 5.62496 23.3423 9.34316 23.3423 13.9482C23.3423 18.5532 19.6241 22.2714 15.0191 22.2714C14.2447 22.2714 13.6318 21.6585 13.6318 20.8842C13.6318 20.5161 13.7799 20.1512 14.0423 19.8642C14.6575 19.2039 15.0191 18.3332 15.0191 17.4162C15.0191 15.509 13.4582 13.9482 11.551 13.9482C10.6346 13.9482 9.76453 14.3106 9.10445 14.9249C8.81756 15.1874 8.45127 15.3354 8.08301 15.3354C7.30866 15.3354 6.6958 14.7225 6.6958 13.9482C6.6958 9.34316 10.414 5.62496 15.0191 5.62496ZM12.2446 8.39934C11.1037 8.39934 10.1638 9.33913 10.1638 10.4801C10.1638 11.6211 11.1037 12.561 12.2446 12.561C13.3856 12.561 14.3254 11.6211 14.3254 10.4801C14.3254 9.33913 13.3856 8.39934 12.2446 8.39934ZM17.7935 9.09296C16.6525 9.09296 15.7127 10.0328 15.7127 11.1738C15.7127 12.3148 16.6525 13.2546 17.7935 13.2546C18.9345 13.2546 19.8743 12.3148 19.8743 11.1738C19.8743 10.0328 18.9345 9.09296 17.7935 9.09296ZM12.2446 9.78657C12.6359 9.78657 12.9382 10.0888 12.9382 10.4801C12.9382 10.8714 12.6359 11.1738 12.2446 11.1738C11.8534 11.1738 11.551 10.8714 11.551 10.4801C11.551 10.0888 11.8534 9.78657 12.2446 9.78657ZM17.7935 10.4801C18.1848 10.4801 18.4871 10.7825 18.4871 11.1738C18.4871 11.5651 18.1848 11.8673 17.7935 11.8673C17.4022 11.8673 17.0999 11.5651 17.0999 11.1738C17.0999 10.7825 17.4022 10.4801 17.7935 10.4801ZM18.4871 14.6418C17.3461 14.6418 16.4063 15.5816 16.4063 16.7226C16.4063 17.8635 17.3461 18.8034 18.4871 18.8034C19.6281 18.8034 20.5679 17.8635 20.5679 16.7226C20.5679 15.5816 19.6281 14.6418 18.4871 14.6418ZM18.4871 16.029C18.8784 16.029 19.1807 16.3313 19.1807 16.7226C19.1807 17.1138 18.8784 17.4162 18.4871 17.4162C18.0958 17.4162 17.7935 17.1138 17.7935 16.7226C17.7935 16.3313 18.0958 16.029 18.4871 16.029Z" fill="#1A325D"/>
</svg>
