<svg width="44" height="44" viewBox="0 0 44 44" fill="none" xmlns="http://www.w3.org/2000/svg">
<rect x="21.0312" y="0.955811" width="4.77874" height="36.3184" fill="#FFC907"/>
<path d="M10.0921 37.5716C10.0921 39.1935 10.0921 40.7351 10.0921 42.2782C10.0921 43.0968 9.83888 43.2754 9.05259 43.0138C8.27192 42.7536 7.49688 42.4709 6.70777 42.2388C6.46021 42.1656 6.15497 42.1684 5.90741 42.2416C5.1183 42.4723 4.34326 42.7536 3.56259 43.0138C2.7777 43.274 2.52029 43.094 2.51889 42.2796C2.51748 40.7379 2.51889 39.1949 2.51889 37.573C1.92389 37.573 1.35281 37.5773 0.781723 37.573C0.175475 37.5674 0.00105496 37.4 0.00105496 36.7882C-0.000351652 24.7841 -0.000351652 12.7844 0.00105496 0.783153C0.00105496 0.179718 0.179694 0.00529834 0.79157 0.00529834C9.23123 0.00389172 17.6695 -0.00876764 26.1091 0.0109249C29.1713 0.017958 31.4514 2.33183 31.4557 5.40246C31.4683 14.333 31.4683 23.2636 31.4557 32.1928C31.4514 35.2775 29.1305 37.5646 26.0416 37.5688C20.9539 37.5759 15.8662 37.5702 10.7771 37.5702C10.5703 37.5702 10.3621 37.5702 10.0921 37.5702V37.5716ZM1.11228 36.466H20.4672V1.12496H1.11228V36.466ZM21.6024 1.12355V36.4618H25.4058V1.12355H21.6024ZM26.541 1.16575V36.4534C26.7731 36.4182 26.9798 36.4041 27.1782 36.3549C29.1713 35.857 30.381 34.2084 30.3824 31.9761C30.3852 23.1862 30.3838 14.3977 30.381 5.60783C30.381 5.27587 30.3557 4.94109 30.3107 4.61195C30.0575 2.75803 28.2753 1.12355 26.541 1.16716V1.16575ZM8.98929 41.8477V37.6124H3.63292V41.8505C4.23354 41.6494 4.79056 41.5017 5.31523 41.278C5.98477 40.9939 6.61634 40.9813 7.2887 41.271C7.81337 41.4975 8.3732 41.6438 8.98929 41.8491V41.8477Z" fill="#1A325D"/>
<path d="M43.1444 22.9278C43.1444 27.6456 43.1444 32.3647 43.1444 37.0825C43.1444 37.4398 43.157 37.7802 42.7646 37.9884C42.6746 38.0362 42.638 38.25 42.6352 38.3892C42.6225 39.0729 42.6352 39.7579 42.6281 40.4415C42.6113 41.955 41.538 43.0915 40.0386 43.1366C38.9878 43.1689 37.9329 43.1689 36.8821 43.1366C35.3996 43.0915 34.3263 41.9733 34.301 40.4921C34.2912 39.9492 34.301 39.4048 34.2982 38.8605C34.2954 38.4596 34.4051 38.0418 33.924 37.7675C33.7989 37.6958 33.7904 37.3526 33.7904 37.1346C33.7834 32.3282 33.7848 27.5232 33.7848 22.7168C33.7848 18.1383 33.7693 13.5612 33.8031 8.98266C33.8073 8.33702 33.9578 7.65482 34.1997 7.0542C34.9663 5.15527 35.8216 3.29151 36.6149 1.40244C36.9679 0.562691 37.5264 0.0155192 38.4604 0.012706C39.3958 0.00989281 39.9556 0.561284 40.3072 1.39962C41.109 3.30417 41.967 5.18481 42.7407 7.09921C42.977 7.68436 43.1205 8.34968 43.1247 8.97844C43.1556 13.6259 43.1416 18.2747 43.1416 22.9222L43.1444 22.9278ZM34.8974 12.118V32.7023H42.0261V12.1321C41.6069 12.3867 41.2722 12.6483 40.8938 12.796C40.6533 12.8902 40.3044 12.9001 40.078 12.7932C39.5266 12.5329 39.016 11.9309 38.4927 11.9351C37.9469 11.9408 37.4251 12.5343 36.8554 12.7904C36.6149 12.8987 36.2506 12.8691 35.9932 12.7707C35.626 12.63 35.3053 12.3698 34.8974 12.118ZM35.3686 38.0263C35.3686 38.8323 35.3574 39.6468 35.3714 40.4612C35.3869 41.3769 35.9974 42.0239 36.9173 42.0507C37.9498 42.0802 38.985 42.0788 40.0189 42.0507C40.8192 42.0281 41.4424 41.533 41.5099 40.7608C41.5887 39.8634 41.5282 38.9547 41.5282 38.0278H35.3686V38.0263ZM42.0233 33.8403H34.8932V36.9025H42.0233V33.8403ZM42.0585 8.88701H34.8566C34.8566 9.40745 34.8749 9.89414 34.8496 10.3794C34.8341 10.6959 34.9677 10.8563 35.2069 11.0588C36.0241 11.7452 36.7935 11.8662 37.615 11.0785C38.1495 10.5651 38.6742 10.627 39.2973 11.0433C40.5618 11.8887 40.5872 11.855 41.8123 10.9772C41.915 10.9041 42.043 10.7747 42.0472 10.6678C42.0697 10.0784 42.0585 9.48763 42.0585 8.88701ZM35.0564 7.74906H41.8658C41.4733 6.83617 41.1118 5.96689 40.718 5.11307C40.6645 4.99773 40.4535 4.89083 40.3129 4.88942C39.0863 4.87254 37.8597 4.87254 36.6346 4.88942C36.4911 4.89083 36.2689 4.98226 36.2182 5.09479C35.8159 5.96267 35.4474 6.84602 35.0564 7.75047V7.74906ZM36.7809 3.74866H40.1413C39.8023 2.97221 39.5153 2.24218 39.1693 1.54028C38.8767 0.948102 38.0735 0.922783 37.7782 1.50231C37.4152 2.21264 37.1269 2.96096 36.7823 3.74866H36.7809Z" fill="#1A325D"/>
</svg>
