<svg width="45" height="44" viewBox="0 0 45 44" fill="none" xmlns="http://www.w3.org/2000/svg">
<path d="M11.7656 15V24L17.2656 24.5L19.7656 26L26.7656 28.5L27.2656 30.5V32L26.7656 35.5L29.7656 36L34.7656 34.5V19.5H27.2656L26.7656 9H19.2656L18.7656 15H11.7656Z" fill="#FFC907"/>
<mask id="path-2-inside-1_1871_868" fill="white">
<path d="M0.00175954 22.2314C0.273757 21.7675 0.676035 21.6064 1.21123 21.6205C2.26489 21.6486 3.31943 21.6284 4.37397 21.6284H4.69262C4.68206 20.1126 4.60636 18.6382 4.67766 17.1708C4.78241 15.0177 5.3757 12.9694 6.27092 11.0108C6.50594 10.4976 6.99889 10.3048 7.4663 10.5143C7.92315 10.7185 8.11328 11.2221 7.88266 11.7361C7.22511 13.1982 6.76034 14.7149 6.54027 16.3037C6.30525 17.9974 6.31845 19.6901 6.60189 21.3758C6.61862 21.4744 6.80083 21.6108 6.9135 21.6187C8.34127 21.7217 8.41961 21.8 8.42665 23.241C8.42665 23.3836 8.43898 23.5262 8.44602 23.6917H10.3703C10.3703 23.5218 10.3703 23.3528 10.3703 23.1847C10.3703 20.6064 10.3703 18.029 10.3703 15.4508C10.3703 14.3452 10.5754 14.1366 11.6642 14.1366C13.6562 14.1366 15.6474 14.1366 17.6394 14.1366H18.1728C18.1807 13.964 18.1939 13.8109 18.1939 13.6568C18.1957 12.2361 18.1931 10.8154 18.1957 9.39465C18.1975 8.71333 18.539 8.35947 19.2168 8.36035C21.7211 8.36387 24.2245 8.37092 26.7289 8.38764C27.4832 8.39292 27.7825 8.70981 27.7834 9.47563C27.7869 12.3321 27.7852 15.1885 27.7852 18.044C27.7852 18.2183 27.7852 18.3926 27.7852 18.6197C27.9779 18.6285 28.1461 18.6435 28.3133 18.6435C30.3344 18.6452 32.3554 18.6435 34.3765 18.6443C35.35 18.6443 35.6203 18.9181 35.6203 19.9049C35.6203 22.8194 35.6203 25.7348 35.6203 28.6493C35.6203 28.8033 35.6203 28.9574 35.6203 29.1123L35.7356 29.1537C36.0771 28.6889 36.4442 28.24 36.7567 27.7567C39.0049 24.2762 39.8561 20.4788 39.3015 16.3698C39.2548 16.0229 39.1906 15.6779 39.1299 15.3328C39.0198 14.7052 39.2813 14.2369 39.7962 14.1436C40.3499 14.0441 40.7478 14.332 40.8639 14.9702C42.0144 21.2957 40.4423 26.8201 35.9741 31.4784C35.7189 31.7443 35.5886 31.9925 35.6132 32.3604C35.6423 32.7962 35.6203 33.2363 35.6203 33.7398C36.3527 33.5752 37.0428 33.4203 37.732 33.2645C38.6149 33.0646 39.496 32.8551 40.3816 32.6659C42.3736 32.2398 44.3656 33.4784 44.8753 35.451C45.3884 37.436 44.2767 39.5046 42.3032 40.06C40.0418 40.6964 37.7567 41.2483 35.4777 41.8214C33.8924 42.2201 32.3105 42.6365 30.7102 42.9684C28.7658 43.3715 26.8697 43.0854 25.0335 42.3663C20.722 40.6779 16.4132 38.9843 12.0999 37.3013C11.8755 37.2133 11.6211 37.1675 11.379 37.164C10.4151 37.149 9.45039 37.1578 8.42402 37.1578C8.42402 37.4307 8.43282 37.6745 8.42225 37.9175C8.39673 38.4984 8.05431 38.8435 7.47863 38.8452C5.29648 38.8505 3.11433 38.8382 0.932187 38.8549C0.48942 38.8585 0.256153 38.5891 0 38.3171V22.2314H0.00175954ZM8.45306 25.4786V35.3647C9.50056 35.3647 10.5225 35.3498 11.5427 35.3735C11.8711 35.3815 12.2153 35.4422 12.5207 35.561C16.9149 37.2722 21.3039 38.9958 25.6928 40.7193C27.3723 41.3786 29.102 41.5714 30.8546 41.1418C34.4698 40.2563 38.0753 39.332 41.6799 38.4042C42.8199 38.1111 43.4352 37.017 43.1517 35.8894C42.8806 34.8102 41.7988 34.1579 40.6756 34.4132C37.9855 35.0241 35.2911 35.6191 32.6089 36.267C30.3969 36.8013 28.2112 36.8585 26.0458 36.0909C25.0555 35.7397 24.0793 35.3489 23.0978 34.9713C21.1489 34.2222 19.2001 33.4748 17.2538 32.7187C16.5945 32.4625 16.3709 31.8842 16.7045 31.3631C16.9484 30.982 17.3727 30.8754 17.907 31.0788C19.803 31.8015 21.6894 32.5532 23.5987 33.2372C24.0282 33.3912 24.5573 33.4176 25.0071 33.3296C25.9525 33.1465 26.6426 32.2733 26.7157 31.3376C26.7931 30.3455 26.2667 29.4899 25.3029 29.0877C22.4852 27.9134 19.6648 26.7462 16.8427 25.5842C16.6729 25.5147 16.4757 25.483 16.2917 25.483C13.8032 25.4769 11.3139 25.4786 8.82541 25.4786H8.45306ZM25.9806 27.446V10.1746H19.9536V10.7238C19.9536 15.045 19.9536 19.3653 19.9536 23.6864C19.9536 24.0957 19.8189 24.6072 20.0117 24.8871C20.2168 25.1846 20.7352 25.2718 21.1243 25.4346C22.7255 26.1027 24.3302 26.7638 25.9798 27.446H25.9806ZM33.8052 34.1614V20.4735H27.8125C27.801 20.5659 27.7869 20.6223 27.7869 20.6795C27.7852 23.329 27.7825 25.9777 27.7913 28.6273C27.7913 28.7901 27.8679 28.9653 27.9498 29.1123C28.6909 30.452 28.6355 31.7751 27.9797 33.1395C27.7966 33.5197 27.75 34.0223 27.8063 34.4466C27.8952 35.1183 28.5422 34.7107 28.904 34.8876C28.9515 34.9114 29.0193 34.8903 29.0783 34.8947C30.7006 35.01 32.2252 34.4942 33.8052 34.1623V34.1614ZM1.78691 23.44V37.0707H6.6195V23.44H1.78691ZM18.164 24.1415V15.9323H12.1536V23.7155C13.0559 23.7155 13.9318 23.7128 14.8067 23.7155C15.9246 23.719 17.0628 23.5826 18.1041 24.16C18.1129 24.1644 18.1314 24.1521 18.1649 24.1406L18.164 24.1415Z"/>
</mask>
<path d="M0.00175954 22.2314C0.273757 21.7675 0.676035 21.6064 1.21123 21.6205C2.26489 21.6486 3.31943 21.6284 4.37397 21.6284H4.69262C4.68206 20.1126 4.60636 18.6382 4.67766 17.1708C4.78241 15.0177 5.3757 12.9694 6.27092 11.0108C6.50594 10.4976 6.99889 10.3048 7.4663 10.5143C7.92315 10.7185 8.11328 11.2221 7.88266 11.7361C7.22511 13.1982 6.76034 14.7149 6.54027 16.3037C6.30525 17.9974 6.31845 19.6901 6.60189 21.3758C6.61862 21.4744 6.80083 21.6108 6.9135 21.6187C8.34127 21.7217 8.41961 21.8 8.42665 23.241C8.42665 23.3836 8.43898 23.5262 8.44602 23.6917H10.3703C10.3703 23.5218 10.3703 23.3528 10.3703 23.1847C10.3703 20.6064 10.3703 18.029 10.3703 15.4508C10.3703 14.3452 10.5754 14.1366 11.6642 14.1366C13.6562 14.1366 15.6474 14.1366 17.6394 14.1366H18.1728C18.1807 13.964 18.1939 13.8109 18.1939 13.6568C18.1957 12.2361 18.1931 10.8154 18.1957 9.39465C18.1975 8.71333 18.539 8.35947 19.2168 8.36035C21.7211 8.36387 24.2245 8.37092 26.7289 8.38764C27.4832 8.39292 27.7825 8.70981 27.7834 9.47563C27.7869 12.3321 27.7852 15.1885 27.7852 18.044C27.7852 18.2183 27.7852 18.3926 27.7852 18.6197C27.9779 18.6285 28.1461 18.6435 28.3133 18.6435C30.3344 18.6452 32.3554 18.6435 34.3765 18.6443C35.35 18.6443 35.6203 18.9181 35.6203 19.9049C35.6203 22.8194 35.6203 25.7348 35.6203 28.6493C35.6203 28.8033 35.6203 28.9574 35.6203 29.1123L35.7356 29.1537C36.0771 28.6889 36.4442 28.24 36.7567 27.7567C39.0049 24.2762 39.8561 20.4788 39.3015 16.3698C39.2548 16.0229 39.1906 15.6779 39.1299 15.3328C39.0198 14.7052 39.2813 14.2369 39.7962 14.1436C40.3499 14.0441 40.7478 14.332 40.8639 14.9702C42.0144 21.2957 40.4423 26.8201 35.9741 31.4784C35.7189 31.7443 35.5886 31.9925 35.6132 32.3604C35.6423 32.7962 35.6203 33.2363 35.6203 33.7398C36.3527 33.5752 37.0428 33.4203 37.732 33.2645C38.6149 33.0646 39.496 32.8551 40.3816 32.6659C42.3736 32.2398 44.3656 33.4784 44.8753 35.451C45.3884 37.436 44.2767 39.5046 42.3032 40.06C40.0418 40.6964 37.7567 41.2483 35.4777 41.8214C33.8924 42.2201 32.3105 42.6365 30.7102 42.9684C28.7658 43.3715 26.8697 43.0854 25.0335 42.3663C20.722 40.6779 16.4132 38.9843 12.0999 37.3013C11.8755 37.2133 11.6211 37.1675 11.379 37.164C10.4151 37.149 9.45039 37.1578 8.42402 37.1578C8.42402 37.4307 8.43282 37.6745 8.42225 37.9175C8.39673 38.4984 8.05431 38.8435 7.47863 38.8452C5.29648 38.8505 3.11433 38.8382 0.932187 38.8549C0.48942 38.8585 0.256153 38.5891 0 38.3171V22.2314H0.00175954ZM8.45306 25.4786V35.3647C9.50056 35.3647 10.5225 35.3498 11.5427 35.3735C11.8711 35.3815 12.2153 35.4422 12.5207 35.561C16.9149 37.2722 21.3039 38.9958 25.6928 40.7193C27.3723 41.3786 29.102 41.5714 30.8546 41.1418C34.4698 40.2563 38.0753 39.332 41.6799 38.4042C42.8199 38.1111 43.4352 37.017 43.1517 35.8894C42.8806 34.8102 41.7988 34.1579 40.6756 34.4132C37.9855 35.0241 35.2911 35.6191 32.6089 36.267C30.3969 36.8013 28.2112 36.8585 26.0458 36.0909C25.0555 35.7397 24.0793 35.3489 23.0978 34.9713C21.1489 34.2222 19.2001 33.4748 17.2538 32.7187C16.5945 32.4625 16.3709 31.8842 16.7045 31.3631C16.9484 30.982 17.3727 30.8754 17.907 31.0788C19.803 31.8015 21.6894 32.5532 23.5987 33.2372C24.0282 33.3912 24.5573 33.4176 25.0071 33.3296C25.9525 33.1465 26.6426 32.2733 26.7157 31.3376C26.7931 30.3455 26.2667 29.4899 25.3029 29.0877C22.4852 27.9134 19.6648 26.7462 16.8427 25.5842C16.6729 25.5147 16.4757 25.483 16.2917 25.483C13.8032 25.4769 11.3139 25.4786 8.82541 25.4786H8.45306ZM25.9806 27.446V10.1746H19.9536V10.7238C19.9536 15.045 19.9536 19.3653 19.9536 23.6864C19.9536 24.0957 19.8189 24.6072 20.0117 24.8871C20.2168 25.1846 20.7352 25.2718 21.1243 25.4346C22.7255 26.1027 24.3302 26.7638 25.9798 27.446H25.9806ZM33.8052 34.1614V20.4735H27.8125C27.801 20.5659 27.7869 20.6223 27.7869 20.6795C27.7852 23.329 27.7825 25.9777 27.7913 28.6273C27.7913 28.7901 27.8679 28.9653 27.9498 29.1123C28.6909 30.452 28.6355 31.7751 27.9797 33.1395C27.7966 33.5197 27.75 34.0223 27.8063 34.4466C27.8952 35.1183 28.5422 34.7107 28.904 34.8876C28.9515 34.9114 29.0193 34.8903 29.0783 34.8947C30.7006 35.01 32.2252 34.4942 33.8052 34.1623V34.1614ZM1.78691 23.44V37.0707H6.6195V23.44H1.78691ZM18.164 24.1415V15.9323H12.1536V23.7155C13.0559 23.7155 13.9318 23.7128 14.8067 23.7155C15.9246 23.719 17.0628 23.5826 18.1041 24.16C18.1129 24.1644 18.1314 24.1521 18.1649 24.1406L18.164 24.1415Z" fill="#1A325D" stroke="white" stroke-width="0.4" mask="url(#path-2-inside-1_1871_868)"/>
<path d="M28.6768 3.04024L28.6767 3.04023C24.3284 1.49281 20.0508 1.68152 15.854 3.59182L15.854 3.59183C14.425 4.2425 13.1345 5.11249 11.9473 6.13515L11.9473 6.13519C11.7768 6.28216 11.5882 6.41764 11.3964 6.47211L11.3962 6.47217C11.038 6.57473 10.696 6.39279 10.5334 6.05261C10.4507 5.87888 10.4319 5.70833 10.4716 5.54651C10.5115 5.38382 10.6127 5.22173 10.784 5.07019L10.784 5.07019C11.9009 4.08204 13.1098 3.22693 14.4327 2.54102L14.4327 2.541C17.1832 1.11364 19.8778 0.458096 22.9816 0.44668C25.1239 0.448456 27.2009 0.812631 29.2095 1.56095C29.5178 1.67581 29.7197 1.83249 29.825 2.0099C29.9284 2.18408 29.9463 2.39111 29.8616 2.62789C29.7788 2.85786 29.6276 3.00818 29.4308 3.07935C29.2314 3.15145 28.974 3.14615 28.6768 3.04024Z" fill="#1A325D" stroke="white" stroke-width="0.2"/>
<path d="M39.181 3.03846L39.1395 3.12943C39.2523 3.18093 39.3541 3.27103 39.4574 3.38292C39.5071 3.43675 39.5556 3.49374 39.6054 3.55238L39.6103 3.55823C39.6611 3.61798 39.7134 3.67936 39.7673 3.73703C39.7675 3.73787 39.7726 3.74843 39.7784 3.7895C39.7799 3.80014 39.7814 3.81246 39.7832 3.82622C39.7875 3.86042 39.7929 3.90354 39.8017 3.95222C39.7803 3.99397 39.7582 4.04169 39.7359 4.08974C39.7178 4.12875 39.6996 4.16797 39.6816 4.2044C39.6324 4.30432 39.5776 4.40081 39.5084 4.48101C37.8976 6.34536 36.2823 8.20507 34.6669 10.0649C33.9324 10.9104 33.198 11.756 32.464 12.602L32.4639 12.602C32.3347 12.7512 32.2006 12.8658 32.0551 12.9313C31.9122 12.9956 31.7533 13.0148 31.567 12.9652L31.5669 12.9652C31.2368 12.8777 31.003 12.657 31.0145 12.3642L30.9146 12.3603M39.181 3.03846L39.1397 3.12952C38.9927 3.0628 38.8534 3.07285 38.7198 3.13164C38.5827 3.19192 38.4518 3.30389 38.334 3.43943C37.8102 4.04206 37.2874 4.64488 36.7646 5.2477C36.3771 5.69451 35.9896 6.14132 35.6017 6.58806L35.6017 6.58808C35.2441 6.99963 34.8859 7.41053 34.5278 7.82136C33.4538 9.05348 32.3803 10.285 31.3245 11.5315C31.1451 11.7441 31.026 12.0794 31.0145 12.3644L30.9146 12.3603M39.181 3.03846C39.3754 3.12718 39.5292 3.30825 39.6811 3.48707C39.7341 3.54953 39.787 3.61172 39.8412 3.6696L39.181 3.03846ZM30.9146 12.3603C30.9269 12.0558 31.0528 11.6984 31.2482 11.4669M30.9146 12.3603C30.9005 12.7204 31.1892 12.9686 31.5413 13.0619L31.2482 11.4669M31.2482 11.4669C32.3045 10.2198 33.3786 8.9875 34.4528 7.75524C34.8108 7.34451 35.1688 6.93378 35.5262 6.52249C35.914 6.07586 36.3015 5.62907 36.689 5.18225C37.2119 4.57938 37.7347 3.97646 38.2585 3.37383L31.2482 11.4669Z" fill="#1A325D" stroke="white" stroke-width="0.2"/>
<path d="M37.6756 13.428V13.428C36.499 13.4334 35.525 12.4647 35.5376 11.3082L35.4376 11.3072L35.5376 11.3082C35.5502 10.1477 36.4974 9.21453 37.6601 9.21621C38.8257 9.2179 39.7717 10.1564 39.7759 11.3128L39.7759 11.3129C39.7809 12.4634 38.8284 13.4222 37.6756 13.428ZM37.8817 10.7987V10.7305L37.7867 10.7258C37.7507 10.724 37.7148 10.7225 37.6793 10.7209L37.6791 10.7209C37.6434 10.7194 37.6081 10.7178 37.5728 10.7161L37.5159 10.7133L37.4845 10.7607C37.4599 10.7978 37.4287 10.837 37.3936 10.8796C37.3862 10.8886 37.3786 10.8978 37.3708 10.9071C37.343 10.9405 37.3137 10.9759 37.2872 11.0106C37.2533 11.055 37.22 11.1034 37.1965 11.1536C37.1731 11.2037 37.1559 11.2629 37.1641 11.3262L37.1642 11.3266C37.1804 11.4479 37.2714 11.5451 37.3504 11.6181C37.3835 11.6486 37.4193 11.6791 37.4533 11.7079C37.462 11.7154 37.4707 11.7227 37.4791 11.73C37.5215 11.7662 37.5597 11.7999 37.5916 11.8332L37.6616 11.9062L37.7338 11.8354C37.765 11.8048 37.8028 11.7737 37.8451 11.7401C37.854 11.733 37.8632 11.7257 37.8726 11.7183C37.906 11.692 37.9413 11.6641 37.9738 11.6363C38.0155 11.6005 38.0576 11.5606 38.0908 11.5169C38.124 11.4731 38.1528 11.4197 38.1594 11.3572L38.1594 11.357C38.1718 11.2368 38.1067 11.123 38.0481 11.0356C38.0239 10.9995 37.9971 10.9627 37.9717 10.928C37.9647 10.9184 37.9579 10.909 37.9512 10.8999C37.9253 10.8642 37.9018 10.8308 37.8817 10.7987Z" fill="#1A325D" stroke="white" stroke-width="0.2"/>
<path d="M32.8109 7.07058L32.8109 7.07058C33.979 7.04619 34.8966 6.10417 34.8899 4.93617C34.8832 3.76883 33.9441 2.83061 32.7849 2.83145C31.6132 2.83229 30.6776 3.78894 30.686 4.98504L32.8109 7.07058ZM32.8109 7.07058C31.674 7.0949 30.6944 6.1344 30.686 4.98507L32.8109 7.07058ZM32.576 5.49081L32.6582 5.44117L32.6558 5.53898C32.6912 5.54075 32.7264 5.5423 32.7612 5.54383L32.7615 5.54385C32.7966 5.54539 32.8313 5.54692 32.8661 5.54866L32.9203 5.55137L32.9521 5.50745C32.9783 5.47131 33.0114 5.43308 33.0487 5.39147C33.0565 5.38275 33.0646 5.37385 33.0727 5.3648C33.1022 5.33206 33.1334 5.2975 33.1616 5.26359C33.1976 5.2203 33.2331 5.17291 33.2585 5.12371C33.2836 5.07486 33.3033 5.01541 33.2951 4.95114L33.2951 4.95097C33.2804 4.83666 33.1998 4.71986 33.1136 4.63377C33.0269 4.54727 32.9105 4.46758 32.7981 4.44955L32.7979 4.44952C32.7342 4.43944 32.6702 4.46409 32.6225 4.48947C32.5707 4.51698 32.5184 4.55599 32.4716 4.59899C32.4247 4.64214 32.3804 4.69192 32.346 4.74291C32.313 4.79196 32.283 4.85089 32.2762 4.91116L32.2762 4.91141C32.2628 5.03196 32.3307 5.14603 32.3905 5.23238C32.4156 5.26869 32.4435 5.30558 32.4698 5.3405C32.4768 5.34969 32.4836 5.35875 32.4903 5.36763C32.5232 5.41156 32.5527 5.45211 32.576 5.49081Z" fill="#1A325D" stroke="white" stroke-width="0.2"/>
<path d="M9.71709 8.34328L9.71709 8.34314C9.72638 7.91807 9.37486 7.56136 8.93381 7.55803H8.9333H8.93259L8.93259 7.55803C8.48855 7.5549 8.14533 7.89592 8.14688 8.33527L9.71709 8.34328ZM9.71709 8.34328C9.70854 8.76136 9.32083 9.12904 8.90496 9.11507M9.71709 8.34328L8.90496 9.11507M8.90496 9.11507C8.49198 9.10102 8.14845 8.74784 8.14688 8.33529L8.90496 9.11507Z" fill="#1A325D" stroke="white" stroke-width="0.2"/>
</svg>
