<svg width="42" height="42" viewBox="0 0 42 42" fill="none" xmlns="http://www.w3.org/2000/svg">
<path fill-rule="evenodd" clip-rule="evenodd" d="M1 21.1904C1 10.1447 9.95431 1.19043 21 1.19043C32.0457 1.19043 41 10.1447 41 21.1904C41 32.2361 32.0457 41.1904 21 41.1904C9.95431 41.1904 1 32.2361 1 21.1904Z" stroke="#1A325D"/>
<path d="M29.2849 17.7776C29.2755 17.0778 29.1443 16.385 28.8971 15.7301C28.6827 15.1777 28.3552 14.676 27.9356 14.2571C27.516 13.8382 27.0135 13.5113 26.4602 13.2973C25.8126 13.0546 25.1285 12.9234 24.437 12.9092C23.5467 12.8695 23.2644 12.8584 21.0043 12.8584C18.7442 12.8584 18.4545 12.8584 17.5706 12.9092C16.8794 12.9235 16.1956 13.0547 15.5484 13.2973C14.995 13.5112 14.4924 13.838 14.0728 14.257C13.6531 14.6759 13.3257 15.1776 13.1115 15.7301C12.8679 16.3761 12.7368 17.0589 12.7237 17.749C12.6839 18.6388 12.6719 18.9206 12.6719 21.1769C12.6719 23.4333 12.6719 23.7216 12.7237 24.6049C12.7376 25.296 12.8681 25.9779 13.1115 26.6256C13.3261 27.1779 13.6537 27.6795 14.0735 28.0982C14.4933 28.517 14.9959 28.8437 15.5493 29.0575C16.1948 29.31 16.8787 29.4506 17.5715 29.4733C18.4628 29.5131 18.7451 29.5251 21.0052 29.5251C23.2653 29.5251 23.555 29.5251 24.4389 29.4733C25.1304 29.4597 25.8145 29.3288 26.462 29.0862C27.0152 28.8719 27.5176 28.5449 27.9372 28.126C28.3567 27.7072 28.6843 27.2056 28.8989 26.6533C29.1423 26.0066 29.2728 25.3247 29.2867 24.6326C29.3265 23.7438 29.3385 23.4619 29.3385 21.2047C29.3367 18.9483 29.3367 18.6619 29.2849 17.7776ZM20.9987 25.4439C18.635 25.4439 16.7201 23.5322 16.7201 21.1723C16.7201 18.8125 18.635 16.9008 20.9987 16.9008C22.1335 16.9008 23.2218 17.3508 24.0242 18.1519C24.8266 18.953 25.2774 20.0394 25.2774 21.1723C25.2774 22.3052 24.8266 23.3917 24.0242 24.1928C23.2218 24.9938 22.1335 25.4439 20.9987 25.4439ZM25.4477 17.7388C25.3166 17.739 25.1868 17.7133 25.0657 17.6633C24.9446 17.6133 24.8346 17.5399 24.7419 17.4474C24.6493 17.3549 24.5758 17.245 24.5257 17.1241C24.4756 17.0032 24.4499 16.8736 24.45 16.7428C24.45 16.612 24.4758 16.4826 24.5259 16.3618C24.576 16.241 24.6495 16.1313 24.7421 16.0388C24.8347 15.9464 24.9446 15.873 25.0656 15.823C25.1866 15.773 25.3163 15.7472 25.4472 15.7472C25.5782 15.7472 25.7079 15.773 25.8288 15.823C25.9498 15.873 26.0598 15.9464 26.1524 16.0388C26.245 16.1313 26.3184 16.241 26.3685 16.3618C26.4187 16.4826 26.4445 16.612 26.4445 16.7428C26.4445 17.2935 25.9984 17.7388 25.4477 17.7388Z" fill="#1A325D"/>
<path d="M20.9981 23.9469C22.533 23.9469 23.7774 22.7046 23.7774 21.1722C23.7774 19.6397 22.533 18.3975 20.9981 18.3975C19.4631 18.3975 18.2188 19.6397 18.2188 21.1722C18.2188 22.7046 19.4631 23.9469 20.9981 23.9469Z" fill="#1A325D"/>
</svg>
