<svg width="31" height="31" viewBox="0 0 31 31" fill="none" xmlns="http://www.w3.org/2000/svg">
<path d="M15.0539 23.893C13.14 23.893 11.269 23.3254 9.67767 22.2621C8.08631 21.1988 6.84599 19.6875 6.11357 17.9192C5.38115 16.151 5.18951 14.2053 5.5629 12.3282C5.93628 10.451 6.85792 8.72677 8.21126 7.37343C9.5646 6.02009 11.2889 5.09845 13.166 4.72507C15.0431 4.35168 16.9888 4.54332 18.7571 5.27574C20.5253 6.00816 22.0366 7.24848 23.0999 8.83984C24.1632 10.4312 24.7308 12.3021 24.7308 14.216C24.7308 16.7825 23.7113 19.2439 21.8965 21.0587C20.0817 22.8734 17.6203 23.893 15.0539 23.893ZM15.0539 5.92154C13.4134 5.92154 11.8097 6.40801 10.4457 7.31942C9.08167 8.23083 8.01854 9.52625 7.39075 11.0419C6.76296 12.5575 6.5987 14.2252 6.91875 15.8342C7.23879 17.4432 8.02877 18.9211 9.18878 20.0811C10.3488 21.2411 11.8267 22.0311 13.4357 22.3512C15.0447 22.6712 16.7124 22.5069 18.228 21.8792C19.7437 21.2514 21.0391 20.1882 21.9505 18.8242C22.8619 17.4602 23.3484 15.8565 23.3484 14.216C23.3484 12.0162 22.4745 9.90647 20.919 8.35095C19.3634 6.79543 17.2537 5.92154 15.0539 5.92154Z" fill="#1A325D"/>
<path d="M16.6079 19.5921C16.5223 19.5927 16.4375 19.5769 16.359 19.546C16.2804 19.515 16.2097 19.4695 16.1515 19.4123L12.2043 15.546C12.1045 15.4467 12.0398 15.3222 12.0189 15.1888C11.998 15.0555 12.0218 14.9195 12.0872 14.7986C12.1522 14.6783 12.2564 14.5792 12.3856 14.5149C12.5147 14.4505 12.6625 14.424 12.8088 14.439C13.2156 14.5065 13.6333 14.4964 14.0357 14.4093C14.438 14.3223 14.8161 14.1602 15.1462 13.9332C15.3535 13.765 15.5165 13.5564 15.6233 13.3229C15.73 13.0894 15.7778 12.8371 15.763 12.5845C15.763 11.8652 15.5348 11.0391 13.7462 11.0391H12.4449C12.2813 11.0391 12.1244 10.9799 12.0088 10.8745C11.8931 10.7692 11.8281 10.6262 11.8281 10.4772C11.8281 10.3281 11.8931 10.1852 12.0088 10.0798C12.1244 9.97443 12.2813 9.91522 12.4449 9.91522H13.7215C15.7876 9.91522 16.9718 10.8874 16.9718 12.5845C16.9891 12.9936 16.9082 13.4012 16.7345 13.7788C16.5609 14.1564 16.2987 14.4949 15.9665 14.7705C15.3785 15.2241 14.6497 15.4992 13.8819 15.5573L17.0396 18.648C17.1211 18.7281 17.1753 18.8281 17.1954 18.9357C17.2156 19.0433 17.2009 19.154 17.1531 19.2541C17.1053 19.3543 17.0266 19.4396 16.9265 19.4996C16.8264 19.5596 16.7093 19.5918 16.5894 19.5921H16.6079Z" fill="#1A325D"/>
<path d="M17.6935 10.9904H13.4912C13.3355 10.9904 13.1863 10.9338 13.0762 10.833C12.9661 10.7322 12.9043 10.5954 12.9043 10.4528C12.9043 10.3102 12.9661 10.1735 13.0762 10.0727C13.1863 9.97186 13.3355 9.91522 13.4912 9.91522H17.6935C17.8491 9.91522 17.9984 9.97186 18.1085 10.0727C18.2185 10.1735 18.2804 10.3102 18.2804 10.4528C18.2804 10.5954 18.2185 10.7322 18.1085 10.833C17.9984 10.9338 17.8491 10.9904 17.6935 10.9904Z" fill="#1A325D"/>
<path d="M17.6782 13.1408H12.4294C12.2699 13.1408 12.117 13.0842 12.0042 12.9834C11.8915 12.8825 11.8281 12.7458 11.8281 12.6032C11.8281 12.4606 11.8915 12.3239 12.0042 12.2231C12.117 12.1223 12.2699 12.0656 12.4294 12.0656H17.6782C17.8376 12.0656 17.9905 12.1223 18.1033 12.2231C18.2161 12.3239 18.2794 12.4606 18.2794 12.6032C18.2794 12.7458 18.2161 12.8825 18.1033 12.9834C17.9905 13.0842 17.8376 13.1408 17.6782 13.1408Z" fill="#1A325D"/>
</svg>
