<svg width="42" height="42" viewBox="0 0 42 42" fill="none" xmlns="http://www.w3.org/2000/svg">
<path fill-rule="evenodd" clip-rule="evenodd" d="M1 21.1904C1 10.1447 9.95431 1.19043 21 1.19043C32.0457 1.19043 41 10.1447 41 21.1904C41 32.2361 32.0457 41.1904 21 41.1904C9.95431 41.1904 1 32.2361 1 21.1904Z" stroke="#1A325D"/>
<path d="M17.9459 15.6761V18.1544H16V21.1846H17.9459V30.1904H21.9401V21.1855H24.6213C24.6213 21.1855 24.8725 19.7326 24.9942 18.1435H21.9565V16.0711C21.9565 15.7618 22.3913 15.3451 22.8222 15.3451H25V12.1904H22.0396C17.8464 12.1904 17.9459 15.2233 17.9459 15.6761Z" fill="#1A325D"/>
</svg>
