<svg width="42" height="42" viewBox="0 0 42 42" fill="none" xmlns="http://www.w3.org/2000/svg">
<path fill-rule="evenodd" clip-rule="evenodd" d="M1 21.1904C1 10.1447 9.95431 1.19043 21 1.19043C32.0457 1.19043 41 10.1447 41 21.1904C41 32.2361 32.0457 41.1904 21 41.1904C9.95431 41.1904 1 32.2361 1 21.1904Z" stroke="#1A325D"/>
<path d="M17.3179 15.4386C17.2959 14.4463 16.5809 13.6904 15.42 13.6904C14.259 13.6904 13.5 14.4463 13.5 15.4386C13.5 16.4104 14.2366 17.188 15.3759 17.188H15.3976C16.5809 17.188 17.3179 16.4104 17.3179 15.4386Z" fill="#1A325D"/>
<path d="M17.0944 18.5694H13.7007V28.6902H17.0944V18.5694Z" fill="#1A325D"/>
<path d="M25.4259 18.3317C27.6591 18.3317 29.3333 19.7785 29.3333 22.8872L29.3332 28.6902H25.9396V23.2755C25.9396 21.9155 25.4486 20.9874 24.22 20.9874C23.2824 20.9874 22.724 21.6131 22.4787 22.2174C22.389 22.4339 22.367 22.7357 22.367 23.0381V28.6904H18.9729C18.9729 28.6904 19.0176 19.5193 18.9729 18.5696H22.367V20.0032C22.8174 19.314 23.6241 18.3317 25.4259 18.3317Z" fill="#1A325D"/>
</svg>
