<svg width="31" height="31" viewBox="0 0 31 31" fill="none" xmlns="http://www.w3.org/2000/svg">
<path d="M22.4804 17.4495C22.0286 17.4512 21.5887 17.595 21.2232 17.8606C20.8577 18.1261 20.585 18.5 20.4438 18.9292H19.3314V15.0592H21.7096C22.4704 15.0618 23.2022 14.7677 23.7495 14.2394C24.2969 13.711 24.6168 12.9901 24.6411 12.2297C24.6654 11.4694 24.3924 10.7295 23.8799 10.1672C23.3674 9.60495 22.656 9.26465 21.8966 9.21858C21.5675 7.73704 20.7429 6.41205 19.5591 5.46237C18.3753 4.51269 16.9031 3.99512 15.3854 3.99512C13.8678 3.99512 12.3955 4.51269 11.2117 5.46237C10.0279 6.41205 9.20336 7.73704 8.87424 9.21858C8.11447 9.26459 7.40261 9.60516 6.89004 10.1679C6.37747 10.7306 6.10461 11.471 6.12949 12.2318C6.15437 12.9925 6.47503 13.7136 7.02327 14.2416C7.57151 14.7696 8.3041 15.0629 9.06525 15.0592H11.4462V18.9312H10.331C10.1711 18.4451 9.84317 18.0318 9.40608 17.7656C8.96898 17.4994 8.45133 17.3977 7.94601 17.4787C7.44068 17.5596 6.98075 17.8181 6.64873 18.2075C6.31672 18.597 6.13435 19.092 6.13435 19.6038C6.13435 20.1156 6.31672 20.6106 6.64873 21C6.98075 21.3895 7.44068 21.6479 7.94601 21.7289C8.45133 21.8099 8.96898 21.7081 9.40608 21.4419C9.84317 21.1757 10.1711 20.7625 10.331 20.2764H12.116C12.2944 20.2764 12.4655 20.2055 12.5916 20.0794C12.7178 19.9532 12.7886 19.7822 12.7886 19.6038V15.0599H14.7149V21.3027C14.2287 21.4626 13.8155 21.7906 13.5493 22.2277C13.2831 22.6647 13.1813 23.1824 13.2623 23.6877C13.3433 24.193 13.6017 24.653 13.9912 24.985C14.3806 25.317 14.8757 25.4994 15.3874 25.4994C15.8992 25.4994 16.3942 25.317 16.7837 24.985C17.1732 24.653 17.4316 24.193 17.5125 23.6877C17.5935 23.1824 17.4918 22.6647 17.2256 22.2277C16.9594 21.7906 16.5462 21.4626 16.06 21.3027V14.4223C16.06 14.4129 16.0546 14.4048 16.0546 14.3954V14.3873C16.0546 14.2089 15.9838 14.0379 15.8576 13.9117C15.7315 13.7856 15.5604 13.7147 15.3821 13.7147H9.06525C8.85526 13.7191 8.64651 13.6814 8.45124 13.6041C8.25597 13.5267 8.0781 13.4112 7.92806 13.2642C7.77801 13.1172 7.65881 12.9418 7.57743 12.7481C7.49605 12.5545 7.45414 12.3466 7.45414 12.1365C7.45414 11.9265 7.49605 11.7186 7.57743 11.5249C7.65881 11.3313 7.77801 11.1559 7.92806 11.0089C8.0781 10.8619 8.25597 10.7464 8.45124 10.669C8.64651 10.5916 8.85526 10.554 9.06525 10.5583C9.15333 10.5602 9.24109 10.5697 9.32755 10.5866C9.417 10.6015 9.50854 10.5982 9.59668 10.5769C9.68481 10.5555 9.76772 10.5165 9.84041 10.4623C9.9131 10.4081 9.97407 10.3397 10.0197 10.2613C10.0653 10.183 10.0945 10.0962 10.1057 10.0062C10.2665 8.7182 10.8922 7.53333 11.8652 6.67427C12.8382 5.81521 14.0915 5.34113 15.3895 5.34113C16.6874 5.34113 17.9407 5.81521 18.9137 6.67427C19.8867 7.53333 20.5124 8.7182 20.6732 10.0062C20.6844 10.0962 20.7136 10.183 20.7592 10.2613C20.8048 10.3397 20.8658 10.4081 20.9385 10.4623C21.0112 10.5165 21.0941 10.5555 21.1822 10.5769C21.2704 10.5982 21.3619 10.6015 21.4514 10.5866C21.5378 10.5697 21.6256 10.5602 21.7137 10.5583C21.9236 10.554 22.1324 10.5916 22.3277 10.669C22.5229 10.7464 22.7008 10.8619 22.8508 11.0089C23.0009 11.1559 23.1201 11.3313 23.2015 11.5249C23.2828 11.7186 23.3248 11.9265 23.3248 12.1365C23.3248 12.3466 23.2828 12.5545 23.2015 12.7481C23.1201 12.9418 23.0009 13.1172 22.8508 13.2642C22.7008 13.4112 22.5229 13.5267 22.3277 13.6041C22.1324 13.6814 21.9236 13.7191 21.7137 13.7147H18.6588C18.4804 13.7147 18.3094 13.7856 18.1832 13.9117C18.0571 14.0379 17.9863 14.2089 17.9863 14.3873C17.9863 14.394 17.9863 14.3987 17.9863 14.4055C17.9863 14.4122 17.9863 14.4169 17.9863 14.4229V19.6051C17.9863 19.7835 18.0571 19.9546 18.1832 20.0807C18.3094 20.2068 18.4804 20.2777 18.6588 20.2777H20.4438C20.5679 20.6547 20.7938 20.9901 21.0965 21.2468C21.3993 21.5035 21.7671 21.6714 22.1594 21.7321C22.5517 21.7927 22.953 21.7437 23.3192 21.5905C23.6853 21.4372 24.002 21.1857 24.2341 20.8638C24.4662 20.5418 24.6048 20.1619 24.6345 19.7661C24.6642 19.3703 24.5838 18.974 24.4023 18.621C24.2208 18.268 23.9453 17.9721 23.6061 17.7659C23.2669 17.5598 22.8773 17.4514 22.4804 17.4529V17.4495ZM8.29448 20.4142C8.13485 20.4142 7.97881 20.3669 7.84609 20.2782C7.71336 20.1895 7.60991 20.0635 7.54883 19.916C7.48774 19.7685 7.47176 19.6062 7.5029 19.4497C7.53404 19.2931 7.61091 19.1493 7.72378 19.0364C7.83666 18.9236 7.98046 18.8467 8.13702 18.8156C8.29358 18.7844 8.45586 18.8004 8.60334 18.8615C8.75081 18.9226 8.87686 19.026 8.96555 19.1587C9.05423 19.2915 9.10157 19.4475 9.10157 19.6071C9.10068 19.8209 9.01537 20.0257 8.8642 20.1769C8.71303 20.328 8.50826 20.4133 8.29448 20.4142ZM15.3874 24.149C15.2278 24.149 15.0718 24.1017 14.939 24.013C14.8063 23.9243 14.7029 23.7983 14.6418 23.6508C14.5807 23.5033 14.5647 23.341 14.5959 23.1845C14.627 23.0279 14.7039 22.8841 14.8167 22.7712C14.9296 22.6584 15.0734 22.5815 15.23 22.5504C15.3865 22.5192 15.5488 22.5352 15.6963 22.5963C15.8438 22.6574 15.9698 22.7608 16.0585 22.8935C16.1472 23.0263 16.1945 23.1823 16.1945 23.3419C16.1936 23.5557 16.1083 23.7605 15.9572 23.9117C15.806 24.0628 15.6012 24.1481 15.3874 24.149ZM22.4804 20.4142C22.3208 20.4142 22.1647 20.3669 22.032 20.2782C21.8993 20.1895 21.7958 20.0635 21.7347 19.916C21.6736 19.7685 21.6577 19.6062 21.6888 19.4497C21.7199 19.2931 21.7968 19.1493 21.9097 19.0364C22.0226 18.9236 22.1664 18.8467 22.3229 18.8156C22.4795 18.7844 22.6418 18.8004 22.7892 18.8615C22.9367 18.9226 23.0628 19.026 23.1515 19.1587C23.2401 19.2915 23.2875 19.4475 23.2875 19.6071C23.2866 19.8209 23.2013 20.0257 23.0501 20.1769C22.8989 20.328 22.6942 20.4133 22.4804 20.4142Z" fill="#1A325D"/>
</svg>
