<svg width="45" height="44" viewBox="0 0 45 44" fill="none" xmlns="http://www.w3.org/2000/svg">
<rect x="26.1152" y="20.0847" width="8.50168" height="3.64358" fill="#FFC907"/>
<rect x="8.70703" y="8.74927" width="11.3356" height="8.09684" fill="#FFC907"/>
<path d="M18.1303 36.8957C18.5653 38.6308 17.8395 40.0425 16.3212 40.4448C16.005 40.5284 15.6633 40.5393 15.3337 40.5405C12.5371 40.5477 9.74051 40.538 6.94513 40.5477C5.88247 40.5514 4.8804 40.3478 3.93528 39.8498C3.73171 39.7432 3.47847 39.6935 3.24582 39.6874C2.46064 39.6681 1.67425 39.685 0.887863 39.6777C0.268687 39.6729 0.000908771 39.4063 0.000908771 38.7968C-0.000302924 34.3523 -0.000302924 29.9066 0.000908771 25.4621C0.000908771 24.8454 0.251723 24.5897 0.887863 24.58C1.64396 24.5679 2.40006 24.557 3.15495 24.5825C3.75473 24.6018 4.22245 24.3765 4.55445 23.9003C4.90827 23.3938 5.22452 22.8606 5.55047 22.3348C6.36109 21.031 7.45161 20.1053 9.00743 19.8629C9.75141 19.7466 10.5087 19.7139 11.2915 19.64V17.6237C10.8516 17.6237 10.4057 17.6237 9.96103 17.6237C8.6112 17.6213 7.90116 16.9064 7.89994 15.5469C7.89994 13.5209 7.906 11.4949 7.89631 9.469C7.89267 8.7541 8.12652 8.17975 8.71904 7.74839C8.83294 7.66599 8.89232 7.45273 8.90444 7.294C8.97229 6.33192 8.90928 5.34681 9.09467 4.41017C9.60722 1.82078 12.0827 -0.0706753 14.7206 0.00202634C17.482 0.0771514 19.8266 2.06312 20.2168 4.73369C20.3404 5.57945 20.2774 6.45066 20.3271 7.30975C20.3368 7.47091 20.4398 7.67205 20.5658 7.77384C21.0553 8.17006 21.3328 8.6511 21.3316 9.29088C21.3279 11.4683 21.3401 13.6457 21.3243 15.8219C21.317 16.8688 20.5646 17.5958 19.5068 17.6225C19.01 17.6346 18.512 17.6249 17.9776 17.6249V23.3053C19.3626 23.2557 20.5113 23.7234 21.0759 25.0756C21.6418 26.4303 21.214 27.5778 20.1477 28.5156C21.4624 30.3901 20.693 32.0768 19.4122 32.9456C19.7939 33.6508 19.926 34.4032 19.6788 35.1933C19.4292 35.9906 18.884 36.5285 18.1291 36.8969L18.1303 36.8957ZM11.3254 21.1303C10.6069 21.1909 9.93316 21.2309 9.26552 21.3097C8.48034 21.403 7.82845 21.7834 7.34013 22.3929C7.00207 22.8146 6.75731 23.3102 6.42652 23.7367C5.94063 24.3644 5.52381 25.1592 4.87555 25.5167C4.10007 25.9444 4.03221 26.446 4.06977 27.1622C4.10855 27.9158 4.07826 28.6731 4.07826 29.4292C4.07826 32.2561 4.07584 35.0818 4.08311 37.9087C4.08311 38.0541 4.11703 38.2831 4.20912 38.3316C4.90342 38.6939 5.60499 39.061 6.41925 39.061C9.48726 39.0634 12.5541 39.0695 15.6221 39.061C16.423 39.0586 16.9586 38.4043 16.7792 37.6372C16.7223 37.3913 16.5442 37.1526 16.3673 36.9623C16.1189 36.6958 15.9674 36.4292 16.1176 36.0705C16.2655 35.7179 16.5551 35.5919 16.9222 35.6101C16.967 35.6125 17.0131 35.6101 17.0579 35.6101C17.6674 35.5931 18.1218 35.266 18.2878 34.7231C18.4514 34.19 18.2502 33.6484 17.7292 33.3212C17.3911 33.1079 17.1585 32.8486 17.2615 32.4342C17.3572 32.0489 17.6492 31.9156 18.037 31.8647C18.9385 31.7472 19.4753 31.0323 19.3238 30.1708C19.216 29.5601 18.8209 29.2026 18.2308 29.0306C17.8346 28.9155 17.6214 28.6428 17.6723 28.2163C17.7207 27.8056 17.9934 27.6287 18.3787 27.5778C18.5725 27.5523 18.7737 27.539 18.953 27.4711C19.5564 27.2446 19.9369 26.589 19.8327 25.9929C19.7103 25.2865 19.1675 24.8018 18.455 24.7969C17.0797 24.7872 15.7045 24.8042 14.3292 24.7909C10.8092 24.7582 11.3727 25.2549 11.323 21.8101C11.3206 21.6017 11.323 21.3945 11.323 21.1279L11.3254 21.1303ZM14.5994 16.1382C16.1395 16.1382 17.6795 16.1382 19.2196 16.1382C19.8327 16.1382 19.8691 16.1006 19.8691 15.5069C19.8691 13.5282 19.8691 11.5495 19.8691 9.57078C19.8691 8.97099 19.8267 8.92858 19.2208 8.92858C16.1552 8.92858 13.0896 8.92858 10.0253 8.92858C9.43758 8.92858 9.36488 8.99643 9.36367 9.56714C9.36124 11.5458 9.36124 13.5245 9.36367 15.5032C9.36367 16.0836 9.42183 16.1382 10.0228 16.1394C11.5484 16.1406 13.0727 16.1394 14.5982 16.1394L14.5994 16.1382ZM10.5087 4.9203H18.7567C18.3666 2.76954 16.5127 1.3676 14.2516 1.48393C12.4462 1.57723 10.6263 3.23968 10.5087 4.9203ZM16.4194 23.2908V17.6625H12.8V23.2908H16.4194ZM1.47675 26.0825V38.1728H2.59878V26.0825H1.47675ZM18.8476 6.46763H10.4397V7.44305H18.8476V6.46763Z" fill="#1A325D"/>
<path d="M22.7713 29.6209C22.7713 25.3885 22.7713 21.156 22.7713 16.9236C22.7713 15.9033 23.2402 15.4162 24.2617 15.415C29.6573 15.4102 35.053 15.415 40.4475 15.4102C40.9612 15.4102 41.3756 15.5713 41.7391 15.9457C42.6237 16.8569 43.5216 17.7548 44.4327 18.6381C44.8278 19.021 45.0022 19.4451 45.001 20.0025C44.9889 27.4241 44.9925 34.8469 44.9925 42.2686C44.9925 43.353 44.5418 43.8086 43.4513 43.8098C37.4812 43.8123 31.5112 43.8098 25.5424 43.8098C25.0893 43.8098 24.6349 43.8171 24.1817 43.8074C23.2475 43.7868 22.7713 43.2985 22.7701 42.3631C22.7689 38.1149 22.7701 33.8679 22.7701 29.6197L22.7713 29.6209ZM40.1809 16.9332H24.2496V42.3013H43.5179V20.2594C42.7533 20.2594 42.0154 20.2678 41.2775 20.2569C40.5771 20.246 40.1906 19.8534 40.1833 19.1531C40.1761 18.4285 40.1821 17.7039 40.1821 16.9332H40.1809ZM42.3305 18.7532C42.1184 18.5072 41.9064 18.2601 41.6531 17.9656V18.7532H42.3305Z" fill="#1A325D"/>
<path d="M14.6295 10.2069C15.657 10.2069 16.6833 10.2032 17.7108 10.2081C18.3227 10.2117 18.5893 10.4807 18.5917 11.095C18.5954 12.062 18.5954 13.0289 18.5917 13.9946C18.5893 14.592 18.3397 14.8586 17.7411 14.861C15.657 14.8695 13.5729 14.8695 11.4888 14.861C10.9241 14.8586 10.6503 14.5859 10.6418 14.0249C10.6285 13.0277 10.626 12.0305 10.6418 11.0345C10.6503 10.4819 10.9447 10.2129 11.5033 10.2093C12.5454 10.2032 13.5874 10.2069 14.6295 10.2069ZM12.1503 13.3524H17.1086V11.6985H12.1503V13.3524Z" fill="#1A325D"/>
<path d="M30.6421 24.5352C29.3723 24.5352 28.1024 24.5364 26.8326 24.5352C26.1989 24.5352 25.9493 24.2904 25.948 23.6676C25.9444 22.4729 25.9444 21.2781 25.948 20.0834C25.9505 19.4957 26.217 19.2061 26.7962 19.2049C29.3808 19.1976 31.9665 19.1976 34.5523 19.2049C35.1145 19.2061 35.3859 19.486 35.3896 20.0458C35.3968 21.2709 35.398 22.4959 35.3896 23.7197C35.3859 24.2904 35.1266 24.5327 34.5438 24.534C33.2436 24.5376 31.9435 24.534 30.6434 24.534L30.6421 24.5352ZM27.413 23.0557H33.9052V20.7244H27.413V23.0557Z" fill="#1A325D"/>
<path d="M33.9259 40.0305C31.6128 40.0305 29.3009 40.0318 26.9877 40.0281C26.8084 40.0281 26.6218 40.0184 26.4522 39.9675C26.1093 39.8645 25.9336 39.6125 25.9481 39.2514C25.9626 38.9122 26.1468 38.6844 26.4728 38.5959C26.6303 38.5535 26.7999 38.5426 26.9647 38.5426C31.5752 38.5402 36.1845 38.5402 40.795 38.5426C40.9598 38.5426 41.1294 38.5535 41.2869 38.5959C41.6129 38.6844 41.7971 38.9109 41.8104 39.2514C41.8249 39.6125 41.6492 39.8633 41.3063 39.9663C41.1367 40.0172 40.9501 40.0269 40.7708 40.0269C38.4879 40.0305 36.2063 40.0293 33.9235 40.0293L33.9259 40.0305Z" fill="#1A325D"/>
<path d="M33.8824 36.1479C31.5389 36.1479 29.1967 36.1443 26.8533 36.1516C26.474 36.1516 26.1626 36.068 26.0003 35.6935C25.8137 35.261 26.0899 34.7714 26.5577 34.706C26.6909 34.6878 26.8291 34.6963 26.9648 34.6963C31.5753 34.6963 36.1858 34.6963 40.7951 34.6963C40.9162 34.6963 41.0386 34.689 41.1574 34.7024C41.5609 34.7484 41.7874 34.9847 41.8093 35.3846C41.8311 35.7905 41.6057 36.0377 41.2252 36.1322C41.0822 36.1673 40.9247 36.1479 40.7733 36.1479C38.4759 36.1479 36.1785 36.1479 33.8811 36.1479H33.8824Z" fill="#1A325D"/>
<path d="M33.9051 26.9487C36.1577 26.9487 38.409 26.9487 40.6615 26.9487C40.8275 26.9487 40.9947 26.9451 41.1595 26.9657C41.5582 27.0154 41.7908 27.248 41.8114 27.6503C41.8332 28.0599 41.5957 28.2973 41.2225 28.3991C41.0808 28.4379 40.9233 28.4258 40.7718 28.4258C36.177 28.4258 31.5823 28.427 26.9876 28.4234C26.7949 28.4234 26.5901 28.4125 26.4108 28.3495C26.0739 28.2295 25.9104 27.9605 25.9516 27.603C25.9928 27.2492 26.2024 27.0263 26.561 26.973C26.7246 26.9487 26.8918 26.9499 27.0578 26.9499C29.3395 26.9487 31.6223 26.9499 33.9039 26.9499L33.9051 26.9487Z" fill="#1A325D"/>
<path d="M33.8588 32.2754C31.5917 32.2754 29.3246 32.2754 27.0576 32.2754C26.8916 32.2754 26.7244 32.2779 26.5596 32.256C26.2167 32.2124 26.0143 31.9967 25.9586 31.6696C25.8992 31.3182 26.0397 31.031 26.373 30.8989C26.562 30.8238 26.7837 30.8105 26.9909 30.8105C31.5857 30.8056 36.1804 30.8069 40.7752 30.8069C40.8963 30.8069 41.0187 30.7996 41.1375 30.8153C41.5579 30.8699 41.8318 31.1849 41.816 31.5823C41.8003 31.964 41.5288 32.2476 41.1132 32.2645C40.6007 32.2863 40.0857 32.2754 39.5719 32.2754C37.6672 32.2754 35.7636 32.2754 33.8588 32.2754Z" fill="#1A325D"/>
</svg>
