<svg width="31" height="31" viewBox="0 0 31 31" fill="none" xmlns="http://www.w3.org/2000/svg">
<path d="M23.2173 10.0389H19.9183V8.50715C19.9183 7.66849 19.2397 6.98633 18.4055 6.98633H11.7005C10.8665 6.98633 10.1879 7.66849 10.1879 8.50715V10.0389H6.88852C6.05452 10.0389 5.37598 10.7211 5.37598 11.5595V22.6689C5.37598 23.5076 6.05452 24.1897 6.88852 24.1897H23.2173C24.0513 24.1897 24.7298 23.5076 24.7298 22.6689V11.5597C24.73 10.7211 24.0515 10.0389 23.2173 10.0389ZM11.2339 8.50715C11.2339 8.24863 11.4431 8.03807 11.7002 8.03807H18.4053C18.6625 8.03807 18.8719 8.24863 18.8719 8.50715V10.0389H11.2339V8.50715ZM6.88852 11.0907H23.2173C23.4744 11.0907 23.6836 11.301 23.6836 11.5595V15.2697H19.9183V14.2823C19.9183 13.9918 19.6842 13.7564 19.3952 13.7564C19.1063 13.7564 18.8721 13.9918 18.8721 14.2823V15.2697H11.2339V14.2823C11.2339 13.9918 10.9997 13.7564 10.7108 13.7564C10.4218 13.7564 10.1877 13.9918 10.1877 14.2823V15.2697H6.42214V11.5597C6.42214 11.301 6.63137 11.0907 6.88852 11.0907ZM23.2173 23.1384H6.88852C6.63137 23.1384 6.42214 22.9278 6.42214 22.6693V16.3214H10.1877V17.4121C10.1877 17.7026 10.4218 17.9379 10.7108 17.9379C10.9997 17.9379 11.2339 17.7026 11.2339 17.4121V16.3214H18.8721V17.4121C18.8721 17.7026 19.1063 17.9379 19.3952 17.9379C19.6842 17.9379 19.9183 17.7026 19.9183 17.4121V16.3214H23.6839V22.6691C23.6839 22.9278 23.4746 23.1384 23.2173 23.1384Z" fill="#1A325D" stroke="#1A325D" stroke-width="0.215043"/>
</svg>
