<svg width="46" height="43" viewBox="0 0 46 43" fill="none" xmlns="http://www.w3.org/2000/svg">
<path d="M10 21.0005L11 20.0005H41L42.5 21.0005V25.5005L30 30.5005L29.5 29.0005H23.5L22 30.0005L10 24.5005V21.0005Z" fill="#FFC907"/>
<mask id="path-2-inside-1_1871_993" fill="white">
<path d="M43.1865 30.6325C43.1865 30.8764 43.1865 31.067 43.1865 31.2563C43.1865 34.2014 43.193 37.1452 43.1839 40.0903C43.18 41.5168 42.4302 42.5542 41.1618 42.8914C40.8522 42.9744 40.5178 42.9951 40.1952 42.9951C30.8711 43.0003 21.547 43.0016 12.2217 42.9977C10.3367 42.9977 9.21466 41.8734 9.21466 40.006C9.21466 35.7187 9.21466 31.4301 9.21466 27.1428C9.21466 26.9548 9.21466 26.7667 9.21466 26.4399C8.99782 26.6176 8.87634 26.7032 8.77054 26.8056C8.27155 27.2945 7.78301 27.7938 7.27879 28.2775C6.84642 28.6938 6.52769 28.6925 6.10055 28.2723C4.74857 26.9379 3.40051 25.5983 2.05507 24.2561C1.62923 23.8307 1.63707 23.4884 2.07074 23.0487C2.55014 22.5637 3.02692 22.0761 3.52461 21.6093C3.74275 21.4044 3.80023 21.2397 3.66177 20.9466C3.29471 20.1698 3.31299 20.1607 2.44433 20.1607C1.8735 20.1607 1.30266 20.1698 0.733137 20.1555C0.24329 20.1426 0.00947036 19.9195 0.00685785 19.4371C-0.00228595 17.4789 -0.00228595 15.522 0.00685785 13.5638C0.00947036 13.0502 0.25374 12.8246 0.816737 12.8116C1.51689 12.7948 2.21835 12.7948 2.91981 12.8116C3.21633 12.8181 3.38615 12.7468 3.49979 12.4407C3.78978 11.6601 3.80807 11.6665 3.20719 11.0713C2.81531 10.6822 2.41821 10.2984 2.03286 9.90286C1.64621 9.50603 1.63968 9.14941 2.02503 8.76555C3.39268 7.39999 4.76425 6.03833 6.14104 4.68186C6.52377 4.30448 6.85556 4.30578 7.24875 4.68056C7.76603 5.17335 8.27938 5.67263 8.76662 6.19395C8.97823 6.42089 9.14674 6.41182 9.43542 6.3379C10.0951 6.16801 10.2819 5.79323 10.21 5.1526C10.1499 4.60923 10.1904 4.05419 10.1996 3.50305C10.2087 2.93504 10.4674 2.67697 11.0447 2.67567C12.9519 2.67049 14.859 2.67049 16.7661 2.67567C17.3683 2.67697 17.6113 2.93374 17.6152 3.54454C17.6191 4.23964 17.6309 4.93603 17.61 5.63113C17.6008 5.92032 17.6988 6.05519 17.9718 6.15634C18.7752 6.45591 18.7699 6.46888 19.3878 5.85548C19.7457 5.50145 20.101 5.14482 20.4602 4.79209C20.9984 4.26428 21.2688 4.26558 21.8135 4.80894C21.9494 4.94511 22.0552 5.1124 22.1753 5.26413C22.2145 5.24208 22.2537 5.22133 22.2929 5.19929C22.3073 5.08257 22.3321 4.96716 22.3321 4.85044C22.3347 3.8467 22.3269 2.84426 22.336 1.84052C22.3465 0.733035 23.0505 0.00940822 24.17 0.00681458C28.8973 -0.00355999 33.6247 -0.00355999 38.352 0.0171892C38.6264 0.0171892 38.9673 0.16373 39.1645 0.35566C41.3486 2.48893 43.5157 4.64036 45.6671 6.80605C45.85 6.9902 45.9858 7.31181 45.9858 7.56988C46.0028 14.6726 46.0028 21.7753 45.9949 28.8779C45.9949 29.94 45.2817 30.6157 44.2041 30.63C43.8827 30.6338 43.5614 30.63 43.1852 30.63L43.1865 30.6325ZM10.6163 25.776C10.6045 25.9147 10.5928 25.9912 10.5928 26.0677C10.5928 30.7428 10.5875 35.4178 10.5954 40.0929C10.5967 41.1044 11.1492 41.614 12.1942 41.614C21.5157 41.614 30.8384 41.614 40.1599 41.614C41.3029 41.614 41.794 41.1277 41.794 39.9956C41.794 35.4347 41.794 30.8725 41.794 26.3115V25.8084C41.6543 25.8486 41.5759 25.8628 41.5027 25.894C37.938 27.384 34.3719 28.8715 30.8136 30.3771C30.6739 30.4367 30.5406 30.6727 30.5276 30.8374C30.4897 31.3199 30.5171 31.8075 30.5132 32.2925C30.5027 33.4155 29.8574 34.0639 28.7197 34.0795C27.7909 34.0925 26.8622 34.0834 25.9334 34.0821C25.1183 34.0821 24.3019 34.108 23.4894 34.0665C22.5241 34.0173 21.9363 33.3779 21.9206 32.4299C21.9128 31.9281 21.8958 31.4262 21.9259 30.9256C21.9454 30.5949 21.8227 30.4471 21.5196 30.3213C18.8026 29.2009 16.0921 28.0622 13.3803 26.9301C12.4712 26.5502 11.5607 26.1702 10.615 25.7747L10.6163 25.776ZM43.1865 29.2735C43.4229 29.2735 43.5993 29.2735 43.7756 29.2735C44.3434 29.2735 44.6273 28.9968 44.6273 28.4435C44.6273 21.8583 44.6273 15.2717 44.6273 8.68644C44.6273 8.4997 44.6273 8.31295 44.6273 8.10157C42.9592 8.10157 41.3643 8.10157 39.768 8.10157C38.5362 8.10157 37.8609 7.44279 37.8544 6.21989C37.8465 4.79598 37.853 3.37207 37.8517 1.94816C37.8517 1.77568 37.8517 1.6032 37.8517 1.42294C37.6911 1.40868 37.5957 1.39182 37.5004 1.39182C33.0983 1.39182 28.6962 1.39571 24.2954 1.38404C23.8526 1.38404 23.7324 1.56948 23.7363 1.96761C23.7468 3.4395 23.7311 4.91269 23.752 6.38458C23.7546 6.583 23.8683 6.82031 24.008 6.96815C24.5776 7.56988 25.1797 8.13918 25.7623 8.72664C26.1934 9.16108 26.1934 9.49566 25.7623 9.93528C25.3078 10.3982 24.8558 10.8677 24.3751 11.3034C24.0955 11.5563 23.9754 11.791 24.2027 12.1295C24.2641 12.2216 24.3124 12.3318 24.3333 12.4407C24.3947 12.7598 24.588 12.835 24.8937 12.8259C25.5612 12.8051 26.23 12.8155 26.8988 12.8207C27.6316 12.8259 27.8223 13.0152 27.8249 13.7518C27.8301 15.2237 27.8249 16.6969 27.8275 18.1688C27.8275 18.34 27.8419 18.5112 27.8523 18.7277C28.0966 18.7277 28.2899 18.7277 28.4833 18.7277C32.3628 18.7277 36.2437 18.7251 40.1233 18.7277C42.0762 18.7303 43.1826 19.83 43.1852 21.7675C43.1891 24.0654 43.1852 26.3634 43.1852 28.6614C43.1852 28.8507 43.1852 29.0401 43.1852 29.2709L43.1865 29.2735ZM21.9598 29.0167C22.3151 28.1297 22.9669 27.8249 23.8343 27.834C25.2855 27.8483 26.7368 27.8612 28.1867 27.8301C29.1795 27.8081 30.0534 27.9442 30.4596 29.0219C34.1916 27.4618 37.8779 25.9238 41.5563 24.3702C41.6725 24.3209 41.781 24.1095 41.7849 23.9708C41.8071 23.1953 41.7992 22.4172 41.794 21.6417C41.7888 20.6431 41.2702 20.1283 40.2513 20.1283C30.8776 20.1257 21.5052 20.1257 12.1315 20.1283C11.1309 20.1283 10.6071 20.6548 10.5928 21.6624C10.5823 22.4068 10.6045 23.1512 10.5836 23.8956C10.5758 24.1873 10.6868 24.3196 10.9481 24.4273C12.6449 25.1262 14.3339 25.8408 16.0268 26.5489C17.9875 27.3672 19.9508 28.1829 21.9585 29.0193L21.9598 29.0167ZM1.39802 18.7913C2.18439 18.7913 2.9172 18.8068 3.6487 18.7861C4.15292 18.7718 4.42593 19.0001 4.58529 19.4591C4.7538 19.9454 4.95235 20.4253 5.16919 20.8921C5.45395 21.5068 5.44611 21.6443 4.95757 22.1293C4.44552 22.6376 3.92824 23.1421 3.48542 23.5765C4.60619 24.7009 5.66948 25.7682 6.78372 26.886C7.23438 26.4205 7.68765 25.9108 8.18925 25.453C8.45442 25.2105 8.80581 25.0601 9.21728 24.8072C9.21728 24.2042 9.2016 23.4456 9.22381 22.6869C9.23295 22.3549 9.13629 22.1293 8.88679 21.892C6.97051 20.0764 6.17892 17.8485 6.60346 15.2548C7.24222 11.3449 11.0395 8.61123 14.9426 9.19479C19.0207 9.8056 21.8096 13.4652 21.2505 17.4815C21.1957 17.8757 21.1147 18.2674 21.0415 18.6875H26.4128V14.2044C25.6735 14.2044 24.9603 14.1889 24.2484 14.2096C23.7167 14.2252 23.3993 14.0203 23.2347 13.5041C23.0793 13.0139 22.8807 12.5315 22.6443 12.0737C22.3961 11.5939 22.4588 11.2282 22.8559 10.8664C23.3915 10.3801 23.8996 9.86266 24.3672 9.41007C23.236 8.28832 22.1662 7.22881 21.0585 6.1317C20.5556 6.63487 20.0161 7.16916 19.4845 7.71123C19.1827 8.01858 18.8627 8.06786 18.4695 7.87852C18.0019 7.65417 17.5225 7.45057 17.0352 7.2729C16.3037 7.00576 16.2462 6.94351 16.2449 6.15245C16.2449 5.46384 16.2449 4.77393 16.2449 4.07235H11.5881C11.5881 4.85563 11.579 5.61168 11.5921 6.36772C11.5999 6.8242 11.3857 7.07708 10.9585 7.22363C10.453 7.3974 9.94225 7.57895 9.47069 7.82535C8.98607 8.07823 8.62293 8.02506 8.25718 7.62823C7.76733 7.09524 7.24875 6.58818 6.79025 6.11873C5.65511 7.24567 4.57876 8.31425 3.46844 9.41785C3.94653 9.88081 4.44813 10.3879 4.97586 10.869C5.37035 11.2295 5.44611 11.5952 5.18486 12.0737C4.96149 12.4835 4.78645 12.9232 4.6284 13.3615C4.35278 14.1266 4.26656 14.1992 3.43186 14.2005C2.75522 14.2005 2.07858 14.2005 1.39933 14.2005V18.79L1.39802 18.7913ZM9.41191 20.4292C10.099 18.9702 11.3517 18.6823 12.8212 18.7161C14.8877 18.764 16.9569 18.7161 19.0247 18.7381C19.4322 18.742 19.6295 18.611 19.6856 18.2272C19.7718 17.6384 19.9377 17.0496 19.939 16.4609C19.943 13.875 18.2291 11.5874 15.7525 10.8041C13.2405 10.0092 10.5366 10.8988 8.99913 13.023C7.38198 15.2587 7.5518 18.5903 9.4106 20.4266L9.41191 20.4292ZM26.2274 32.6854C27.0255 32.6854 27.8236 32.6724 28.6204 32.6919C28.9679 32.6997 29.1233 32.6037 29.1142 32.2315C29.0946 31.3756 29.0998 30.5184 29.1116 29.6625C29.1155 29.3565 29.0123 29.2307 28.6896 29.2333C27.0294 29.2437 25.3691 29.2424 23.7089 29.2333C23.3902 29.232 23.2831 29.3552 23.2883 29.6664C23.3026 30.5223 23.3053 31.3795 23.2883 32.2354C23.2817 32.57 23.3967 32.6971 23.7389 32.6906C24.5684 32.675 25.3992 32.6854 26.23 32.6854H26.2274ZM39.2338 2.49931C39.2338 3.70535 39.2455 4.92695 39.2272 6.14856C39.2207 6.59207 39.397 6.75547 39.832 6.75029C40.9881 6.73602 42.1454 6.7464 43.3014 6.7438C43.385 6.7438 43.4673 6.71527 43.466 6.71527C42.067 5.32249 40.6602 3.92062 39.2338 2.5006V2.49931Z"/>
</mask>
<path d="M43.1865 30.6325C43.1865 30.8764 43.1865 31.067 43.1865 31.2563C43.1865 34.2014 43.193 37.1452 43.1839 40.0903C43.18 41.5168 42.4302 42.5542 41.1618 42.8914C40.8522 42.9744 40.5178 42.9951 40.1952 42.9951C30.8711 43.0003 21.547 43.0016 12.2217 42.9977C10.3367 42.9977 9.21466 41.8734 9.21466 40.006C9.21466 35.7187 9.21466 31.4301 9.21466 27.1428C9.21466 26.9548 9.21466 26.7667 9.21466 26.4399C8.99782 26.6176 8.87634 26.7032 8.77054 26.8056C8.27155 27.2945 7.78301 27.7938 7.27879 28.2775C6.84642 28.6938 6.52769 28.6925 6.10055 28.2723C4.74857 26.9379 3.40051 25.5983 2.05507 24.2561C1.62923 23.8307 1.63707 23.4884 2.07074 23.0487C2.55014 22.5637 3.02692 22.0761 3.52461 21.6093C3.74275 21.4044 3.80023 21.2397 3.66177 20.9466C3.29471 20.1698 3.31299 20.1607 2.44433 20.1607C1.8735 20.1607 1.30266 20.1698 0.733137 20.1555C0.24329 20.1426 0.00947036 19.9195 0.00685785 19.4371C-0.00228595 17.4789 -0.00228595 15.522 0.00685785 13.5638C0.00947036 13.0502 0.25374 12.8246 0.816737 12.8116C1.51689 12.7948 2.21835 12.7948 2.91981 12.8116C3.21633 12.8181 3.38615 12.7468 3.49979 12.4407C3.78978 11.6601 3.80807 11.6665 3.20719 11.0713C2.81531 10.6822 2.41821 10.2984 2.03286 9.90286C1.64621 9.50603 1.63968 9.14941 2.02503 8.76555C3.39268 7.39999 4.76425 6.03833 6.14104 4.68186C6.52377 4.30448 6.85556 4.30578 7.24875 4.68056C7.76603 5.17335 8.27938 5.67263 8.76662 6.19395C8.97823 6.42089 9.14674 6.41182 9.43542 6.3379C10.0951 6.16801 10.2819 5.79323 10.21 5.1526C10.1499 4.60923 10.1904 4.05419 10.1996 3.50305C10.2087 2.93504 10.4674 2.67697 11.0447 2.67567C12.9519 2.67049 14.859 2.67049 16.7661 2.67567C17.3683 2.67697 17.6113 2.93374 17.6152 3.54454C17.6191 4.23964 17.6309 4.93603 17.61 5.63113C17.6008 5.92032 17.6988 6.05519 17.9718 6.15634C18.7752 6.45591 18.7699 6.46888 19.3878 5.85548C19.7457 5.50145 20.101 5.14482 20.4602 4.79209C20.9984 4.26428 21.2688 4.26558 21.8135 4.80894C21.9494 4.94511 22.0552 5.1124 22.1753 5.26413C22.2145 5.24208 22.2537 5.22133 22.2929 5.19929C22.3073 5.08257 22.3321 4.96716 22.3321 4.85044C22.3347 3.8467 22.3269 2.84426 22.336 1.84052C22.3465 0.733035 23.0505 0.00940822 24.17 0.00681458C28.8973 -0.00355999 33.6247 -0.00355999 38.352 0.0171892C38.6264 0.0171892 38.9673 0.16373 39.1645 0.35566C41.3486 2.48893 43.5157 4.64036 45.6671 6.80605C45.85 6.9902 45.9858 7.31181 45.9858 7.56988C46.0028 14.6726 46.0028 21.7753 45.9949 28.8779C45.9949 29.94 45.2817 30.6157 44.2041 30.63C43.8827 30.6338 43.5614 30.63 43.1852 30.63L43.1865 30.6325ZM10.6163 25.776C10.6045 25.9147 10.5928 25.9912 10.5928 26.0677C10.5928 30.7428 10.5875 35.4178 10.5954 40.0929C10.5967 41.1044 11.1492 41.614 12.1942 41.614C21.5157 41.614 30.8384 41.614 40.1599 41.614C41.3029 41.614 41.794 41.1277 41.794 39.9956C41.794 35.4347 41.794 30.8725 41.794 26.3115V25.8084C41.6543 25.8486 41.5759 25.8628 41.5027 25.894C37.938 27.384 34.3719 28.8715 30.8136 30.3771C30.6739 30.4367 30.5406 30.6727 30.5276 30.8374C30.4897 31.3199 30.5171 31.8075 30.5132 32.2925C30.5027 33.4155 29.8574 34.0639 28.7197 34.0795C27.7909 34.0925 26.8622 34.0834 25.9334 34.0821C25.1183 34.0821 24.3019 34.108 23.4894 34.0665C22.5241 34.0173 21.9363 33.3779 21.9206 32.4299C21.9128 31.9281 21.8958 31.4262 21.9259 30.9256C21.9454 30.5949 21.8227 30.4471 21.5196 30.3213C18.8026 29.2009 16.0921 28.0622 13.3803 26.9301C12.4712 26.5502 11.5607 26.1702 10.615 25.7747L10.6163 25.776ZM43.1865 29.2735C43.4229 29.2735 43.5993 29.2735 43.7756 29.2735C44.3434 29.2735 44.6273 28.9968 44.6273 28.4435C44.6273 21.8583 44.6273 15.2717 44.6273 8.68644C44.6273 8.4997 44.6273 8.31295 44.6273 8.10157C42.9592 8.10157 41.3643 8.10157 39.768 8.10157C38.5362 8.10157 37.8609 7.44279 37.8544 6.21989C37.8465 4.79598 37.853 3.37207 37.8517 1.94816C37.8517 1.77568 37.8517 1.6032 37.8517 1.42294C37.6911 1.40868 37.5957 1.39182 37.5004 1.39182C33.0983 1.39182 28.6962 1.39571 24.2954 1.38404C23.8526 1.38404 23.7324 1.56948 23.7363 1.96761C23.7468 3.4395 23.7311 4.91269 23.752 6.38458C23.7546 6.583 23.8683 6.82031 24.008 6.96815C24.5776 7.56988 25.1797 8.13918 25.7623 8.72664C26.1934 9.16108 26.1934 9.49566 25.7623 9.93528C25.3078 10.3982 24.8558 10.8677 24.3751 11.3034C24.0955 11.5563 23.9754 11.791 24.2027 12.1295C24.2641 12.2216 24.3124 12.3318 24.3333 12.4407C24.3947 12.7598 24.588 12.835 24.8937 12.8259C25.5612 12.8051 26.23 12.8155 26.8988 12.8207C27.6316 12.8259 27.8223 13.0152 27.8249 13.7518C27.8301 15.2237 27.8249 16.6969 27.8275 18.1688C27.8275 18.34 27.8419 18.5112 27.8523 18.7277C28.0966 18.7277 28.2899 18.7277 28.4833 18.7277C32.3628 18.7277 36.2437 18.7251 40.1233 18.7277C42.0762 18.7303 43.1826 19.83 43.1852 21.7675C43.1891 24.0654 43.1852 26.3634 43.1852 28.6614C43.1852 28.8507 43.1852 29.0401 43.1852 29.2709L43.1865 29.2735ZM21.9598 29.0167C22.3151 28.1297 22.9669 27.8249 23.8343 27.834C25.2855 27.8483 26.7368 27.8612 28.1867 27.8301C29.1795 27.8081 30.0534 27.9442 30.4596 29.0219C34.1916 27.4618 37.8779 25.9238 41.5563 24.3702C41.6725 24.3209 41.781 24.1095 41.7849 23.9708C41.8071 23.1953 41.7992 22.4172 41.794 21.6417C41.7888 20.6431 41.2702 20.1283 40.2513 20.1283C30.8776 20.1257 21.5052 20.1257 12.1315 20.1283C11.1309 20.1283 10.6071 20.6548 10.5928 21.6624C10.5823 22.4068 10.6045 23.1512 10.5836 23.8956C10.5758 24.1873 10.6868 24.3196 10.9481 24.4273C12.6449 25.1262 14.3339 25.8408 16.0268 26.5489C17.9875 27.3672 19.9508 28.1829 21.9585 29.0193L21.9598 29.0167ZM1.39802 18.7913C2.18439 18.7913 2.9172 18.8068 3.6487 18.7861C4.15292 18.7718 4.42593 19.0001 4.58529 19.4591C4.7538 19.9454 4.95235 20.4253 5.16919 20.8921C5.45395 21.5068 5.44611 21.6443 4.95757 22.1293C4.44552 22.6376 3.92824 23.1421 3.48542 23.5765C4.60619 24.7009 5.66948 25.7682 6.78372 26.886C7.23438 26.4205 7.68765 25.9108 8.18925 25.453C8.45442 25.2105 8.80581 25.0601 9.21728 24.8072C9.21728 24.2042 9.2016 23.4456 9.22381 22.6869C9.23295 22.3549 9.13629 22.1293 8.88679 21.892C6.97051 20.0764 6.17892 17.8485 6.60346 15.2548C7.24222 11.3449 11.0395 8.61123 14.9426 9.19479C19.0207 9.8056 21.8096 13.4652 21.2505 17.4815C21.1957 17.8757 21.1147 18.2674 21.0415 18.6875H26.4128V14.2044C25.6735 14.2044 24.9603 14.1889 24.2484 14.2096C23.7167 14.2252 23.3993 14.0203 23.2347 13.5041C23.0793 13.0139 22.8807 12.5315 22.6443 12.0737C22.3961 11.5939 22.4588 11.2282 22.8559 10.8664C23.3915 10.3801 23.8996 9.86266 24.3672 9.41007C23.236 8.28832 22.1662 7.22881 21.0585 6.1317C20.5556 6.63487 20.0161 7.16916 19.4845 7.71123C19.1827 8.01858 18.8627 8.06786 18.4695 7.87852C18.0019 7.65417 17.5225 7.45057 17.0352 7.2729C16.3037 7.00576 16.2462 6.94351 16.2449 6.15245C16.2449 5.46384 16.2449 4.77393 16.2449 4.07235H11.5881C11.5881 4.85563 11.579 5.61168 11.5921 6.36772C11.5999 6.8242 11.3857 7.07708 10.9585 7.22363C10.453 7.3974 9.94225 7.57895 9.47069 7.82535C8.98607 8.07823 8.62293 8.02506 8.25718 7.62823C7.76733 7.09524 7.24875 6.58818 6.79025 6.11873C5.65511 7.24567 4.57876 8.31425 3.46844 9.41785C3.94653 9.88081 4.44813 10.3879 4.97586 10.869C5.37035 11.2295 5.44611 11.5952 5.18486 12.0737C4.96149 12.4835 4.78645 12.9232 4.6284 13.3615C4.35278 14.1266 4.26656 14.1992 3.43186 14.2005C2.75522 14.2005 2.07858 14.2005 1.39933 14.2005V18.79L1.39802 18.7913ZM9.41191 20.4292C10.099 18.9702 11.3517 18.6823 12.8212 18.7161C14.8877 18.764 16.9569 18.7161 19.0247 18.7381C19.4322 18.742 19.6295 18.611 19.6856 18.2272C19.7718 17.6384 19.9377 17.0496 19.939 16.4609C19.943 13.875 18.2291 11.5874 15.7525 10.8041C13.2405 10.0092 10.5366 10.8988 8.99913 13.023C7.38198 15.2587 7.5518 18.5903 9.4106 20.4266L9.41191 20.4292ZM26.2274 32.6854C27.0255 32.6854 27.8236 32.6724 28.6204 32.6919C28.9679 32.6997 29.1233 32.6037 29.1142 32.2315C29.0946 31.3756 29.0998 30.5184 29.1116 29.6625C29.1155 29.3565 29.0123 29.2307 28.6896 29.2333C27.0294 29.2437 25.3691 29.2424 23.7089 29.2333C23.3902 29.232 23.2831 29.3552 23.2883 29.6664C23.3026 30.5223 23.3053 31.3795 23.2883 32.2354C23.2817 32.57 23.3967 32.6971 23.7389 32.6906C24.5684 32.675 25.3992 32.6854 26.23 32.6854H26.2274ZM39.2338 2.49931C39.2338 3.70535 39.2455 4.92695 39.2272 6.14856C39.2207 6.59207 39.397 6.75547 39.832 6.75029C40.9881 6.73602 42.1454 6.7464 43.3014 6.7438C43.385 6.7438 43.4673 6.71527 43.466 6.71527C42.067 5.32249 40.6602 3.92062 39.2338 2.5006V2.49931Z" fill="#1A325D" stroke="#1A325D" stroke-width="0.215043" mask="url(#path-2-inside-1_1871_993)"/>
</svg>
