<svg width="46" height="45" viewBox="0 0 46 45" fill="none" xmlns="http://www.w3.org/2000/svg">
<circle cx="30" cy="18" r="8" fill="#FFC907"/>
<path d="M29.0553 32.1963C29.4757 31.9948 29.912 31.8205 30.3138 31.5881C33.0076 30.0304 35.6939 28.4617 38.3815 26.8954C39.5324 26.2241 40.7253 25.6517 42.0679 25.5021C43.4154 25.3525 44.6083 25.6975 45.3785 26.8818C46.1512 28.071 46.1314 29.3431 45.4144 30.5534C45.1807 30.9465 44.8012 31.3 44.4093 31.5436C39.436 34.6304 34.4465 37.6901 29.4658 40.7646C27.824 41.7783 26.0847 42.0046 24.234 41.5064C20.8937 40.6064 17.5497 39.7163 14.2107 38.8077C13.8139 38.7001 13.4776 38.684 13.1315 38.9424C12.862 39.1427 12.5517 39.2886 12.2278 39.4765C12.4441 39.8609 12.6555 40.2318 12.8607 40.6051C13.4727 41.7178 13.1809 42.8267 12.0955 43.4621C11.3649 43.8898 10.6269 44.3064 9.88265 44.7107C8.81702 45.2892 7.70812 44.9814 7.10731 43.9244C4.83265 39.9215 2.56417 35.9137 0.303104 31.9021C-0.302649 30.8278 0.0200068 29.7065 1.08811 29.0884C1.82119 28.6644 2.55922 28.2478 3.3022 27.8423C4.34187 27.2749 5.44953 27.579 6.05652 28.5902C6.24566 28.9055 6.42491 29.2269 6.62765 29.578C7.33107 29.1737 8.00729 28.7806 8.68721 28.3937C10.4538 27.3886 12.1993 26.3428 13.9956 25.3958C15.6039 24.5478 17.2753 24.4316 19.0382 25.0645C21.2782 25.8693 23.5665 26.543 25.8362 27.265C26.1279 27.3577 26.437 27.3985 26.7362 27.4653C28.8427 27.9363 29.8626 29.9031 29.0368 31.9008C29.0133 31.9565 28.9935 32.0134 28.9725 32.0702C28.9997 32.1122 29.0257 32.1543 29.0529 32.1963H29.0553ZM11.4848 38.1722C11.9978 37.8768 12.4577 37.5628 12.9584 37.3415C13.2427 37.2154 13.6198 37.1375 13.909 37.2129C17.4644 38.1376 21.0137 39.0846 24.5579 40.0476C26.0216 40.4457 27.3864 40.2899 28.682 39.4913C33.664 36.4193 38.651 33.3547 43.6268 30.2727C43.874 30.1194 44.1064 29.866 44.2325 29.6052C44.5465 28.9549 44.523 28.2824 44.1114 27.6705C43.7034 27.0622 43.0717 26.9349 42.398 26.9844C41.1976 27.0721 40.153 27.5988 39.1368 28.1897C36.4208 29.7684 33.7048 31.3458 30.995 32.9356C29.6327 33.7354 28.1702 34.021 26.6373 33.7045C24.8633 33.3374 23.1078 32.8762 21.3474 32.446C20.8851 32.3335 20.4252 32.2037 19.9777 32.043C19.5945 31.9058 19.435 31.5967 19.5277 31.195C19.6217 30.7895 19.9023 30.6078 20.3102 30.635C20.4462 30.6436 20.581 30.6881 20.7145 30.7227C22.4551 31.1764 24.1871 31.6647 25.9376 32.0727C26.8932 32.2952 27.6287 31.75 27.8191 30.8204C27.9885 29.9995 27.4346 29.1478 26.547 28.966C23.9905 28.4431 21.544 27.5753 19.1 26.6889C18.5523 26.4911 17.9923 26.2945 17.4212 26.2006C16.1503 25.9929 15.0254 26.4763 13.9548 27.0857C12.0003 28.1971 10.0594 29.3307 8.11237 30.4557C7.87501 30.5929 7.63889 30.7339 7.36445 30.8958C8.74161 33.3299 10.1039 35.7356 11.4836 38.1735L11.4848 38.1722ZM11.7271 41.7264C11.6505 41.5521 11.6097 41.4359 11.5503 41.3296C9.30656 37.3613 7.06281 33.393 4.81411 29.4272C4.57799 29.0105 4.36906 28.9611 3.94009 29.1997C3.29354 29.5582 2.65194 29.9241 2.0091 30.2888C1.41571 30.6251 1.37615 30.7623 1.70622 31.3458C2.8893 33.4375 4.07484 35.5267 5.25791 37.6184C6.28893 39.4419 7.31994 41.2653 8.34849 43.09C8.52403 43.4015 8.74037 43.6327 9.1236 43.42C9.89254 42.996 10.659 42.5683 11.4131 42.1195C11.5516 42.0367 11.6294 41.8513 11.7259 41.7252L11.7271 41.7264Z" fill="#1A325D"/>
<path d="M29.3233 6.00658C28.2095 4.74439 28.4023 3.27451 28.6755 1.85903C28.8906 0.745183 30.0082 0.00591756 31.1529 0.00468133C35.209 -0.000263587 39.2651 -0.00273605 43.3211 0.00468133C44.7453 0.00715379 45.8999 1.17415 45.9197 2.59706C45.9246 2.95185 45.9036 3.30789 45.9246 3.66145C45.9778 4.53175 45.7775 5.31305 45.1594 5.94477C46.2559 7.82878 46.2547 9.79438 45.1928 11.1814C46.2547 12.9616 46.2337 14.7109 45.2002 16.5689C46.2164 17.5344 45.9444 18.8844 45.8925 20.1528C45.8406 21.4471 44.6241 22.4756 43.2816 22.4855C41.6473 22.4979 40.0117 22.4966 38.3774 22.4818C38.0968 22.4793 37.9386 22.5659 37.7865 22.8008C35.7925 25.8839 32.1938 27.3896 28.6582 26.6343C25.1881 25.8926 22.4907 23.0764 21.8824 19.5594C21.1333 15.2326 23.832 10.9552 28.0932 9.75235C28.453 9.65098 28.5741 9.51252 28.5321 9.1602C28.5049 8.9315 28.5395 8.69785 28.5247 8.46667C28.4654 7.53827 28.6409 6.68527 29.3233 6.00287V6.00658ZM30.452 25.3227C34.3894 25.3424 37.6481 22.1245 37.6839 18.1822C37.7198 14.2423 34.4883 10.9379 30.5805 10.9181C26.5307 10.8971 23.2707 14.0928 23.2571 18.1006C23.2423 22.059 26.475 25.3041 30.452 25.3239V25.3227ZM37.2685 1.4795C35.3091 1.4795 33.3509 1.47579 31.3915 1.48074C30.4891 1.48321 30.0292 1.9468 30.0143 2.85048C30.0106 3.11256 30.0143 3.37464 30.0143 3.63796C30.0143 4.85812 30.4013 5.25 31.614 5.25C35.3623 5.25 39.1105 5.25 42.86 5.25C43.0145 5.25 43.1691 5.25 43.3224 5.2327C43.9986 5.15234 44.4078 4.7209 44.4411 4.04097C44.4585 3.67134 44.4473 3.30047 44.4461 2.93084C44.4424 1.93938 43.9936 1.48321 43.0096 1.48198C41.0971 1.4795 39.1835 1.48198 37.271 1.48198L37.2685 1.4795ZM30.044 9.39508C30.1207 9.40868 30.18 9.42846 30.2369 9.42723C31.7302 9.38148 33.1358 9.71279 34.4685 10.3853C34.5983 10.4508 34.7627 10.4743 34.9111 10.4743C37.6703 10.4793 40.4296 10.4805 43.1888 10.4755C43.9355 10.4743 44.4078 10.0219 44.4374 9.28259C44.456 8.83631 44.456 8.38756 44.4374 7.94128C44.4065 7.22179 43.9355 6.75202 43.2309 6.75079C39.223 6.74584 35.2152 6.74584 31.2061 6.75079C30.588 6.75079 30.1219 7.12042 30.0551 7.73112C29.9958 8.27382 30.0428 8.82889 30.0428 9.39385L30.044 9.39508ZM36.7456 11.9936C37.187 12.613 37.6233 13.1334 37.9547 13.7145C38.2872 14.298 38.5023 14.947 38.799 15.5515C38.8497 15.6541 39.0574 15.732 39.1934 15.7332C40.5174 15.7468 41.8414 15.7456 43.1654 15.7394C43.9454 15.7357 44.4177 15.261 44.4399 14.4698C44.4498 14.1162 44.4436 13.7614 44.4411 13.4066C44.4362 12.4374 44.0072 12.0023 43.0294 11.9949C41.9205 11.9875 40.8116 11.9924 39.7039 11.9924C38.736 11.9924 37.768 11.9924 36.7444 11.9924L36.7456 11.9936ZM38.8225 21.0045C38.8695 21.0045 38.977 21.0045 39.0833 21.0045C40.4555 21.0045 41.8278 21.0194 43.2 20.9959C43.964 20.9835 44.4189 20.4927 44.4411 19.7287C44.451 19.3739 44.4449 19.0191 44.4424 18.6643C44.4374 17.6791 43.9887 17.2328 42.9898 17.2291C41.8488 17.2254 40.7077 17.2278 39.5667 17.2291C39.4344 17.2291 39.3034 17.2476 39.27 17.2501C39.1167 18.5296 38.9721 19.7448 38.8212 21.0033L38.8225 21.0045Z" fill="#1A325D"/>
<path d="M33.7269 14.7988H31.7354C32.0444 15.0831 32.2546 15.4787 32.3288 15.9991H33.7269V16.7532H32.3288C32.1681 17.9907 31.1902 18.7448 29.8056 18.819C30.6957 19.7462 31.723 20.9713 32.712 22.1964H31.0666C30.2383 21.195 29.2975 20.0688 28.2344 18.9302V17.8906H28.9637C30.1394 17.8906 30.7575 17.4332 30.8811 16.7532H28.2344V15.9991H30.8317C30.6463 15.4428 30.09 15.1214 29.1368 15.1214H28.2344V14.0459H33.7269V14.8V14.7988Z" fill="#1A325D"/>
</svg>
