<svg width="42" height="42" viewBox="0 0 42 42" fill="none" xmlns="http://www.w3.org/2000/svg">
<path fill-rule="evenodd" clip-rule="evenodd" d="M1 21.1904C1 10.1447 9.95431 1.19043 21 1.19043C32.0457 1.19043 41 10.1447 41 21.1904C41 32.2361 32.0457 41.1904 21 41.1904C9.95431 41.1904 1 32.2361 1 21.1904Z" stroke="#1A325D"/>
<path fill-rule="evenodd" clip-rule="evenodd" d="M28.1574 14.9244C28.9463 15.1435 29.5675 15.7888 29.7783 16.6084C30.1615 18.0938 30.1615 21.193 30.1615 21.193C30.1615 21.193 30.1615 24.2922 29.7783 25.7777C29.5675 26.5972 28.9463 27.2426 28.1574 27.4617C26.7278 27.8597 20.9948 27.8597 20.9948 27.8597C20.9948 27.8597 15.2618 27.8597 13.8321 27.4617C13.0432 27.2426 12.422 26.5972 12.2111 25.7777C11.8281 24.2922 11.8281 21.193 11.8281 21.193C11.8281 21.193 11.8281 18.0938 12.2111 16.6084C12.422 15.7888 13.0432 15.1435 13.8321 14.9244C15.2618 14.5264 20.9948 14.5264 20.9948 14.5264C20.9948 14.5264 26.7278 14.5264 28.1574 14.9244ZM19.2761 18.5843V24.3814L23.8594 21.4829L19.2761 18.5843Z" fill="#1A325D"/>
</svg>
